solid csg.js
facet normal 0 0 -1
outer loop
vertex 149.9734423999998 -78.18173755 0
vertex 187.47223960000005 -83.38346080000001 0
vertex 120.31418045132003 -83.38346080000001 0
endloop
endfacet
facet normal 0 0 -1
outer loop
vertex 149.9734423999998 -78.18173755 0
vertex 120.31418045132003 -83.38346080000001 0
vertex 127.11605989999966 -79.62739050000016 0
endloop
endfacet
facet normal 0 0 -1
outer loop
vertex 149.9734423999998 -78.18173755 0
vertex 127.11605989999966 -79.62739050000016 0
vertex 127.42156063913255 -79.4805620474617 0
endloop
endfacet
facet normal 0 0 -1
outer loop
vertex 149.9734423999998 -78.18173755 0
vertex 127.42156063913255 -79.4805620474617 0
vertex 127.7416741971761 -79.36913268832258 0
endloop
endfacet
facet normal 0 0 -1
outer loop
vertex 149.9734423999998 -78.18173755 0
vertex 127.7416741971761 -79.36913268832258 0
vertex 128.072314225455 -79.2945246202552 0
endloop
endfacet
facet normal 0 0 -1
outer loop
vertex 149.9734423999998 -78.18173755 0
vertex 128.072314225455 -79.2945246202552 0
vertex 128.40925995000032 -79.25769024999998 0
endloop
endfacet
facet normal 0 0 -1
outer loop
vertex 149.9734423999998 -78.18173755 0
vertex 128.40925995000032 -79.25769024999998 0
vertex 149.40422479999995 -78.1573951 0
endloop
endfacet
facet normal 0 0 -1
outer loop
vertex 149.9734423999998 -78.18173755 0
vertex 149.40422479999995 -78.1573951 0
vertex 149.68941151987806 -78.1560241392805 0
endloop
endfacet
facet normal 0 0 -1
outer loop
vertex 187.47223960000005 -83.38346080000001 0
vertex 187.67784959991346 -83.40479019872197 0
vertex 120.27555497649342 -83.40479019872197 0
endloop
endfacet
facet normal 0 0 -1
outer loop
vertex 187.47223960000005 -83.38346080000001 0
vertex 120.27555497649342 -83.40479019872197 0
vertex 120.31418045132003 -83.38346080000001 0
endloop
endfacet
facet normal 0 0 -1
outer loop
vertex 187.67784959991346 -83.40479019872197 0
vertex 187.88443979999983 -83.4119054 0
vertex 120.26267003625517 -83.4119054 0
endloop
endfacet
facet normal 0 0 -1
outer loop
vertex 187.67784959991346 -83.40479019872197 0
vertex 120.26267003625517 -83.4119054 0
vertex 120.27555497649342 -83.40479019872197 0
endloop
endfacet
facet normal 0 0 -1
outer loop
vertex 187.88443979999983 -83.4119054 0
vertex 206.67735929999995 -83.4119144 0
vertex 207.1983041830008 -83.45748894096337 0
endloop
endfacet
facet normal 0 0 -1
outer loop
vertex 187.88443979999983 -83.4119054 0
vertex 207.1983041830008 -83.45748894096337 0
vertex 207.70342007997695 -83.59283433764226 0
endloop
endfacet
facet normal 0 0 -1
outer loop
vertex 187.88443979999983 -83.4119054 0
vertex 207.70342007997695 -83.59283433764226 0
vertex 208.17735965000006 -83.81383598864673 0
endloop
endfacet
facet normal 0 0 -1
outer loop
vertex 187.88443979999983 -83.4119054 0
vertex 208.17735965000006 -83.81383598864673 0
vertex 208.60572247905964 -84.11377887064309 0
endloop
endfacet
facet normal 0 0 -1
outer loop
vertex 187.88443979999983 -83.4119054 0
vertex 208.60572247905964 -84.11377887064309 0
vertex 208.97549297935683 -84.48354937094025 0
endloop
endfacet
facet normal 0 0 -1
outer loop
vertex 187.88443979999983 -83.4119054 0
vertex 208.97549297935683 -84.48354937094025 0
vertex 209.27543586135337 -84.91191220000012 0
endloop
endfacet
facet normal 0 0 -1
outer loop
vertex 187.88443979999983 -83.4119054 0
vertex 209.27543586135337 -84.91191220000012 0
vertex 209.4964375123578 -85.38585177002317 0
endloop
endfacet
facet normal 0 0 -1
outer loop
vertex 187.88443979999983 -83.4119054 0
vertex 209.4964375123578 -85.38585177002317 0
vertex 209.6317829090366 -85.890967666999 0
endloop
endfacet
facet normal 0 0 -1
outer loop
vertex 187.88443979999983 -83.4119054 0
vertex 209.6317829090366 -85.890967666999 0
vertex 209.67735965 -86.41191220000023 0
endloop
endfacet
facet normal 0 0 -1
outer loop
vertex 187.88443979999983 -83.4119054 0
vertex 209.67735965 -86.41191220000023 0
vertex 209.6773593 -151.73026249999998 0
endloop
endfacet
facet normal 0 0 -1
outer loop
vertex 187.88443979999983 -83.4119054 0
vertex 209.6773593 -151.73026249999998 0
vertex 209.65338778623317 -152.10873224897267 0
endloop
endfacet
facet normal 0 0 -1
outer loop
vertex 187.88443979999983 -83.4119054 0
vertex 209.65338778623317 -152.10873224897267 0
vertex 209.5818656629826 -152.48115578945826 0
endloop
endfacet
facet normal 0 0 -1
outer loop
vertex 187.88443979999983 -83.4119054 0
vertex 209.5818656629826 -152.48115578945826 0
vertex 209.46393116171998 -152.8415807622803 0
endloop
endfacet
facet normal 0 0 -1
outer loop
vertex 187.88443979999983 -83.4119054 0
vertex 209.46393116171998 -152.8415807622803 0
vertex 209.30146880642465 -153.18424778831908 0
endloop
endfacet
facet normal 0 0 -1
outer loop
vertex 187.88443979999983 -83.4119054 0
vertex 209.30146880642465 -153.18424778831908 0
vertex 209.09707465000082 -153.5036812499988 0
endloop
endfacet
facet normal 0 0 -1
outer loop
vertex 187.88443979999983 -83.4119054 0
vertex 209.09707465000082 -153.5036812499988 0
vertex 207.12148355751853 -156.19923194999998 0
endloop
endfacet
facet normal 0 0 -1
outer loop
vertex 187.88443979999983 -83.4119054 0
vertex 207.12148355751853 -156.19923194999998 0
vertex 160.07936294999945 -156.19923194999998 0
endloop
endfacet
facet normal 0 0 -1
outer loop
vertex 187.88443979999983 -83.4119054 0
vertex 160.07936294999945 -156.19923194999998 0
vertex 98.16567839950429 -156.19923194999998 0
endloop
endfacet
facet normal 0 0 -1
outer loop
vertex 187.88443979999983 -83.4119054 0
vertex 98.16567839950429 -156.19923194999998 0
vertex 97.88028360212196 -155.87593216647406 0
endloop
endfacet
facet normal 0 0 -1
outer loop
vertex 187.88443979999983 -83.4119054 0
vertex 97.88028360212196 -155.87593216647406 0
vertex 97.62816750510767 -155.4794981408381 0
endloop
endfacet
facet normal 0 0 -1
outer loop
vertex 187.88443979999983 -83.4119054 0
vertex 97.62816750510767 -155.4794981408381 0
vertex 97.44103536675242 -155.04856424120825 0
endloop
endfacet
facet normal 0 0 -1
outer loop
vertex 187.88443979999983 -83.4119054 0
vertex 97.44103536675242 -155.04856424120825 0
vertex 97.32347655 -154.59369899999996 0
endloop
endfacet
facet normal 0 0 -1
outer loop
vertex 187.88443979999983 -83.4119054 0
vertex 97.32347655 -154.59369899999996 0
vertex 88.2934933 -103.38211999999997 0
endloop
endfacet
facet normal 0 0 -1
outer loop
vertex 187.88443979999983 -83.4119054 0
vertex 88.2934933 -103.38211999999997 0
vertex 88.24848161445206 -102.9194731957494 0
endloop
endfacet
facet normal 0 0 -1
outer loop
vertex 187.88443979999983 -83.4119054 0
vertex 88.24848161445206 -102.9194731957494 0
vertex 88.27548063574034 -102.45542683854708 0
endloop
endfacet
facet normal 0 0 -1
outer loop
vertex 187.88443979999983 -83.4119054 0
vertex 88.27548063574034 -102.45542683854708 0
vertex 88.3738405334549 -102.00112154548444 0
endloop
endfacet
facet normal 0 0 -1
outer loop
vertex 187.88443979999983 -83.4119054 0
vertex 88.3738405334549 -102.00112154548444 0
vertex 88.54119992722816 -101.5674640745478 0
endloop
endfacet
facet normal 0 0 -1
outer loop
vertex 187.88443979999983 -83.4119054 0
vertex 88.54119992722816 -101.5674640745478 0
vertex 88.77354092769687 -101.1648654800587 0
endloop
endfacet
facet normal 0 0 -1
outer loop
vertex 187.88443979999983 -83.4119054 0
vertex 88.77354092769687 -101.1648654800587 0
vertex 89.06528559619026 -100.80299116874464 0
endloop
endfacet
facet normal 0 0 -1
outer loop
vertex 187.88443979999983 -83.4119054 0
vertex 89.06528559619026 -100.80299116874464 0
vertex 89.40942985738316 -100.49052885698359 0
endloop
endfacet
facet normal 0 0 -1
outer loop
vertex 187.88443979999983 -83.4119054 0
vertex 89.40942985738316 -100.49052885698359 0
vertex 89.79771165000004 -100.23497999999994 0
endloop
endfacet
facet normal 0 0 -1
outer loop
vertex 187.88443979999983 -83.4119054 0
vertex 89.79771165000004 -100.23497999999994 0
vertex 120.26267003625517 -83.4119054 0
endloop
endfacet
facet normal 0 0 -1
outer loop
vertex 207.12148355751853 -156.19923194999998 0
vertex 207.11316623623432 -156.2105803314009 0
vertex 160.38752816262314 -156.2105803314009 0
endloop
endfacet
facet normal 0 0 -1
outer loop
vertex 207.12148355751853 -156.19923194999998 0
vertex 160.38752816262314 -156.2105803314009 0
vertex 160.07936294999945 -156.19923194999998 0
endloop
endfacet
facet normal 0 0 -1
outer loop
vertex 207.11316623623432 -156.2105803314009 0
vertex 207.08170741007618 -156.2535036170922 0
vertex 160.69290035450825 -156.2535036170922 0
endloop
endfacet
facet normal 0 0 -1
outer loop
vertex 207.11316623623432 -156.2105803314009 0
vertex 160.69290035450825 -156.2535036170922 0
vertex 160.38752816262314 -156.2105803314009 0
endloop
endfacet
facet normal 0 0 -1
outer loop
vertex 207.08170741007618 -156.2535036170922 0
vertex 207.0274394750427 -156.3275482768519 0
vertex 160.9922529432601 -156.3275482768519 0
endloop
endfacet
facet normal 0 0 -1
outer loop
vertex 207.08170741007618 -156.2535036170922 0
vertex 160.9922529432601 -156.3275482768519 0
vertex 160.69290035450825 -156.2535036170922 0
endloop
endfacet
facet normal 0 0 -1
outer loop
vertex 207.0274394750427 -156.3275482768519 0
vertex 206.95093440048623 -156.43193389999988 0
vertex 161.2824258999997 -156.43193389999988 0
endloop
endfacet
facet normal 0 0 -1
outer loop
vertex 207.0274394750427 -156.3275482768519 0
vertex 161.2824258999997 -156.43193389999988 0
vertex 160.9922529432601 -156.3275482768519 0
endloop
endfacet
facet normal 0 0 -1
outer loop
vertex 160.07936294999945 -156.19923194999998 0
vertex 100.32173310000015 -157.072438 0
vertex 99.85288039132512 -157.0424996358069 0
endloop
endfacet
facet normal 0 0 -1
outer loop
vertex 160.07936294999945 -156.19923194999998 0
vertex 99.85288039132512 -157.0424996358069 0
vertex 99.39444773488292 -156.93972822653885 0
endloop
endfacet
facet normal 0 0 -1
outer loop
vertex 160.07936294999945 -156.19923194999998 0
vertex 99.39444773488292 -156.93972822653885 0
vertex 98.95768151234822 -156.76664521203858 0
endloop
endfacet
facet normal 0 0 -1
outer loop
vertex 160.07936294999945 -156.19923194999998 0
vertex 98.95768151234822 -156.76664521203858 0
vertex 98.55329329221198 -156.52749540444768 0
endloop
endfacet
facet normal 0 0 -1
outer loop
vertex 160.07936294999945 -156.19923194999998 0
vertex 98.55329329221198 -156.52749540444768 0
vertex 98.19120058158325 -156.22814388538535 0
endloop
endfacet
facet normal 0 0 -1
outer loop
vertex 160.07936294999945 -156.19923194999998 0
vertex 98.19120058158325 -156.22814388538535 0
vertex 98.16567839950429 -156.19923194999998 0
endloop
endfacet
facet normal 0 0 -1
outer loop
vertex 206.95093440048623 -156.43193389999988 0
vertex 197.62034149999977 -169.16285090000025 0
vertex 197.29214321705865 -169.54014858490797 0
endloop
endfacet
facet normal 0 0 -1
outer loop
vertex 206.95093440048623 -156.43193389999988 0
vertex 197.29214321705865 -169.54014858490797 0
vertex 196.9058325153753 -169.85768841705254 0
endloop
endfacet
facet normal 0 0 -1
outer loop
vertex 206.95093440048623 -156.43193389999988 0
vertex 196.9058325153753 -169.85768841705254 0
vertex 196.47214239524308 -170.10664701387842 0
endloop
endfacet
facet normal 0 0 -1
outer loop
vertex 206.95093440048623 -156.43193389999988 0
vertex 196.47214239524308 -170.10664701387842 0
vertex 196.00312305727556 -170.2801069915279 0
endloop
endfacet
facet normal 0 0 -1
outer loop
vertex 206.95093440048623 -156.43193389999988 0
vertex 196.00312305727556 -170.2801069915279 0
vertex 195.51180633422953 -170.3732487162765 0
endloop
endfacet
facet normal 0 0 -1
outer loop
vertex 206.95093440048623 -156.43193389999988 0
vertex 195.51180633422953 -170.3732487162765 0
vertex 195.01184359790875 -170.3834842193958 0
endloop
endfacet
facet normal 0 0 -1
outer loop
vertex 206.95093440048623 -156.43193389999988 0
vertex 195.01184359790875 -170.3834842193958 0
vertex 194.51712645199908 -170.31052910458473 0
endloop
endfacet
facet normal 0 0 -1
outer loop
vertex 206.95093440048623 -156.43193389999988 0
vertex 194.51712645199908 -170.31052910458473 0
vertex 194.04140074999992 -170.15641044999998 0
endloop
endfacet
facet normal 0 0 -1
outer loop
vertex 206.95093440048623 -156.43193389999988 0
vertex 194.04140074999992 -170.15641044999998 0
vertex 161.2824258999997 -156.43193389999988 0
endloop
endfacet
facet normal 0 0 1
outer loop
vertex 195.51180633422945 -170.3732487162765 1
vertex 196.0031230572757 -170.28010699152787 1
vertex 196.47214239524303 -170.10664701387844 1
endloop
endfacet
facet normal 0 0 1
outer loop
vertex 195.51180633422945 -170.3732487162765 1
vertex 196.47214239524303 -170.10664701387844 1
vertex 196.90583251537538 -169.8576884170525 1
endloop
endfacet
facet normal 0 0 1
outer loop
vertex 195.51180633422945 -170.3732487162765 1
vertex 196.90583251537538 -169.8576884170525 1
vertex 197.29214321705857 -169.54014858490802 1
endloop
endfacet
facet normal 0 0 1
outer loop
vertex 195.51180633422945 -170.3732487162765 1
vertex 197.29214321705857 -169.54014858490802 1
vertex 197.62034150000002 -169.16285089999997 1
endloop
endfacet
facet normal 0 0 1
outer loop
vertex 195.51180633422945 -170.3732487162765 1
vertex 197.62034150000002 -169.16285089999997 1
vertex 206.95093440048623 -156.43193389999985 1
endloop
endfacet
facet normal 0 0 1
outer loop
vertex 195.51180633422945 -170.3732487162765 1
vertex 206.95093440048623 -156.43193389999985 1
vertex 161.2824258999996 -156.43193389999985 1
endloop
endfacet
facet normal 0 0 1
outer loop
vertex 195.51180633422945 -170.3732487162765 1
vertex 161.2824258999996 -156.43193389999985 1
vertex 194.04140074999998 -170.15641045 1
endloop
endfacet
facet normal 0 0 1
outer loop
vertex 195.51180633422945 -170.3732487162765 1
vertex 194.04140074999998 -170.15641045 1
vertex 194.51712645199905 -170.31052910458473 1
endloop
endfacet
facet normal 0 0 1
outer loop
vertex 195.51180633422945 -170.3732487162765 1
vertex 194.51712645199905 -170.31052910458473 1
vertex 195.01184359790872 -170.3834842193958 1
endloop
endfacet
facet normal 0 0 1
outer loop
vertex 206.95093440048623 -156.43193389999985 1
vertex 207.0274394750427 -156.3275482768519 1
vertex 160.99225294326013 -156.3275482768519 1
endloop
endfacet
facet normal 0 0 1
outer loop
vertex 206.95093440048623 -156.43193389999985 1
vertex 160.99225294326013 -156.3275482768519 1
vertex 161.2824258999996 -156.43193389999985 1
endloop
endfacet
facet normal 0 0 1
outer loop
vertex 207.0274394750427 -156.3275482768519 1
vertex 207.08170741007618 -156.25350361709224 1
vertex 160.6929003545084 -156.25350361709224 1
endloop
endfacet
facet normal 0 0 1
outer loop
vertex 207.0274394750427 -156.3275482768519 1
vertex 160.6929003545084 -156.25350361709224 1
vertex 160.99225294326013 -156.3275482768519 1
endloop
endfacet
facet normal 0 0 1
outer loop
vertex 207.08170741007618 -156.25350361709224 1
vertex 207.11316623623435 -156.2105803314009 1
vertex 160.38752816262289 -156.2105803314009 1
endloop
endfacet
facet normal 0 0 1
outer loop
vertex 207.08170741007618 -156.25350361709224 1
vertex 160.38752816262289 -156.2105803314009 1
vertex 160.6929003545084 -156.25350361709224 1
endloop
endfacet
facet normal 0 0 1
outer loop
vertex 160.0793629499991 -156.19923195 1
vertex 98.16567839950429 -156.19923195 1
vertex 98.19120058158322 -156.22814388538535 1
endloop
endfacet
facet normal 0 0 1
outer loop
vertex 160.0793629499991 -156.19923195 1
vertex 98.19120058158322 -156.22814388538535 1
vertex 98.55329329221192 -156.52749540444765 1
endloop
endfacet
facet normal 0 0 1
outer loop
vertex 160.0793629499991 -156.19923195 1
vertex 98.55329329221192 -156.52749540444765 1
vertex 98.95768151234827 -156.7666452120386 1
endloop
endfacet
facet normal 0 0 1
outer loop
vertex 160.0793629499991 -156.19923195 1
vertex 98.95768151234827 -156.7666452120386 1
vertex 99.39444773488279 -156.93972822653882 1
endloop
endfacet
facet normal 0 0 1
outer loop
vertex 160.0793629499991 -156.19923195 1
vertex 99.39444773488279 -156.93972822653882 1
vertex 99.85288039132507 -157.04249963580688 1
endloop
endfacet
facet normal 0 0 1
outer loop
vertex 160.0793629499991 -156.19923195 1
vertex 99.85288039132507 -157.04249963580688 1
vertex 100.32173310000032 -157.072438 1
endloop
endfacet
facet normal 0 0 1
outer loop
vertex 207.11316623623435 -156.2105803314009 1
vertex 207.1214835575185 -156.19923195 1
vertex 160.0793629499991 -156.19923195 1
endloop
endfacet
facet normal 0 0 1
outer loop
vertex 207.11316623623435 -156.2105803314009 1
vertex 160.0793629499991 -156.19923195 1
vertex 160.38752816262289 -156.2105803314009 1
endloop
endfacet
facet normal 0 0 1
outer loop
vertex 160.0793629499991 -156.19923195 1
vertex 207.1214835575185 -156.19923195 1
vertex 209.09707465000014 -153.50368124999986 1
endloop
endfacet
facet normal 0 0 1
outer loop
vertex 160.0793629499991 -156.19923195 1
vertex 209.09707465000014 -153.50368124999986 1
vertex 209.30146880642454 -153.18424778831923 1
endloop
endfacet
facet normal 0 0 1
outer loop
vertex 160.0793629499991 -156.19923195 1
vertex 209.30146880642454 -153.18424778831923 1
vertex 209.46393116171993 -152.84158076228036 1
endloop
endfacet
facet normal 0 0 1
outer loop
vertex 160.0793629499991 -156.19923195 1
vertex 209.46393116171993 -152.84158076228036 1
vertex 209.5818656629826 -152.48115578945814 1
endloop
endfacet
facet normal 0 0 1
outer loop
vertex 160.0793629499991 -156.19923195 1
vertex 209.5818656629826 -152.48115578945814 1
vertex 209.65338778623314 -152.10873224897276 1
endloop
endfacet
facet normal 0 0 1
outer loop
vertex 160.0793629499991 -156.19923195 1
vertex 209.65338778623314 -152.10873224897276 1
vertex 209.6773593 -151.73026249999995 1
endloop
endfacet
facet normal 0 0 1
outer loop
vertex 160.0793629499991 -156.19923195 1
vertex 209.6773593 -151.73026249999995 1
vertex 209.67735965 -86.41191220000016 1
endloop
endfacet
facet normal 0 0 1
outer loop
vertex 160.0793629499991 -156.19923195 1
vertex 209.67735965 -86.41191220000016 1
vertex 209.6317829090366 -85.89096766699899 1
endloop
endfacet
facet normal 0 0 1
outer loop
vertex 160.0793629499991 -156.19923195 1
vertex 209.6317829090366 -85.89096766699899 1
vertex 209.49643751235777 -85.38585177002307 1
endloop
endfacet
facet normal 0 0 1
outer loop
vertex 160.0793629499991 -156.19923195 1
vertex 209.49643751235777 -85.38585177002307 1
vertex 209.2754358613534 -84.91191220000013 1
endloop
endfacet
facet normal 0 0 1
outer loop
vertex 160.0793629499991 -156.19923195 1
vertex 209.2754358613534 -84.91191220000013 1
vertex 208.9754929793569 -84.48354937094031 1
endloop
endfacet
facet normal 0 0 1
outer loop
vertex 160.0793629499991 -156.19923195 1
vertex 208.9754929793569 -84.48354937094031 1
vertex 208.60572247905964 -84.11377887064309 1
endloop
endfacet
facet normal 0 0 1
outer loop
vertex 160.0793629499991 -156.19923195 1
vertex 208.60572247905964 -84.11377887064309 1
vertex 208.17735965 -83.81383598864667 1
endloop
endfacet
facet normal 0 0 1
outer loop
vertex 160.0793629499991 -156.19923195 1
vertex 208.17735965 -83.81383598864667 1
vertex 207.70342007997706 -83.59283433764229 1
endloop
endfacet
facet normal 0 0 1
outer loop
vertex 160.0793629499991 -156.19923195 1
vertex 207.70342007997706 -83.59283433764229 1
vertex 207.1983041830009 -83.45748894096339 1
endloop
endfacet
facet normal 0 0 1
outer loop
vertex 160.0793629499991 -156.19923195 1
vertex 207.1983041830009 -83.45748894096339 1
vertex 206.6773592999999 -83.4119144 1
endloop
endfacet
facet normal 0 0 1
outer loop
vertex 160.0793629499991 -156.19923195 1
vertex 206.6773592999999 -83.4119144 1
vertex 187.8844398034767 -83.4119054 1
endloop
endfacet
facet normal 0 0 1
outer loop
vertex 160.0793629499991 -156.19923195 1
vertex 187.8844398034767 -83.4119054 1
vertex 120.26267003625517 -83.4119054 1
endloop
endfacet
facet normal 0 0 1
outer loop
vertex 160.0793629499991 -156.19923195 1
vertex 120.26267003625517 -83.4119054 1
vertex 89.79771165000014 -100.2349799999999 1
endloop
endfacet
facet normal 0 0 1
outer loop
vertex 160.0793629499991 -156.19923195 1
vertex 89.79771165000014 -100.2349799999999 1
vertex 89.40942985738319 -100.49052885698359 1
endloop
endfacet
facet normal 0 0 1
outer loop
vertex 160.0793629499991 -156.19923195 1
vertex 89.40942985738319 -100.49052885698359 1
vertex 89.06528559619012 -100.8029911687448 1
endloop
endfacet
facet normal 0 0 1
outer loop
vertex 160.0793629499991 -156.19923195 1
vertex 89.06528559619012 -100.8029911687448 1
vertex 88.77354092769693 -101.1648654800586 1
endloop
endfacet
facet normal 0 0 1
outer loop
vertex 160.0793629499991 -156.19923195 1
vertex 88.77354092769693 -101.1648654800586 1
vertex 88.54119992722815 -101.56746407454781 1
endloop
endfacet
facet normal 0 0 1
outer loop
vertex 160.0793629499991 -156.19923195 1
vertex 88.54119992722815 -101.56746407454781 1
vertex 88.37384053345488 -102.00112154548444 1
endloop
endfacet
facet normal 0 0 1
outer loop
vertex 160.0793629499991 -156.19923195 1
vertex 88.37384053345488 -102.00112154548444 1
vertex 88.27548063574035 -102.45542683854693 1
endloop
endfacet
facet normal 0 0 1
outer loop
vertex 160.0793629499991 -156.19923195 1
vertex 88.27548063574035 -102.45542683854693 1
vertex 88.24848161445206 -102.91947319574953 1
endloop
endfacet
facet normal 0 0 1
outer loop
vertex 160.0793629499991 -156.19923195 1
vertex 88.24848161445206 -102.91947319574953 1
vertex 88.29349329999998 -103.38211999999996 1
endloop
endfacet
facet normal 0 0 1
outer loop
vertex 160.0793629499991 -156.19923195 1
vertex 88.29349329999998 -103.38211999999996 1
vertex 97.32347655000001 -154.59369900000002 1
endloop
endfacet
facet normal 0 0 1
outer loop
vertex 160.0793629499991 -156.19923195 1
vertex 97.32347655000001 -154.59369900000002 1
vertex 97.4410353667524 -155.04856424120823 1
endloop
endfacet
facet normal 0 0 1
outer loop
vertex 160.0793629499991 -156.19923195 1
vertex 97.4410353667524 -155.04856424120823 1
vertex 97.6281675051077 -155.47949814083816 1
endloop
endfacet
facet normal 0 0 1
outer loop
vertex 160.0793629499991 -156.19923195 1
vertex 97.6281675051077 -155.47949814083816 1
vertex 97.88028360212199 -155.87593216647412 1
endloop
endfacet
facet normal 0 0 1
outer loop
vertex 160.0793629499991 -156.19923195 1
vertex 97.88028360212199 -155.87593216647412 1
vertex 98.16567839950429 -156.19923195 1
endloop
endfacet
facet normal 0 0 1
outer loop
vertex 187.8844398034767 -83.4119054 1
vertex 187.67784959991366 -83.40479019872197 1
vertex 120.27555497649344 -83.40479019872197 1
endloop
endfacet
facet normal 0 0 1
outer loop
vertex 187.8844398034767 -83.4119054 1
vertex 120.27555497649344 -83.40479019872197 1
vertex 120.26267003625517 -83.4119054 1
endloop
endfacet
facet normal 0 0 1
outer loop
vertex 187.67784959991366 -83.40479019872197 1
vertex 187.47223959999982 -83.38346079999998 1
vertex 120.3141804513201 -83.38346079999998 1
endloop
endfacet
facet normal 0 0 1
outer loop
vertex 187.67784959991366 -83.40479019872197 1
vertex 120.3141804513201 -83.38346079999998 1
vertex 120.27555497649344 -83.40479019872197 1
endloop
endfacet
facet normal 0 0 1
outer loop
vertex 187.47223959999982 -83.38346079999998 1
vertex 149.97344239999967 -78.18173754999998 1
vertex 149.6894115198781 -78.1560241392805 1
endloop
endfacet
facet normal 0 0 1
outer loop
vertex 187.47223959999982 -83.38346079999998 1
vertex 149.6894115198781 -78.1560241392805 1
vertex 149.40422479999975 -78.1573951 1
endloop
endfacet
facet normal 0 0 1
outer loop
vertex 187.47223959999982 -83.38346079999998 1
vertex 149.40422479999975 -78.1573951 1
vertex 128.40925995000018 -79.25769025000001 1
endloop
endfacet
facet normal 0 0 1
outer loop
vertex 187.47223959999982 -83.38346079999998 1
vertex 128.40925995000018 -79.25769025000001 1
vertex 128.0723142254548 -79.29452462025523 1
endloop
endfacet
facet normal 0 0 1
outer loop
vertex 187.47223959999982 -83.38346079999998 1
vertex 128.0723142254548 -79.29452462025523 1
vertex 127.74167419717618 -79.36913268832254 1
endloop
endfacet
facet normal 0 0 1
outer loop
vertex 187.47223959999982 -83.38346079999998 1
vertex 127.74167419717618 -79.36913268832254 1
vertex 127.42156063913265 -79.48056204746166 1
endloop
endfacet
facet normal 0 0 1
outer loop
vertex 187.47223959999982 -83.38346079999998 1
vertex 127.42156063913265 -79.48056204746166 1
vertex 127.1160599 -79.6273905 1
endloop
endfacet
facet normal 0 0 1
outer loop
vertex 187.47223959999982 -83.38346079999998 1
vertex 127.1160599 -79.6273905 1
vertex 120.3141804513201 -83.38346079999998 1
endloop
endfacet
facet normal 0.8423231883851051 -0.5389727695429064 0
outer loop
vertex 209.30146880642454 -153.18424778831923 1
vertex 209.09707465000014 -153.50368124999986 1
vertex 209.09707465000082 -153.5036812499988 0
endloop
endfacet
facet normal 0.8423231883851051 -0.5389727695429064 0
outer loop
vertex 209.30146880642454 -153.18424778831923 1
vertex 209.09707465000082 -153.5036812499988 0
vertex 209.30146880642465 -153.18424778831908 0
endloop
endfacet
facet normal 0.903588435626521 -0.4284016094764543 0
outer loop
vertex 209.46393116171993 -152.84158076228036 1
vertex 209.30146880642454 -153.18424778831923 1
vertex 209.30146880642465 -153.18424778831908 0
endloop
endfacet
facet normal 0.903588435626521 -0.4284016094764543 0
outer loop
vertex 209.46393116171993 -152.84158076228036 1
vertex 209.30146880642465 -153.18424778831908 0
vertex 209.46393116171998 -152.8415807622803 0
endloop
endfacet
facet normal 0.9504148710146203 -0.3109848436085956 0
outer loop
vertex 209.5818656629826 -152.48115578945814 1
vertex 209.46393116171993 -152.84158076228036 1
vertex 209.46393116171998 -152.8415807622803 0
endloop
endfacet
facet normal 0.9504148710146203 -0.3109848436085956 0
outer loop
vertex 209.5818656629826 -152.48115578945814 1
vertex 209.46393116171998 -152.8415807622803 0
vertex 209.5818656629826 -152.48115578945826 0
endloop
endfacet
facet normal 0.9820542356477366 -0.1885987228120596 0
outer loop
vertex 209.65338778623314 -152.10873224897276 1
vertex 209.5818656629826 -152.48115578945814 1
vertex 209.5818656629826 -152.48115578945826 0
endloop
endfacet
facet normal 0.9820542356477366 -0.1885987228120596 0
outer loop
vertex 209.65338778623314 -152.10873224897276 1
vertex 209.5818656629826 -152.48115578945826 0
vertex 209.65338778623317 -152.10873224897267 0
endloop
endfacet
facet normal 0.9980001644618594 -0.0632113259954395 0
outer loop
vertex 209.6773593 -151.73026249999995 1
vertex 209.65338778623314 -152.10873224897276 1
vertex 209.65338778623317 -152.10873224897267 0
endloop
endfacet
facet normal 0.9980001644618594 -0.0632113259954395 0
outer loop
vertex 209.6773593 -151.73026249999995 1
vertex 209.65338778623317 -152.10873224897267 0
vertex 209.6773593 -151.73026249999998 0
endloop
endfacet
facet normal 1 -5.358373300623498e-9 0
outer loop
vertex 209.67735965 -86.41191220000016 1
vertex 209.6773593 -151.73026249999995 1
vertex 209.6773593 -151.73026249999998 0
endloop
endfacet
facet normal 1 -5.358373300623498e-9 0
outer loop
vertex 209.67735965 -86.41191220000016 1
vertex 209.6773593 -151.73026249999998 0
vertex 209.67735965 -86.41191220000023 0
endloop
endfacet
facet normal 0.9961946980917409 0.08715574274771135 0
outer loop
vertex 209.6317829090366 -85.89096766699899 1
vertex 209.67735965 -86.41191220000016 1
vertex 209.67735965 -86.41191220000023 0
endloop
endfacet
facet normal 0.9961946980917409 0.08715574274771135 0
outer loop
vertex 209.6317829090366 -85.89096766699899 1
vertex 209.67735965 -86.41191220000023 0
vertex 209.6317829090366 -85.890967666999 0
endloop
endfacet
facet normal 0.9659258262890708 0.25881904510251214 0
outer loop
vertex 209.49643751235777 -85.38585177002307 1
vertex 209.6317829090366 -85.89096766699899 1
vertex 209.6317829090366 -85.890967666999 0
endloop
endfacet
facet normal 0.9659258262890708 0.25881904510251214 0
outer loop
vertex 209.49643751235777 -85.38585177002307 1
vertex 209.6317829090366 -85.890967666999 0
vertex 209.4964375123578 -85.38585177002317 0
endloop
endfacet
facet normal 0.9063077870366524 0.4226182617406946 0
outer loop
vertex 209.2754358613534 -84.91191220000013 1
vertex 209.49643751235777 -85.38585177002307 1
vertex 209.4964375123578 -85.38585177002317 0
endloop
endfacet
facet normal 0.9063077870366524 0.4226182617406946 0
outer loop
vertex 209.2754358613534 -84.91191220000013 1
vertex 209.4964375123578 -85.38585177002317 0
vertex 209.27543586135337 -84.91191220000012 0
endloop
endfacet
facet normal 0.8191520442890181 0.5735764363510084 0
outer loop
vertex 208.9754929793569 -84.48354937094031 1
vertex 209.2754358613534 -84.91191220000013 1
vertex 209.27543586135337 -84.91191220000012 0
endloop
endfacet
facet normal 0.8191520442890181 0.5735764363510084 0
outer loop
vertex 208.9754929793569 -84.48354937094031 1
vertex 209.27543586135337 -84.91191220000012 0
vertex 208.97549297935683 -84.48354937094025 0
endloop
endfacet
facet normal 0.7071067811865048 0.7071067811865901 0
outer loop
vertex 208.60572247905964 -84.11377887064309 1
vertex 208.9754929793569 -84.48354937094031 1
vertex 208.97549297935683 -84.48354937094025 0
endloop
endfacet
facet normal 0.7071067811865048 0.7071067811865901 0
outer loop
vertex 208.60572247905964 -84.11377887064309 1
vertex 208.97549297935683 -84.48354937094025 0
vertex 208.60572247905964 -84.11377887064309 0
endloop
endfacet
facet normal 0.573576436351047 0.8191520442889911 0
outer loop
vertex 208.17735965 -83.81383598864667 1
vertex 208.60572247905964 -84.11377887064309 1
vertex 208.60572247905964 -84.11377887064309 0
endloop
endfacet
facet normal 0.573576436351047 0.8191520442889911 0
outer loop
vertex 208.17735965 -83.81383598864667 1
vertex 208.60572247905964 -84.11377887064309 0
vertex 208.17735965000006 -83.81383598864673 0
endloop
endfacet
facet normal 0.4226182617407234 0.9063077870366388 0
outer loop
vertex 207.70342007997706 -83.59283433764229 1
vertex 208.17735965 -83.81383598864667 1
vertex 208.17735965000006 -83.81383598864673 0
endloop
endfacet
facet normal 0.4226182617407234 0.9063077870366388 0
outer loop
vertex 207.70342007997706 -83.59283433764229 1
vertex 208.17735965000006 -83.81383598864673 0
vertex 207.70342007997695 -83.59283433764226 0
endloop
endfacet
facet normal 0.25881904510254106 0.965925826289063 0
outer loop
vertex 207.1983041830009 -83.45748894096339 1
vertex 207.70342007997706 -83.59283433764229 1
vertex 207.70342007997695 -83.59283433764226 0
endloop
endfacet
facet normal 0.25881904510254106 0.965925826289063 0
outer loop
vertex 207.1983041830009 -83.45748894096339 1
vertex 207.70342007997695 -83.59283433764226 0
vertex 207.1983041830008 -83.45748894096337 0
endloop
endfacet
facet normal 0.08715150956568607 0.9961950684381158 0
outer loop
vertex 206.6773592999999 -83.4119144 1
vertex 207.1983041830009 -83.45748894096339 1
vertex 207.1983041830008 -83.45748894096337 0
endloop
endfacet
facet normal 0.08715150956568607 0.9961950684381158 0
outer loop
vertex 206.6773592999999 -83.4119144 1
vertex 207.1983041830008 -83.45748894096337 0
vertex 206.67735929999995 -83.4119144 0
endloop
endfacet
facet normal 4.789037575392285e-7 0.9999999999998854 0
outer loop
vertex 187.8844398034767 -83.4119054 1
vertex 206.6773592999999 -83.4119144 1
vertex 206.67735929999995 -83.4119144 0
endloop
endfacet
facet normal 4.789037575392285e-7 0.9999999999998854 0
outer loop
vertex 187.8844398034767 -83.4119054 1
vertex 206.67735929999995 -83.4119144 0
vertex 187.88443979999983 -83.4119054 0
endloop
endfacet
facet normal 0.034420727743324164 0.9994074311819079 0
outer loop
vertex 187.67784959991366 -83.40479019872197 1
vertex 187.8844398034767 -83.4119054 1
vertex 187.88443979999983 -83.4119054 0
endloop
endfacet
facet normal 0.034420727743324164 0.9994074311819079 0
outer loop
vertex 187.67784959991366 -83.40479019872197 1
vertex 187.88443979999983 -83.4119054 0
vertex 187.67784959991346 -83.40479019872197 0
endloop
endfacet
facet normal 0.10318345265595497 0.9946623422538909 0
outer loop
vertex 187.47223959999982 -83.38346079999998 1
vertex 187.67784959991366 -83.40479019872197 1
vertex 187.67784959991346 -83.40479019872197 0
endloop
endfacet
facet normal 0.10318345265595497 0.9946623422538909 0
outer loop
vertex 187.47223959999982 -83.38346079999998 1
vertex 187.67784959991346 -83.40479019872197 0
vertex 187.47223960000005 -83.38346080000001 0
endloop
endfacet
facet normal 0.13740140022105155 0.9905154492572513 0
outer loop
vertex 149.97344239999967 -78.18173754999998 1
vertex 187.47223959999982 -83.38346079999998 1
vertex 187.47223960000005 -83.38346080000001 0
endloop
endfacet
facet normal 0.13740140022105155 0.9905154492572513 0
outer loop
vertex 149.97344239999967 -78.18173754999998 1
vertex 187.47223960000005 -83.38346080000001 0
vertex 149.9734423999998 -78.18173755 0
endloop
endfacet
facet normal 0.09016161824555981 0.9959271472328395 0
outer loop
vertex 149.6894115198781 -78.1560241392805 1
vertex 149.97344239999967 -78.18173754999998 1
vertex 149.9734423999998 -78.18173755 0
endloop
endfacet
facet normal 0.09016161824555981 0.9959271472328395 0
outer loop
vertex 149.6894115198781 -78.1560241392805 1
vertex 149.9734423999998 -78.18173755 0
vertex 149.68941151987806 -78.1560241392805 0
endloop
endfacet
facet normal -0.0048071834453509155 0.9999884454269073 0
outer loop
vertex 149.40422479999975 -78.1573951 1
vertex 149.6894115198781 -78.1560241392805 1
vertex 149.68941151987806 -78.1560241392805 0
endloop
endfacet
facet normal -0.0048071834453509155 0.9999884454269073 0
outer loop
vertex 149.40422479999975 -78.1573951 1
vertex 149.68941151987806 -78.1560241392805 0
vertex 149.40422479999995 -78.1573951 0
endloop
endfacet
facet normal -0.05233575066412754 0.9986295455284819 0
outer loop
vertex 128.40925995000018 -79.25769025000001 1
vertex 149.40422479999975 -78.1573951 1
vertex 149.40422479999995 -78.1573951 0
endloop
endfacet
facet normal -0.05233575066412754 0.9986295455284819 0
outer loop
vertex 128.40925995000018 -79.25769025000001 1
vertex 149.40422479999995 -78.1573951 0
vertex 128.40925995000032 -79.25769024999998 0
endloop
endfacet
facet normal -0.10867099949619778 0.9940777705333208 0
outer loop
vertex 128.0723142254548 -79.29452462025523 1
vertex 128.40925995000018 -79.25769025000001 1
vertex 128.40925995000032 -79.25769024999998 0
endloop
endfacet
facet normal -0.10867099949619778 0.9940777705333208 0
outer loop
vertex 128.0723142254548 -79.29452462025523 1
vertex 128.40925995000032 -79.25769024999998 0
vertex 128.072314225455 -79.2945246202552 0
endloop
endfacet
facet normal -0.22011326028379571 0.9754743218799959 0
outer loop
vertex 127.74167419717618 -79.36913268832254 1
vertex 128.0723142254548 -79.29452462025523 1
vertex 128.072314225455 -79.2945246202552 0
endloop
endfacet
facet normal -0.22011326028379571 0.9754743218799959 0
outer loop
vertex 127.74167419717618 -79.36913268832254 1
vertex 128.072314225455 -79.2945246202552 0
vertex 127.7416741971761 -79.36913268832258 0
endloop
endfacet
facet normal -0.32874567277701705 0.9444184891404798 0
outer loop
vertex 127.42156063913265 -79.48056204746166 1
vertex 127.74167419717618 -79.36913268832254 1
vertex 127.7416741971761 -79.36913268832258 0
endloop
endfacet
facet normal -0.32874567277701705 0.9444184891404798 0
outer loop
vertex 127.42156063913265 -79.48056204746166 1
vertex 127.7416741971761 -79.36913268832258 0
vertex 127.42156063913255 -79.4805620474617 0
endloop
endfacet
facet normal -0.4331820352005576 0.9013064541982949 0
outer loop
vertex 127.1160599 -79.6273905 1
vertex 127.42156063913265 -79.48056204746166 1
vertex 127.42156063913255 -79.4805620474617 0
endloop
endfacet
facet normal -0.4331820352005576 0.9013064541982949 0
outer loop
vertex 127.1160599 -79.6273905 1
vertex 127.42156063913255 -79.4805620474617 0
vertex 127.11605989999966 -79.62739050000016 0
endloop
endfacet
facet normal 0 0 -1
outer loop
vertex 89.79771165000014 -100.2349799999999 1
vertex 120.26267003625517 -83.4119054 1
vertex 120.27555497649344 -83.40479019872197 1
endloop
endfacet
facet normal 0 0 -1
outer loop
vertex 89.79771165000014 -100.2349799999999 1
vertex 120.27555497649344 -83.40479019872197 1
vertex 120.3141804513201 -83.38346079999998 1
endloop
endfacet
facet normal 0 0 -1
outer loop
vertex 89.79771165000014 -100.2349799999999 1
vertex 120.3141804513201 -83.38346079999998 1
vertex 127.1160599 -79.6273905 1
endloop
endfacet
facet normal 0 0 -1
outer loop
vertex 89.79771165000014 -100.2349799999999 1
vertex 127.1160599 -79.6273905 1
vertex 127.11605989999966 -79.62739050000016 0
endloop
endfacet
facet normal 0 0 -1
outer loop
vertex 89.79771165000014 -100.2349799999999 1
vertex 127.11605989999966 -79.62739050000016 0
vertex 120.31418045132003 -83.38346080000001 0
endloop
endfacet
facet normal 0 0 -1
outer loop
vertex 89.79771165000014 -100.2349799999999 1
vertex 120.31418045132003 -83.38346080000001 0
vertex 120.27555497649342 -83.40479019872197 0
endloop
endfacet
facet normal 0 0 -1
outer loop
vertex 89.79771165000014 -100.2349799999999 1
vertex 120.27555497649342 -83.40479019872197 0
vertex 120.26267003625517 -83.4119054 0
endloop
endfacet
facet normal 0 0 -1
outer loop
vertex 89.79771165000014 -100.2349799999999 1
vertex 120.26267003625517 -83.4119054 0
vertex 89.79771165000004 -100.23497999999994 0
endloop
endfacet
facet normal -0.5497671020268903 0.8353179834823112 0
outer loop
vertex 89.40942985738319 -100.49052885698359 1
vertex 89.79771165000014 -100.2349799999999 1
vertex 89.79771165000004 -100.23497999999994 0
endloop
endfacet
facet normal -0.5497671020268903 0.8353179834823112 0
outer loop
vertex 89.40942985738319 -100.49052885698359 1
vertex 89.79771165000004 -100.23497999999994 0
vertex 89.40942985738316 -100.49052885698359 0
endloop
endfacet
facet normal -0.6722060965454857 0.7403640751461954 0
outer loop
vertex 89.06528559619012 -100.8029911687448 1
vertex 89.40942985738319 -100.49052885698359 1
vertex 89.40942985738316 -100.49052885698359 0
endloop
endfacet
facet normal -0.6722060965454857 0.7403640751461954 0
outer loop
vertex 89.06528559619012 -100.8029911687448 1
vertex 89.40942985738316 -100.49052885698359 0
vertex 89.06528559619026 -100.80299116874464 0
endloop
endfacet
facet normal -0.7785070681880408 0.627635837712651 0
outer loop
vertex 88.77354092769693 -101.1648654800586 1
vertex 89.06528559619012 -100.8029911687448 1
vertex 89.06528559619026 -100.80299116874464 0
endloop
endfacet
facet normal -0.7785070681880408 0.627635837712651 0
outer loop
vertex 88.77354092769693 -101.1648654800586 1
vertex 89.06528559619026 -100.80299116874464 0
vertex 88.77354092769687 -101.1648654800587 0
endloop
endfacet
facet normal -0.8661179908409798 0.499839600213493 0
outer loop
vertex 88.54119992722815 -101.56746407454781 1
vertex 88.77354092769693 -101.1648654800586 1
vertex 88.77354092769687 -101.1648654800587 0
endloop
endfacet
facet normal -0.8661179908409798 0.499839600213493 0
outer loop
vertex 88.54119992722815 -101.56746407454781 1
vertex 88.77354092769687 -101.1648654800587 0
vertex 88.54119992722816 -101.5674640745478 0
endloop
endfacet
facet normal -0.9329355407152582 0.36004343747710343 0
outer loop
vertex 88.37384053345488 -102.00112154548444 1
vertex 88.54119992722815 -101.56746407454781 1
vertex 88.54119992722816 -101.5674640745478 0
endloop
endfacet
facet normal -0.9329355407152582 0.36004343747710343 0
outer loop
vertex 88.37384053345488 -102.00112154548444 1
vertex 88.54119992722816 -101.5674640745478 0
vertex 88.3738405334549 -102.00112154548444 0
endloop
endfacet
facet normal -0.977355592001995 0.21160351316183318 0
outer loop
vertex 88.27548063574035 -102.45542683854693 1
vertex 88.37384053345488 -102.00112154548444 1
vertex 88.3738405334549 -102.00112154548444 0
endloop
endfacet
facet normal -0.977355592001995 0.21160351316183318 0
outer loop
vertex 88.27548063574035 -102.45542683854693 1
vertex 88.3738405334549 -102.00112154548444 0
vertex 88.27548063574034 -102.45542683854708 0
endloop
endfacet
facet normal -0.9983117280061817 0.058083506482574876 0
outer loop
vertex 88.24848161445206 -102.91947319574953 1
vertex 88.27548063574035 -102.45542683854693 1
vertex 88.27548063574034 -102.45542683854708 0
endloop
endfacet
facet normal -0.9983117280061817 0.058083506482574876 0
outer loop
vertex 88.24848161445206 -102.91947319574953 1
vertex 88.27548063574034 -102.45542683854708 0
vertex 88.24848161445206 -102.9194731957494 0
endloop
endfacet
facet normal -0.9953005010917584 -0.09683445939589318 0
outer loop
vertex 88.29349329999998 -103.38211999999996 1
vertex 88.24848161445206 -102.91947319574953 1
vertex 88.24848161445206 -102.9194731957494 0
endloop
endfacet
facet normal -0.9953005010917584 -0.09683445939589318 0
outer loop
vertex 88.29349329999998 -103.38211999999996 1
vertex 88.24848161445206 -102.9194731957494 0
vertex 88.2934933 -103.38211999999997 0
endloop
endfacet
facet normal -0.9848077525267622 -0.17364818042003086 0
outer loop
vertex 97.32347655000001 -154.59369900000002 1
vertex 88.29349329999998 -103.38211999999996 1
vertex 88.2934933 -103.38211999999997 0
endloop
endfacet
facet normal -0.9848077525267622 -0.17364818042003086 0
outer loop
vertex 97.32347655000001 -154.59369900000002 1
vertex 88.2934933 -103.38211999999997 0
vertex 97.32347655 -154.59369899999996 0
endloop
endfacet
facet normal -0.9681875290670587 -0.25022571522332265 0
outer loop
vertex 97.4410353667524 -155.04856424120823 1
vertex 97.32347655000001 -154.59369900000002 1
vertex 97.32347655 -154.59369899999996 0
endloop
endfacet
facet normal -0.9681875290670587 -0.25022571522332265 0
outer loop
vertex 97.4410353667524 -155.04856424120823 1
vertex 97.32347655 -154.59369899999996 0
vertex 97.44103536675242 -155.04856424120825 0
endloop
endfacet
facet normal -0.9172493074336745 -0.3983135800000353 0
outer loop
vertex 97.6281675051077 -155.47949814083816 1
vertex 97.4410353667524 -155.04856424120823 1
vertex 97.44103536675242 -155.04856424120825 0
endloop
endfacet
facet normal -0.9172493074336745 -0.3983135800000353 0
outer loop
vertex 97.6281675051077 -155.47949814083816 1
vertex 97.44103536675242 -155.04856424120825 0
vertex 97.62816750510767 -155.4794981408381 0
endloop
endfacet
facet normal -0.843815805092192 -0.5366329165049569 0
outer loop
vertex 97.88028360212199 -155.87593216647412 1
vertex 97.6281675051077 -155.47949814083816 1
vertex 97.62816750510767 -155.4794981408381 0
endloop
endfacet
facet normal -0.843815805092192 -0.5366329165049569 0
outer loop
vertex 97.88028360212199 -155.87593216647412 1
vertex 97.62816750510767 -155.4794981408381 0
vertex 97.88028360212196 -155.87593216647406 0
endloop
endfacet
facet normal 0 0 1
outer loop
vertex 98.19120058158322 -156.22814388538535 1
vertex 98.16567839950429 -156.19923195 1
vertex 97.88028360212199 -155.87593216647412 1
endloop
endfacet
facet normal 0 0 1
outer loop
vertex 98.19120058158322 -156.22814388538535 1
vertex 97.88028360212199 -155.87593216647412 1
vertex 97.88028360212196 -155.87593216647406 0
endloop
endfacet
facet normal 0 0 1
outer loop
vertex 98.19120058158322 -156.22814388538535 1
vertex 97.88028360212196 -155.87593216647406 0
vertex 98.16567839950429 -156.19923194999998 0
endloop
endfacet
facet normal 0 0 1
outer loop
vertex 98.19120058158322 -156.22814388538535 1
vertex 98.16567839950429 -156.19923194999998 0
vertex 98.19120058158325 -156.22814388538535 0
endloop
endfacet
facet normal -0.6371742250380467 -0.7707197979468055 0
outer loop
vertex 98.55329329221192 -156.52749540444765 1
vertex 98.19120058158322 -156.22814388538535 1
vertex 98.19120058158325 -156.22814388538535 0
endloop
endfacet
facet normal -0.6371742250380467 -0.7707197979468055 0
outer loop
vertex 98.55329329221192 -156.52749540444765 1
vertex 98.19120058158325 -156.22814388538535 0
vertex 98.55329329221198 -156.52749540444768 0
endloop
endfacet
facet normal -0.5090339738275412 -0.8607464281014136 0
outer loop
vertex 98.95768151234827 -156.7666452120386 1
vertex 98.55329329221192 -156.52749540444765 1
vertex 98.55329329221198 -156.52749540444768 0
endloop
endfacet
facet normal -0.5090339738275412 -0.8607464281014136 0
outer loop
vertex 98.95768151234827 -156.7666452120386 1
vertex 98.55329329221198 -156.52749540444768 0
vertex 98.95768151234822 -156.76664521203858 0
endloop
endfacet
facet normal -0.36840980789679584 -0.929663494736373 0
outer loop
vertex 99.39444773488279 -156.93972822653882 1
vertex 98.95768151234827 -156.7666452120386 1
vertex 98.95768151234822 -156.76664521203858 0
endloop
endfacet
facet normal -0.36840980789679584 -0.929663494736373 0
outer loop
vertex 99.39444773488279 -156.93972822653882 1
vertex 98.95768151234822 -156.76664521203858 0
vertex 99.39444773488292 -156.93972822653885 0
endloop
endfacet
facet normal -0.21875049527565743 -0.9757808262190104 0
outer loop
vertex 99.85288039132507 -157.04249963580688 1
vertex 99.39444773488279 -156.93972822653882 1
vertex 99.39444773488292 -156.93972822653885 0
endloop
endfacet
facet normal -0.21875049527565743 -0.9757808262190104 0
outer loop
vertex 99.85288039132507 -157.04249963580688 1
vertex 99.39444773488292 -156.93972822653885 0
vertex 99.85288039132512 -157.0424996358069 0
endloop
endfacet
facet normal -0.0637247355521709 -0.9979675135387954 0
outer loop
vertex 100.32173310000032 -157.072438 1
vertex 99.85288039132507 -157.04249963580688 1
vertex 99.85288039132512 -157.0424996358069 0
endloop
endfacet
facet normal -0.0637247355521709 -0.9979675135387954 0
outer loop
vertex 100.32173310000032 -157.072438 1
vertex 99.85288039132512 -157.0424996358069 0
vertex 100.32173310000015 -157.072438 0
endloop
endfacet
facet normal 0.014610901434394918 -0.9998932550823985 0
outer loop
vertex 160.0793629499991 -156.19923195 1
vertex 100.32173310000032 -157.072438 1
vertex 100.32173310000015 -157.072438 0
endloop
endfacet
facet normal 0.014610901434394918 -0.9998932550823985 0
outer loop
vertex 160.0793629499991 -156.19923195 1
vertex 100.32173310000015 -157.072438 0
vertex 160.07936294999945 -156.19923194999998 0
endloop
endfacet
facet normal -0.03680069594545898 -0.9993226249704996 0
outer loop
vertex 160.38752816262289 -156.2105803314009 1
vertex 160.0793629499991 -156.19923195 1
vertex 160.07936294999945 -156.19923194999998 0
endloop
endfacet
facet normal -0.03680069594545898 -0.9993226249704996 0
outer loop
vertex 160.38752816262289 -156.2105803314009 1
vertex 160.07936294999945 -156.19923194999998 0
vertex 160.38752816262314 -156.2105803314009 0
endloop
endfacet
facet normal -0.13919225393513573 -0.9902653767775872 0
outer loop
vertex 160.6929003545084 -156.25350361709224 1
vertex 160.38752816262289 -156.2105803314009 1
vertex 160.38752816262314 -156.2105803314009 0
endloop
endfacet
facet normal -0.13919225393513573 -0.9902653767775872 0
outer loop
vertex 160.6929003545084 -156.25350361709224 1
vertex 160.38752816262314 -156.2105803314009 0
vertex 160.69290035450825 -156.2535036170922 0
endloop
endfacet
facet normal -0.24011309753720422 -0.9707449203529674 0
outer loop
vertex 160.99225294326013 -156.3275482768519 1
vertex 160.6929003545084 -156.25350361709224 1
vertex 160.69290035450825 -156.2535036170922 0
endloop
endfacet
facet normal -0.24011309753720422 -0.9707449203529674 0
outer loop
vertex 160.99225294326013 -156.3275482768519 1
vertex 160.69290035450825 -156.2535036170922 0
vertex 160.9922529432601 -156.3275482768519 0
endloop
endfacet
facet normal -0.33849944247467073 -0.9409665920979007 0
outer loop
vertex 161.2824258999996 -156.43193389999985 1
vertex 160.99225294326013 -156.3275482768519 1
vertex 160.9922529432601 -156.3275482768519 0
endloop
endfacet
facet normal -0.33849944247467073 -0.9409665920979007 0
outer loop
vertex 161.2824258999996 -156.43193389999985 1
vertex 160.9922529432601 -156.3275482768519 0
vertex 161.2824258999997 -156.43193389999988 0
endloop
endfacet
facet normal -0.3864115950982512 -0.922326449351652 0
outer loop
vertex 194.04140074999998 -170.15641045 1
vertex 161.2824258999996 -156.43193389999985 1
vertex 161.2824258999997 -156.43193389999988 0
endloop
endfacet
facet normal -0.3864115950982512 -0.922326449351652 0
outer loop
vertex 194.04140074999998 -170.15641045 1
vertex 161.2824258999997 -156.43193389999988 0
vertex 194.04140074999992 -170.15641044999998 0
endloop
endfacet
facet normal -0.30819570356464904 -0.9513229779124917 0
outer loop
vertex 194.51712645199905 -170.31052910458473 1
vertex 194.04140074999998 -170.15641045 1
vertex 194.04140074999992 -170.15641044999998 0
endloop
endfacet
facet normal -0.30819570356464904 -0.9513229779124917 0
outer loop
vertex 194.51712645199905 -170.31052910458473 1
vertex 194.04140074999992 -170.15641044999998 0
vertex 194.51712645199908 -170.31052910458473 0
endloop
endfacet
facet normal -0.14589053478564992 -0.9893007388352428 0
outer loop
vertex 195.01184359790872 -170.3834842193958 1
vertex 194.51712645199905 -170.31052910458473 1
vertex 194.51712645199908 -170.31052910458473 0
endloop
endfacet
facet normal -0.14589053478564992 -0.9893007388352428 0
outer loop
vertex 195.01184359790872 -170.3834842193958 1
vertex 194.51712645199908 -170.31052910458473 0
vertex 195.01184359790875 -170.3834842193958 0
endloop
endfacet
facet normal 0.020468243079960757 -0.9997905035682324 0
outer loop
vertex 195.51180633422945 -170.3732487162765 1
vertex 195.01184359790872 -170.3834842193958 1
vertex 195.01184359790875 -170.3834842193958 0
endloop
endfacet
facet normal 0.020468243079960757 -0.9997905035682324 0
outer loop
vertex 195.51180633422945 -170.3732487162765 1
vertex 195.01184359790875 -170.3834842193958 0
vertex 195.51180633422953 -170.3732487162765 0
endloop
endfacet
facet normal 0.18625830511854244 -0.9825008110807685 0
outer loop
vertex 196.0031230572757 -170.28010699152787 1
vertex 195.51180633422945 -170.3732487162765 1
vertex 195.51180633422953 -170.3732487162765 0
endloop
endfacet
facet normal 0.18625830511854244 -0.9825008110807685 0
outer loop
vertex 196.0031230572757 -170.28010699152787 1
vertex 195.51180633422953 -170.3732487162765 0
vertex 196.00312305727556 -170.2801069915279 0
endloop
endfacet
facet normal 0.3468731283441009 -0.9379120602875181 0
outer loop
vertex 196.47214239524303 -170.10664701387844 1
vertex 196.0031230572757 -170.28010699152787 1
vertex 196.00312305727556 -170.2801069915279 0
endloop
endfacet
facet normal 0.3468731283441009 -0.9379120602875181 0
outer loop
vertex 196.47214239524303 -170.10664701387844 1
vertex 196.00312305727556 -170.2801069915279 0
vertex 196.47214239524308 -170.10664701387842 0
endloop
endfacet
facet normal 0.4978499852203159 -0.8672631620310707 0
outer loop
vertex 196.90583251537538 -169.8576884170525 1
vertex 196.47214239524303 -170.10664701387844 1
vertex 196.47214239524308 -170.10664701387842 0
endloop
endfacet
facet normal 0.4978499852203159 -0.8672631620310707 0
outer loop
vertex 196.90583251537538 -169.8576884170525 1
vertex 196.47214239524308 -170.10664701387842 0
vertex 196.9058325153753 -169.85768841705254 0
endloop
endfacet
facet normal 0.634993941786686 -0.772517115599523 0
outer loop
vertex 197.29214321705857 -169.54014858490802 1
vertex 196.90583251537538 -169.8576884170525 1
vertex 196.9058325153753 -169.85768841705254 0
endloop
endfacet
facet normal 0.634993941786686 -0.772517115599523 0
outer loop
vertex 197.29214321705857 -169.54014858490802 1
vertex 196.9058325153753 -169.85768841705254 0
vertex 197.29214321705865 -169.54014858490797 0
endloop
endfacet
facet normal 0.7544932847832593 -0.6563077656229337 0
outer loop
vertex 197.62034150000002 -169.16285089999997 1
vertex 197.29214321705857 -169.54014858490802 1
vertex 197.29214321705865 -169.54014858490797 0
endloop
endfacet
facet normal 0.7544932847832593 -0.6563077656229337 0
outer loop
vertex 197.62034150000002 -169.16285089999997 1
vertex 197.29214321705865 -169.54014858490797 0
vertex 197.62034149999977 -169.16285090000025 0
endloop
endfacet
facet normal 0 0 1
outer loop
vertex 209.09707465000014 -153.50368124999986 1
vertex 207.1214835575185 -156.19923195 1
vertex 207.11316623623435 -156.2105803314009 1
endloop
endfacet
facet normal 0 0 1
outer loop
vertex 209.09707465000014 -153.50368124999986 1
vertex 207.11316623623435 -156.2105803314009 1
vertex 207.08170741007618 -156.25350361709224 1
endloop
endfacet
facet normal 0 0 1
outer loop
vertex 209.09707465000014 -153.50368124999986 1
vertex 207.08170741007618 -156.25350361709224 1
vertex 207.0274394750427 -156.3275482768519 1
endloop
endfacet
facet normal 0 0 1
outer loop
vertex 209.09707465000014 -153.50368124999986 1
vertex 207.0274394750427 -156.3275482768519 1
vertex 206.95093440048623 -156.43193389999985 1
endloop
endfacet
facet normal 0 0 1
outer loop
vertex 209.09707465000014 -153.50368124999986 1
vertex 206.95093440048623 -156.43193389999985 1
vertex 197.62034150000002 -169.16285089999997 1
endloop
endfacet
facet normal 0 0 1
outer loop
vertex 209.09707465000014 -153.50368124999986 1
vertex 197.62034150000002 -169.16285089999997 1
vertex 197.62034149999977 -169.16285090000025 0
endloop
endfacet
facet normal 0 0 1
outer loop
vertex 209.09707465000014 -153.50368124999986 1
vertex 197.62034149999977 -169.16285090000025 0
vertex 206.95093440048623 -156.43193389999988 0
endloop
endfacet
facet normal 0 0 1
outer loop
vertex 209.09707465000014 -153.50368124999986 1
vertex 206.95093440048623 -156.43193389999988 0
vertex 207.0274394750427 -156.3275482768519 0
endloop
endfacet
facet normal 0 0 1
outer loop
vertex 209.09707465000014 -153.50368124999986 1
vertex 207.0274394750427 -156.3275482768519 0
vertex 207.08170741007618 -156.2535036170922 0
endloop
endfacet
facet normal 0 0 1
outer loop
vertex 209.09707465000014 -153.50368124999986 1
vertex 207.08170741007618 -156.2535036170922 0
vertex 207.11316623623432 -156.2105803314009 0
endloop
endfacet
facet normal 0 0 1
outer loop
vertex 209.09707465000014 -153.50368124999986 1
vertex 207.11316623623432 -156.2105803314009 0
vertex 207.12148355751853 -156.19923194999998 0
endloop
endfacet
facet normal 0 0 1
outer loop
vertex 209.09707465000014 -153.50368124999986 1
vertex 207.12148355751853 -156.19923194999998 0
vertex 209.09707465000082 -153.5036812499988 0
endloop
endfacet
endsolid csg.js
