solid csg.js
facet normal 0 0 -1
outer loop
vertex 148.07756285000002 -80.28256875000002 0
vertex 185.47554279999977 -85.38438269999999 0
vertex 122.16685388207628 -85.38438269999999 0
endloop
endfacet
facet normal 0 0 -1
outer loop
vertex 148.07756285000002 -80.28256875000002 0
vertex 122.16685388207628 -85.38438269999999 0
vertex 129.22108120000024 -81.51597019999987 0
endloop
endfacet
facet normal 0 0 -1
outer loop
vertex 148.07756285000002 -80.28256875000002 0
vertex 129.22108120000024 -81.51597019999987 0
vertex 129.52497244572766 -81.3708780452683 0
endloop
endfacet
facet normal 0 0 -1
outer loop
vertex 148.07756285000002 -80.28256875000002 0
vertex 129.52497244572766 -81.3708780452683 0
vertex 129.84321139051048 -81.2607536464498 0
endloop
endfacet
facet normal 0 0 -1
outer loop
vertex 148.07756285000002 -80.28256875000002 0
vertex 129.84321139051048 -81.2607536464498 0
vertex 130.17178750309583 -81.18698951268456 0
endloop
endfacet
facet normal 0 0 -1
outer loop
vertex 148.07756285000002 -80.28256875000002 0
vertex 130.17178750309583 -81.18698951268456 0
vertex 130.50656059999983 -81.1505151 0
endloop
endfacet
facet normal 0 0 -1
outer loop
vertex 148.07756285000002 -80.28256875000002 0
vertex 130.50656059999983 -81.1505151 0
vertex 147.51504569999966 -80.25914750000001 0
endloop
endfacet
facet normal 0 0 -1
outer loop
vertex 148.07756285000002 -80.28256875000002 0
vertex 147.51504569999966 -80.25914750000001 0
vertex 147.79685346602633 -80.25763362074476 0
endloop
endfacet
facet normal 0 0 -1
outer loop
vertex 185.47554279999977 -85.38438269999999 0
vertex 185.67782982123987 -85.40502126595558 0
vertex 122.129218512072 -85.40502126595558 0
endloop
endfacet
facet normal 0 0 -1
outer loop
vertex 185.47554279999977 -85.38438269999999 0
vertex 122.129218512072 -85.40502126595558 0
vertex 122.16685388207628 -85.38438269999999 0
endloop
endfacet
facet normal 0 0 -1
outer loop
vertex 185.67782982123987 -85.40502126595558 0
vertex 185.88104639999992 -85.41190634999998 0
vertex 122.1166632460676 -85.41190634999998 0
endloop
endfacet
facet normal 0 0 -1
outer loop
vertex 185.67782982123987 -85.40502126595558 0
vertex 122.1166632460676 -85.41190634999998 0
vertex 122.129218512072 -85.40502126595558 0
endloop
endfacet
facet normal 0 0 -1
outer loop
vertex 185.88104639999992 -85.41190634999998 0
vertex 204.67735929999998 -85.41191439999999 0
vertex 205.19830418300072 -85.45748894096336 0
endloop
endfacet
facet normal 0 0 -1
outer loop
vertex 185.88104639999992 -85.41190634999998 0
vertex 205.19830418300072 -85.45748894096336 0
vertex 205.70342007997704 -85.59283433764229 0
endloop
endfacet
facet normal 0 0 -1
outer loop
vertex 185.88104639999992 -85.41190634999998 0
vertex 205.70342007997704 -85.59283433764229 0
vertex 206.17735965000003 -85.8138359886467 0
endloop
endfacet
facet normal 0 0 -1
outer loop
vertex 185.88104639999992 -85.41190634999998 0
vertex 206.17735965000003 -85.8138359886467 0
vertex 206.6057224790596 -86.11377887064306 0
endloop
endfacet
facet normal 0 0 -1
outer loop
vertex 185.88104639999992 -85.41190634999998 0
vertex 206.6057224790596 -86.11377887064306 0
vertex 206.97549297935697 -86.48354937094041 0
endloop
endfacet
facet normal 0 0 -1
outer loop
vertex 185.88104639999992 -85.41190634999998 0
vertex 206.97549297935697 -86.48354937094041 0
vertex 207.2754358613533 -86.91191219999995 0
endloop
endfacet
facet normal 0 0 -1
outer loop
vertex 185.88104639999992 -85.41190634999998 0
vertex 207.2754358613533 -86.91191219999995 0
vertex 207.49643751235772 -87.38585177002301 0
endloop
endfacet
facet normal 0 0 -1
outer loop
vertex 185.88104639999992 -85.41190634999998 0
vertex 207.49643751235772 -87.38585177002301 0
vertex 207.63178290903656 -87.89096766699902 0
endloop
endfacet
facet normal 0 0 -1
outer loop
vertex 185.88104639999992 -85.41190634999998 0
vertex 207.63178290903656 -87.89096766699902 0
vertex 207.67735965 -88.41191220000039 0
endloop
endfacet
facet normal 0 0 -1
outer loop
vertex 185.88104639999992 -85.41190634999998 0
vertex 207.67735965 -88.41191220000039 0
vertex 207.67735930000003 -149.77578279999986 0
endloop
endfacet
facet normal 0 0 -1
outer loop
vertex 185.88104639999992 -85.41190634999998 0
vertex 207.67735930000003 -149.77578279999986 0
vertex 207.6554265170328 -150.1378603241462 0
endloop
endfacet
facet normal 0 0 -1
outer loop
vertex 185.88104639999992 -85.41190634999998 0
vertex 207.6554265170328 -150.1378603241462 0
vertex 207.58995831477753 -150.49464584069636 0
endloop
endfacet
facet normal 0 0 -1
outer loop
vertex 185.88104639999992 -85.41190634999998 0
vertex 207.58995831477753 -150.49464584069636 0
vertex 207.48190720282926 -150.8409216664964 0
endloop
endfacet
facet normal 0 0 -1
outer loop
vertex 185.88104639999992 -85.41190634999998 0
vertex 207.48190720282926 -150.8409216664964 0
vertex 207.33285291234034 -151.17162517239387 0
endloop
endfacet
facet normal 0 0 -1
outer loop
vertex 185.88104639999992 -85.41190634999998 0
vertex 207.33285291234034 -151.17162517239387 0
vertex 207.14497464999994 -151.48192139999998 0
endloop
endfacet
facet normal 0 0 -1
outer loop
vertex 185.88104639999992 -85.41190634999998 0
vertex 207.14497464999994 -151.48192139999998 0
vertex 204.86738341274312 -154.77603835000002 0
endloop
endfacet
facet normal 0 0 -1
outer loop
vertex 185.88104639999992 -85.41190634999998 0
vertex 204.86738341274312 -154.77603835000002 0
vertex 162.5505772500004 -154.77603835000002 0
endloop
endfacet
facet normal 0 0 -1
outer loop
vertex 185.88104639999992 -85.41190634999998 0
vertex 162.5505772500004 -154.77603835000002 0
vertex 101.69900062865487 -154.77603835000002 0
endloop
endfacet
facet normal 0 0 -1
outer loop
vertex 185.88104639999992 -85.41190634999998 0
vertex 101.69900062865487 -154.77603835000002 0
vertex 101.44376908446313 -154.75626611090908 0
endloop
endfacet
facet normal 0 0 -1
outer loop
vertex 185.88104639999992 -85.41190634999998 0
vertex 101.44376908446313 -154.75626611090908 0
vertex 100.99123749683905 -154.64911969384536 0
endloop
endfacet
facet normal 0 0 -1
outer loop
vertex 185.88104639999992 -85.41190634999998 0
vertex 100.99123749683905 -154.64911969384536 0
vertex 100.56070222944959 -154.47332271997658 0
endloop
endfacet
facet normal 0 0 -1
outer loop
vertex 185.88104639999992 -85.41190634999998 0
vertex 100.56070222944959 -154.47332271997658 0
vertex 100.16250881479245 -154.23309949667984 0
endloop
endfacet
facet normal 0 0 -1
outer loop
vertex 185.88104639999992 -85.41190634999998 0
vertex 100.16250881479245 -154.23309949667984 0
vertex 99.80622562791946 -153.93422245969128 0
endloop
endfacet
facet normal 0 0 -1
outer loop
vertex 185.88104639999992 -85.41190634999998 0
vertex 99.80622562791946 -153.93422245969128 0
vertex 99.500413963496 -153.58387346455905 0
endloop
endfacet
facet normal 0 0 -1
outer loop
vertex 185.88104639999992 -85.41190634999998 0
vertex 99.500413963496 -153.58387346455905 0
vertex 99.25242231246365 -153.19047121049132 0
endloop
endfacet
facet normal 0 0 -1
outer loop
vertex 185.88104639999992 -85.41190634999998 0
vertex 99.25242231246365 -153.19047121049132 0
vertex 99.06820978172728 -152.76346894351013 0
endloop
endfacet
facet normal 0 0 -1
outer loop
vertex 185.88104639999992 -85.41190634999998 0
vertex 99.06820978172728 -152.76346894351013 0
vertex 98.95220289999993 -152.31312729999973 0
endloop
endfacet
facet normal 0 0 -1
outer loop
vertex 185.88104639999992 -85.41190634999998 0
vertex 98.95220289999993 -152.31312729999973 0
vertex 90.61156260000003 -105.01100330000028 0
endloop
endfacet
facet normal 0 0 -1
outer loop
vertex 185.88104639999992 -85.41190634999998 0
vertex 90.61156260000003 -105.01100330000028 0
vertex 90.5665312658746 -104.54725461637635 0
endloop
endfacet
facet normal 0 0 -1
outer loop
vertex 185.88104639999992 -85.41190634999998 0
vertex 90.5665312658746 -104.54725461637635 0
vertex 90.59385108750638 -104.0821281362508 0
endloop
endfacet
facet normal 0 0 -1
outer loop
vertex 185.88104639999992 -85.41190634999998 0
vertex 90.59385108750638 -104.0821281362508 0
vertex 90.69286178343171 -103.62684152623417 0
endloop
endfacet
facet normal 0 0 -1
outer loop
vertex 185.88104639999992 -85.41190634999998 0
vertex 90.69286178343171 -103.62684152623417 0
vertex 90.8611751164873 -103.19237675541412 0
endloop
endfacet
facet normal 0 0 -1
outer loop
vertex 185.88104639999992 -85.41190634999998 0
vertex 90.8611751164873 -103.19237675541412 0
vertex 91.09473120048287 -102.78921354925977 0
endloop
endfacet
facet normal 0 0 -1
outer loop
vertex 185.88104639999992 -85.41190634999998 0
vertex 91.09473120048287 -102.78921354925977 0
vertex 91.38789642872278 -102.42707660814614 0
endloop
endfacet
facet normal 0 0 -1
outer loop
vertex 185.88104639999992 -85.41190634999998 0
vertex 91.38789642872278 -102.42707660814614 0
vertex 91.73359936224243 -102.11470103784036 0
endloop
endfacet
facet normal 0 0 -1
outer loop
vertex 185.88104639999992 -85.41190634999998 0
vertex 91.73359936224243 -102.11470103784036 0
vertex 92.1235013000001 -101.85962164999995 0
endloop
endfacet
facet normal 0 0 -1
outer loop
vertex 185.88104639999992 -85.41190634999998 0
vertex 92.1235013000001 -101.85962164999995 0
vertex 122.1166632460676 -85.41190634999998 0
endloop
endfacet
facet normal 0 0 -1
outer loop
vertex 204.86738341274312 -154.77603835000002 0
vertex 204.85721034253007 -154.7907518255676 0
vertex 162.84814390285945 -154.7907518255676 0
endloop
endfacet
facet normal 0 0 -1
outer loop
vertex 204.86738341274312 -154.77603835000002 0
vertex 162.84814390285945 -154.7907518255676 0
vertex 162.5505772500004 -154.77603835000002 0
endloop
endfacet
facet normal 0 0 -1
outer loop
vertex 162.5505772500004 -154.77603835000002 0
vertex 101.90742580000025 -154.79218460000004 0
vertex 101.69900062865487 -154.77603835000002 0
endloop
endfacet
facet normal 0 0 -1
outer loop
vertex 204.85721034253007 -154.7907518255676 0
vertex 204.82668048226927 -154.83490765499 0
vertex 163.14278378811807 -154.83490765499 0
endloop
endfacet
facet normal 0 0 -1
outer loop
vertex 204.85721034253007 -154.7907518255676 0
vertex 163.14278378811807 -154.83490765499 0
vertex 162.84814390285945 -154.7907518255676 0
endloop
endfacet
facet normal 0 0 -1
outer loop
vertex 204.82668048226927 -154.83490765499 0
vertex 204.7760949323656 -154.90807035189405 0
vertex 163.43159102320666 -154.90807035189405 0
endloop
endfacet
facet normal 0 0 -1
outer loop
vertex 204.82668048226927 -154.83490765499 0
vertex 163.43159102320666 -154.90807035189405 0
vertex 163.14278378811807 -154.83490765499 0
endloop
endfacet
facet normal 0 0 -1
outer loop
vertex 204.7760949323656 -154.90807035189405 0
vertex 204.7059537330686 -155.0095166999999 0
vertex 163.7117144999997 -155.0095166999999 0
endloop
endfacet
facet normal 0 0 -1
outer loop
vertex 204.7760949323656 -154.90807035189405 0
vertex 163.7117144999997 -155.0095166999999 0
vertex 163.43159102320666 -154.90807035189405 0
endloop
endfacet
facet normal 0 0 -1
outer loop
vertex 204.7059537330686 -155.0095166999999 0
vertex 196.8743150999999 -166.33654200000012 0
vertex 196.54930801231131 -166.7302283167252 0
endloop
endfacet
facet normal 0 0 -1
outer loop
vertex 204.7059537330686 -155.0095166999999 0
vertex 196.54930801231131 -166.7302283167252 0
vertex 196.162259939935 -167.0631059304075 0
endloop
endfacet
facet normal 0 0 -1
outer loop
vertex 204.7059537330686 -155.0095166999999 0
vertex 196.162259939935 -167.0631059304075 0
vertex 195.72437611469655 -167.32553967750357 0
endloop
endfacet
facet normal 0 0 -1
outer loop
vertex 204.7059537330686 -155.0095166999999 0
vertex 195.72437611469655 -167.32553967750357 0
vertex 195.24833637336 -167.50993024312058 0
endloop
endfacet
facet normal 0 0 -1
outer loop
vertex 204.7059537330686 -155.0095166999999 0
vertex 195.24833637336 -167.50993024312058 0
vertex 194.74792543658748 -167.61093821498025 0
endloop
endfacet
facet normal 0 0 -1
outer loop
vertex 204.7059537330686 -155.0095166999999 0
vertex 194.74792543658748 -167.61093821498025 0
vertex 194.23763374368735 -167.62563869720537 0
endloop
endfacet
facet normal 0 0 -1
outer loop
vertex 204.7059537330686 -155.0095166999999 0
vertex 194.23763374368735 -167.62563869720537 0
vertex 193.73223785180832 -167.55360600676266 0
endloop
endfacet
facet normal 0 0 -1
outer loop
vertex 204.7059537330686 -155.0095166999999 0
vertex 193.73223785180832 -167.55360600676266 0
vertex 193.24637255000025 -167.39692600000012 0
endloop
endfacet
facet normal 0 0 -1
outer loop
vertex 204.7059537330686 -155.0095166999999 0
vertex 193.24637255000025 -167.39692600000012 0
vertex 163.7117144999997 -155.0095166999999 0
endloop
endfacet
facet normal 0 0 1
outer loop
vertex 194.7479254365874 -167.61093821498025 1
vertex 195.24833637335996 -167.50993024312055 1
vertex 195.72437611469678 -167.32553967750343 1
endloop
endfacet
facet normal 0 0 1
outer loop
vertex 194.7479254365874 -167.61093821498025 1
vertex 195.72437611469678 -167.32553967750343 1
vertex 196.162259939935 -167.06310593040746 1
endloop
endfacet
facet normal 0 0 1
outer loop
vertex 194.7479254365874 -167.61093821498025 1
vertex 196.162259939935 -167.06310593040746 1
vertex 196.54930801231143 -166.7302283167251 1
endloop
endfacet
facet normal 0 0 1
outer loop
vertex 194.7479254365874 -167.61093821498025 1
vertex 196.54930801231143 -166.7302283167251 1
vertex 196.87431509999962 -166.33654200000046 1
endloop
endfacet
facet normal 0 0 1
outer loop
vertex 194.7479254365874 -167.61093821498025 1
vertex 196.87431509999962 -166.33654200000046 1
vertex 204.70595373306847 -155.00951670000006 1
endloop
endfacet
facet normal 0 0 1
outer loop
vertex 194.7479254365874 -167.61093821498025 1
vertex 204.70595373306847 -155.00951670000006 1
vertex 163.71171450000014 -155.00951670000006 1
endloop
endfacet
facet normal 0 0 1
outer loop
vertex 194.7479254365874 -167.61093821498025 1
vertex 163.71171450000014 -155.00951670000006 1
vertex 193.24637255000007 -167.39692600000006 1
endloop
endfacet
facet normal 0 0 1
outer loop
vertex 194.7479254365874 -167.61093821498025 1
vertex 193.24637255000007 -167.39692600000006 1
vertex 193.7322378518083 -167.55360600676264 1
endloop
endfacet
facet normal 0 0 1
outer loop
vertex 194.7479254365874 -167.61093821498025 1
vertex 193.7322378518083 -167.55360600676264 1
vertex 194.2376337436874 -167.62563869720537 1
endloop
endfacet
facet normal 0 0 1
outer loop
vertex 204.70595373306847 -155.00951670000006 1
vertex 204.77609493236565 -154.90807035189397 1
vertex 163.43159102320635 -154.90807035189397 1
endloop
endfacet
facet normal 0 0 1
outer loop
vertex 204.70595373306847 -155.00951670000006 1
vertex 163.43159102320635 -154.90807035189397 1
vertex 163.71171450000014 -155.00951670000006 1
endloop
endfacet
facet normal 0 0 1
outer loop
vertex 204.77609493236565 -154.90807035189397 1
vertex 204.82668048226918 -154.83490765499008 1
vertex 163.1427837881185 -154.83490765499008 1
endloop
endfacet
facet normal 0 0 1
outer loop
vertex 204.77609493236565 -154.90807035189397 1
vertex 163.1427837881185 -154.83490765499008 1
vertex 163.43159102320635 -154.90807035189397 1
endloop
endfacet
facet normal 0 0 1
outer loop
vertex 204.82668048226918 -154.83490765499008 1
vertex 204.85721034253004 -154.79075182556764 1
vertex 162.8481439028596 -154.79075182556764 1
endloop
endfacet
facet normal 0 0 1
outer loop
vertex 204.82668048226918 -154.83490765499008 1
vertex 162.8481439028596 -154.79075182556764 1
vertex 163.1427837881185 -154.83490765499008 1
endloop
endfacet
facet normal 0 0 1
outer loop
vertex 162.55057724998238 -154.77603835000002 1
vertex 101.69900062865494 -154.77603835000002 1
vertex 101.90742579999994 -154.7921846 1
endloop
endfacet
facet normal 0 0 1
outer loop
vertex 204.85721034253004 -154.79075182556764 1
vertex 204.8673834127431 -154.77603835000002 1
vertex 162.55057724998238 -154.77603835000002 1
endloop
endfacet
facet normal 0 0 1
outer loop
vertex 204.85721034253004 -154.79075182556764 1
vertex 162.55057724998238 -154.77603835000002 1
vertex 162.8481439028596 -154.79075182556764 1
endloop
endfacet
facet normal 0 0 1
outer loop
vertex 162.55057724998238 -154.77603835000002 1
vertex 204.8673834127431 -154.77603835000002 1
vertex 207.1449746499999 -151.4819214000001 1
endloop
endfacet
facet normal 0 0 1
outer loop
vertex 162.55057724998238 -154.77603835000002 1
vertex 207.1449746499999 -151.4819214000001 1
vertex 207.33285291234037 -151.17162517239385 1
endloop
endfacet
facet normal 0 0 1
outer loop
vertex 162.55057724998238 -154.77603835000002 1
vertex 207.33285291234037 -151.17162517239385 1
vertex 207.48190720282923 -150.84092166649646 1
endloop
endfacet
facet normal 0 0 1
outer loop
vertex 162.55057724998238 -154.77603835000002 1
vertex 207.48190720282923 -150.84092166649646 1
vertex 207.58995831477753 -150.49464584069634 1
endloop
endfacet
facet normal 0 0 1
outer loop
vertex 162.55057724998238 -154.77603835000002 1
vertex 207.58995831477753 -150.49464584069634 1
vertex 207.65542651703282 -150.13786032414598 1
endloop
endfacet
facet normal 0 0 1
outer loop
vertex 162.55057724998238 -154.77603835000002 1
vertex 207.65542651703282 -150.13786032414598 1
vertex 207.67735930000003 -149.77578280000014 1
endloop
endfacet
facet normal 0 0 1
outer loop
vertex 162.55057724998238 -154.77603835000002 1
vertex 207.67735930000003 -149.77578280000014 1
vertex 207.67735965 -88.41191220000036 1
endloop
endfacet
facet normal 0 0 1
outer loop
vertex 162.55057724998238 -154.77603835000002 1
vertex 207.67735965 -88.41191220000036 1
vertex 207.6317829090366 -87.89096766699922 1
endloop
endfacet
facet normal 0 0 1
outer loop
vertex 162.55057724998238 -154.77603835000002 1
vertex 207.6317829090366 -87.89096766699922 1
vertex 207.4964375123577 -87.38585177002295 1
endloop
endfacet
facet normal 0 0 1
outer loop
vertex 162.55057724998238 -154.77603835000002 1
vertex 207.4964375123577 -87.38585177002295 1
vertex 207.2754358613533 -86.91191219999999 1
endloop
endfacet
facet normal 0 0 1
outer loop
vertex 162.55057724998238 -154.77603835000002 1
vertex 207.2754358613533 -86.91191219999999 1
vertex 206.9754929793569 -86.48354937094034 1
endloop
endfacet
facet normal 0 0 1
outer loop
vertex 162.55057724998238 -154.77603835000002 1
vertex 206.9754929793569 -86.48354937094034 1
vertex 206.60572247905964 -86.1137788706431 1
endloop
endfacet
facet normal 0 0 1
outer loop
vertex 162.55057724998238 -154.77603835000002 1
vertex 206.60572247905964 -86.1137788706431 1
vertex 206.17735964999994 -85.81383598864666 1
endloop
endfacet
facet normal 0 0 1
outer loop
vertex 162.55057724998238 -154.77603835000002 1
vertex 206.17735964999994 -85.81383598864666 1
vertex 205.70342007997698 -85.59283433764226 1
endloop
endfacet
facet normal 0 0 1
outer loop
vertex 162.55057724998238 -154.77603835000002 1
vertex 205.70342007997698 -85.59283433764226 1
vertex 205.19830418300083 -85.45748894096337 1
endloop
endfacet
facet normal 0 0 1
outer loop
vertex 162.55057724998238 -154.77603835000002 1
vertex 205.19830418300083 -85.45748894096337 1
vertex 204.67735929999998 -85.4119144 1
endloop
endfacet
facet normal 0 0 1
outer loop
vertex 162.55057724998238 -154.77603835000002 1
vertex 204.67735929999998 -85.4119144 1
vertex 185.88104640293483 -85.41190635 1
endloop
endfacet
facet normal 0 0 1
outer loop
vertex 162.55057724998238 -154.77603835000002 1
vertex 185.88104640293483 -85.41190635 1
vertex 122.11666324606757 -85.41190635 1
endloop
endfacet
facet normal 0 0 1
outer loop
vertex 162.55057724998238 -154.77603835000002 1
vertex 122.11666324606757 -85.41190635 1
vertex 92.1235013 -101.85962165000001 1
endloop
endfacet
facet normal 0 0 1
outer loop
vertex 162.55057724998238 -154.77603835000002 1
vertex 92.1235013 -101.85962165000001 1
vertex 91.73359936224242 -102.11470103784036 1
endloop
endfacet
facet normal 0 0 1
outer loop
vertex 162.55057724998238 -154.77603835000002 1
vertex 91.73359936224242 -102.11470103784036 1
vertex 91.38789642872287 -102.42707660814604 1
endloop
endfacet
facet normal 0 0 1
outer loop
vertex 162.55057724998238 -154.77603835000002 1
vertex 91.38789642872287 -102.42707660814604 1
vertex 91.09473120048291 -102.78921354925971 1
endloop
endfacet
facet normal 0 0 1
outer loop
vertex 162.55057724998238 -154.77603835000002 1
vertex 91.09473120048291 -102.78921354925971 1
vertex 90.86117511648732 -103.19237675541412 1
endloop
endfacet
facet normal 0 0 1
outer loop
vertex 162.55057724998238 -154.77603835000002 1
vertex 90.86117511648732 -103.19237675541412 1
vertex 90.69286178343171 -103.6268415262342 1
endloop
endfacet
facet normal 0 0 1
outer loop
vertex 162.55057724998238 -154.77603835000002 1
vertex 90.69286178343171 -103.6268415262342 1
vertex 90.5938510875064 -104.08212813625074 1
endloop
endfacet
facet normal 0 0 1
outer loop
vertex 162.55057724998238 -154.77603835000002 1
vertex 90.5938510875064 -104.08212813625074 1
vertex 90.56653126587462 -104.54725461637639 1
endloop
endfacet
facet normal 0 0 1
outer loop
vertex 162.55057724998238 -154.77603835000002 1
vertex 90.56653126587462 -104.54725461637639 1
vertex 90.61156260000006 -105.01100330000043 1
endloop
endfacet
facet normal 0 0 1
outer loop
vertex 162.55057724998238 -154.77603835000002 1
vertex 90.61156260000006 -105.01100330000043 1
vertex 98.95220289999997 -152.31312729999988 1
endloop
endfacet
facet normal 0 0 1
outer loop
vertex 162.55057724998238 -154.77603835000002 1
vertex 98.95220289999997 -152.31312729999988 1
vertex 99.06820978172729 -152.76346894351016 1
endloop
endfacet
facet normal 0 0 1
outer loop
vertex 162.55057724998238 -154.77603835000002 1
vertex 99.06820978172729 -152.76346894351016 1
vertex 99.25242231246366 -153.19047121049135 1
endloop
endfacet
facet normal 0 0 1
outer loop
vertex 162.55057724998238 -154.77603835000002 1
vertex 99.25242231246366 -153.19047121049135 1
vertex 99.50041396349603 -153.5838734645591 1
endloop
endfacet
facet normal 0 0 1
outer loop
vertex 162.55057724998238 -154.77603835000002 1
vertex 99.50041396349603 -153.5838734645591 1
vertex 99.80622562791935 -153.93422245969117 1
endloop
endfacet
facet normal 0 0 1
outer loop
vertex 162.55057724998238 -154.77603835000002 1
vertex 99.80622562791935 -153.93422245969117 1
vertex 100.16250881479246 -154.2330994966798 1
endloop
endfacet
facet normal 0 0 1
outer loop
vertex 162.55057724998238 -154.77603835000002 1
vertex 100.16250881479246 -154.2330994966798 1
vertex 100.5607022294496 -154.47332271997655 1
endloop
endfacet
facet normal 0 0 1
outer loop
vertex 162.55057724998238 -154.77603835000002 1
vertex 100.5607022294496 -154.47332271997655 1
vertex 100.99123749683923 -154.6491196938454 1
endloop
endfacet
facet normal 0 0 1
outer loop
vertex 162.55057724998238 -154.77603835000002 1
vertex 100.99123749683923 -154.6491196938454 1
vertex 101.44376908446321 -154.75626611090908 1
endloop
endfacet
facet normal 0 0 1
outer loop
vertex 162.55057724998238 -154.77603835000002 1
vertex 101.44376908446321 -154.75626611090908 1
vertex 101.69900062865494 -154.77603835000002 1
endloop
endfacet
facet normal 0 0 1
outer loop
vertex 185.88104640293483 -85.41190635 1
vertex 185.67782982124004 -85.4050212659556 1
vertex 122.12921851207196 -85.4050212659556 1
endloop
endfacet
facet normal 0 0 1
outer loop
vertex 185.88104640293483 -85.41190635 1
vertex 122.12921851207196 -85.4050212659556 1
vertex 122.11666324606757 -85.41190635 1
endloop
endfacet
facet normal 0 0 1
outer loop
vertex 185.67782982124004 -85.4050212659556 1
vertex 185.4755428 -85.38438270000002 1
vertex 122.16685388207623 -85.38438270000002 1
endloop
endfacet
facet normal 0 0 1
outer loop
vertex 185.67782982124004 -85.4050212659556 1
vertex 122.16685388207623 -85.38438270000002 1
vertex 122.12921851207196 -85.4050212659556 1
endloop
endfacet
facet normal 0 0 1
outer loop
vertex 185.4755428 -85.38438270000002 1
vertex 148.07756285000002 -80.28256875000002 1
vertex 147.79685346602628 -80.25763362074474 1
endloop
endfacet
facet normal 0 0 1
outer loop
vertex 185.4755428 -85.38438270000002 1
vertex 147.79685346602628 -80.25763362074474 1
vertex 147.51504569999997 -80.2591475 1
endloop
endfacet
facet normal 0 0 1
outer loop
vertex 185.4755428 -85.38438270000002 1
vertex 147.51504569999997 -80.2591475 1
vertex 130.50656060000003 -81.15051509999999 1
endloop
endfacet
facet normal 0 0 1
outer loop
vertex 185.4755428 -85.38438270000002 1
vertex 130.50656060000003 -81.15051509999999 1
vertex 130.17178750309554 -81.1869895126846 1
endloop
endfacet
facet normal 0 0 1
outer loop
vertex 185.4755428 -85.38438270000002 1
vertex 130.17178750309554 -81.1869895126846 1
vertex 129.84321139051065 -81.26075364644974 1
endloop
endfacet
facet normal 0 0 1
outer loop
vertex 185.4755428 -85.38438270000002 1
vertex 129.84321139051065 -81.26075364644974 1
vertex 129.52497244572763 -81.37087804526831 1
endloop
endfacet
facet normal 0 0 1
outer loop
vertex 185.4755428 -85.38438270000002 1
vertex 129.52497244572763 -81.37087804526831 1
vertex 129.2210812000001 -81.51597019999994 1
endloop
endfacet
facet normal 0 0 1
outer loop
vertex 185.4755428 -85.38438270000002 1
vertex 129.2210812000001 -81.51597019999994 1
vertex 122.16685388207623 -85.38438270000002 1
endloop
endfacet
facet normal 0.8554177744376161 -0.5179386364968305 0
outer loop
vertex 207.33285291234037 -151.17162517239385 1
vertex 207.1449746499999 -151.4819214000001 1
vertex 207.14497464999994 -151.48192139999998 0
endloop
endfacet
facet normal 0.8554177744376161 -0.5179386364968305 0
outer loop
vertex 207.33285291234037 -151.17162517239385 1
vertex 207.14497464999994 -151.48192139999998 0
vertex 207.33285291234034 -151.17162517239387 0
endloop
endfacet
facet normal 0.9116761076878784 -0.4109095699434121 0
outer loop
vertex 207.48190720282923 -150.84092166649646 1
vertex 207.33285291234037 -151.17162517239385 1
vertex 207.33285291234034 -151.17162517239387 0
endloop
endfacet
facet normal 0.9116761076878784 -0.4109095699434121 0
outer loop
vertex 207.48190720282923 -150.84092166649646 1
vertex 207.33285291234034 -151.17162517239387 0
vertex 207.48190720282926 -150.8409216664964 0
endloop
endfacet
facet normal 0.9546055346289115 -0.2978729146059609 0
outer loop
vertex 207.58995831477753 -150.49464584069634 1
vertex 207.48190720282923 -150.84092166649646 1
vertex 207.48190720282926 -150.8409216664964 0
endloop
endfacet
facet normal 0.9546055346289115 -0.2978729146059609 0
outer loop
vertex 207.58995831477753 -150.49464584069634 1
vertex 207.48190720282926 -150.8409216664964 0
vertex 207.58995831477753 -150.49464584069636 0
endloop
endfacet
facet normal 0.983578417545194 -0.18048129138304564 0
outer loop
vertex 207.65542651703282 -150.13786032414598 1
vertex 207.58995831477753 -150.49464584069634 1
vertex 207.58995831477753 -150.49464584069636 0
endloop
endfacet
facet normal 0.983578417545194 -0.18048129138304564 0
outer loop
vertex 207.65542651703282 -150.13786032414598 1
vertex 207.58995831477753 -150.49464584069636 0
vertex 207.6554265170328 -150.1378603241462 0
endloop
endfacet
facet normal 0.9981703787851033 -0.06046399685766349 0
outer loop
vertex 207.67735930000003 -149.77578280000014 1
vertex 207.65542651703282 -150.13786032414598 1
vertex 207.6554265170328 -150.1378603241462 0
endloop
endfacet
facet normal 0.9981703787851033 -0.06046399685766349 0
outer loop
vertex 207.67735930000003 -149.77578280000014 1
vertex 207.6554265170328 -150.1378603241462 0
vertex 207.67735930000003 -149.77578279999986 0
endloop
endfacet
facet normal 1 -5.703668648493477e-9 0
outer loop
vertex 207.67735965 -88.41191220000036 1
vertex 207.67735930000003 -149.77578280000014 1
vertex 207.67735930000003 -149.77578279999986 0
endloop
endfacet
facet normal 1 -5.703668648493477e-9 0
outer loop
vertex 207.67735965 -88.41191220000036 1
vertex 207.67735930000003 -149.77578279999986 0
vertex 207.67735965 -88.41191220000039 0
endloop
endfacet
facet normal 0.9961946980917434 0.08715574274768315 0
outer loop
vertex 207.6317829090366 -87.89096766699922 1
vertex 207.67735965 -88.41191220000036 1
vertex 207.67735965 -88.41191220000039 0
endloop
endfacet
facet normal 0.9961946980917434 0.08715574274768315 0
outer loop
vertex 207.6317829090366 -87.89096766699922 1
vertex 207.67735965 -88.41191220000039 0
vertex 207.63178290903656 -87.89096766699902 0
endloop
endfacet
facet normal 0.9659258262890708 0.25881904510251214 0
outer loop
vertex 207.4964375123577 -87.38585177002295 1
vertex 207.6317829090366 -87.89096766699922 1
vertex 207.63178290903656 -87.89096766699902 0
endloop
endfacet
facet normal 0.9659258262890708 0.25881904510251214 0
outer loop
vertex 207.4964375123577 -87.38585177002295 1
vertex 207.63178290903656 -87.89096766699902 0
vertex 207.49643751235772 -87.38585177002301 0
endloop
endfacet
facet normal 0.9063077870366524 0.4226182617406946 0
outer loop
vertex 207.2754358613533 -86.91191219999999 1
vertex 207.4964375123577 -87.38585177002295 1
vertex 207.49643751235772 -87.38585177002301 0
endloop
endfacet
facet normal 0.9063077870366524 0.4226182617406946 0
outer loop
vertex 207.2754358613533 -86.91191219999999 1
vertex 207.49643751235772 -87.38585177002301 0
vertex 207.2754358613533 -86.91191219999995 0
endloop
endfacet
facet normal 0.8191520442890001 0.5735764363510342 0
outer loop
vertex 206.9754929793569 -86.48354937094034 1
vertex 207.2754358613533 -86.91191219999999 1
vertex 207.2754358613533 -86.91191219999995 0
endloop
endfacet
facet normal 0.8191520442890001 0.5735764363510342 0
outer loop
vertex 206.9754929793569 -86.48354937094034 1
vertex 207.2754358613533 -86.91191219999995 0
vertex 206.97549297935697 -86.48354937094041 0
endloop
endfacet
facet normal 0.707106781186519 0.7071067811865759 0
outer loop
vertex 206.60572247905964 -86.1137788706431 1
vertex 206.9754929793569 -86.48354937094034 1
vertex 206.97549297935697 -86.48354937094041 0
endloop
endfacet
facet normal 0.707106781186519 0.7071067811865759 0
outer loop
vertex 206.60572247905964 -86.1137788706431 1
vertex 206.97549297935697 -86.48354937094041 0
vertex 206.6057224790596 -86.11377887064306 0
endloop
endfacet
facet normal 0.5735764363510599 0.8191520442889821 0
outer loop
vertex 206.17735964999994 -85.81383598864666 1
vertex 206.60572247905964 -86.1137788706431 1
vertex 206.6057224790596 -86.11377887064306 0
endloop
endfacet
facet normal 0.5735764363510599 0.8191520442889821 0
outer loop
vertex 206.17735964999994 -85.81383598864666 1
vertex 206.6057224790596 -86.11377887064306 0
vertex 206.17735965000003 -85.8138359886467 0
endloop
endfacet
facet normal 0.4226182617406895 0.9063077870366545 0
outer loop
vertex 205.70342007997698 -85.59283433764226 1
vertex 206.17735964999994 -85.81383598864666 1
vertex 206.17735965000003 -85.8138359886467 0
endloop
endfacet
facet normal 0.4226182617406895 0.9063077870366545 0
outer loop
vertex 205.70342007997698 -85.59283433764226 1
vertex 206.17735965000003 -85.8138359886467 0
vertex 205.70342007997704 -85.59283433764229 0
endloop
endfacet
facet normal 0.2588190451025269 0.9659258262890666 0
outer loop
vertex 205.19830418300083 -85.45748894096337 1
vertex 205.70342007997698 -85.59283433764226 1
vertex 205.70342007997704 -85.59283433764229 0
endloop
endfacet
facet normal 0.2588190451025269 0.9659258262890666 0
outer loop
vertex 205.19830418300083 -85.45748894096337 1
vertex 205.70342007997704 -85.59283433764229 0
vertex 205.19830418300072 -85.45748894096336 0
endloop
endfacet
facet normal 0.08715150956567182 0.9961950684381171 0
outer loop
vertex 204.67735929999998 -85.4119144 1
vertex 205.19830418300083 -85.45748894096337 1
vertex 205.19830418300072 -85.45748894096336 0
endloop
endfacet
facet normal 0.08715150956567182 0.9961950684381171 0
outer loop
vertex 204.67735929999998 -85.4119144 1
vertex 205.19830418300072 -85.45748894096336 0
vertex 204.67735929999998 -85.41191439999999 0
endloop
endfacet
facet normal 4.2827548440982355e-7 0.9999999999999083 0
outer loop
vertex 185.88104640293483 -85.41190635 1
vertex 204.67735929999998 -85.4119144 1
vertex 204.67735929999998 -85.41191439999999 0
endloop
endfacet
facet normal 4.2827548440982355e-7 0.9999999999999083 0
outer loop
vertex 185.88104640293483 -85.41190635 1
vertex 204.67735929999998 -85.41191439999999 0
vertex 185.88104639999992 -85.41190634999998 0
endloop
endfacet
facet normal 0.03386109453316522 0.9994265487153201 0
outer loop
vertex 185.67782982124004 -85.4050212659556 1
vertex 185.88104640293483 -85.41190635 1
vertex 185.88104639999992 -85.41190634999998 0
endloop
endfacet
facet normal 0.03386109453316522 0.9994265487153201 0
outer loop
vertex 185.67782982124004 -85.4050212659556 1
vertex 185.88104639999992 -85.41190634999998 0
vertex 185.67782982123987 -85.40502126595558 0
endloop
endfacet
facet normal 0.1014992476947896 0.9948356159272705 0
outer loop
vertex 185.4755428 -85.38438270000002 1
vertex 185.67782982124004 -85.4050212659556 1
vertex 185.67782982123987 -85.40502126595558 0
endloop
endfacet
facet normal 0.1014992476947896 0.9948356159272705 0
outer loop
vertex 185.4755428 -85.38438270000002 1
vertex 185.67782982123987 -85.40502126595558 0
vertex 185.47554279999977 -85.38438269999999 0
endloop
endfacet
facet normal 0.13516755086018853 0.9908227556906726 0
outer loop
vertex 148.07756285000002 -80.28256875000002 1
vertex 185.4755428 -85.38438270000002 1
vertex 185.47554279999977 -85.38438269999999 0
endloop
endfacet
facet normal 0.13516755086018853 0.9908227556906726 0
outer loop
vertex 148.07756285000002 -80.28256875000002 1
vertex 185.47554279999977 -85.38438269999999 0
vertex 148.07756285000002 -80.28256875000002 0
endloop
endfacet
facet normal 0.0884805875307677 0.9960779013863374 0
outer loop
vertex 147.79685346602628 -80.25763362074474 1
vertex 148.07756285000002 -80.28256875000002 1
vertex 148.07756285000002 -80.28256875000002 0
endloop
endfacet
facet normal 0.0884805875307677 0.9960779013863374 0
outer loop
vertex 147.79685346602628 -80.25763362074474 1
vertex 148.07756285000002 -80.28256875000002 0
vertex 147.79685346602633 -80.25763362074476 0
endloop
endfacet
facet normal -0.005371950648452639 0.9999855709690169 0
outer loop
vertex 147.51504569999997 -80.2591475 1
vertex 147.79685346602628 -80.25763362074474 1
vertex 147.79685346602633 -80.25763362074476 0
endloop
endfacet
facet normal -0.005371950648452639 0.9999855709690169 0
outer loop
vertex 147.51504569999997 -80.2591475 1
vertex 147.79685346602633 -80.25763362074476 0
vertex 147.51504569999966 -80.25914750000001 0
endloop
endfacet
facet normal -0.0523354097662434 0.9986295633940543 0
outer loop
vertex 130.50656060000003 -81.15051509999999 1
vertex 147.51504569999997 -80.2591475 1
vertex 147.51504569999966 -80.25914750000001 0
endloop
endfacet
facet normal -0.0523354097662434 0.9986295633940543 0
outer loop
vertex 130.50656060000003 -81.15051509999999 1
vertex 147.51504569999966 -80.25914750000001 0
vertex 130.50656059999983 -81.1505151 0
endloop
endfacet
facet normal -0.10831167003729543 0.9941169861408325 0
outer loop
vertex 130.17178750309554 -81.1869895126846 1
vertex 130.50656060000003 -81.15051509999999 1
vertex 130.50656059999983 -81.1505151 0
endloop
endfacet
facet normal -0.10831167003729543 0.9941169861408325 0
outer loop
vertex 130.17178750309554 -81.1869895126846 1
vertex 130.50656059999983 -81.1505151 0
vertex 130.17178750309583 -81.18698951268456 0
endloop
endfacet
facet normal -0.2190444185091277 0.9757148880282591 0
outer loop
vertex 129.84321139051065 -81.26075364644974 1
vertex 130.17178750309554 -81.1869895126846 1
vertex 130.17178750309583 -81.18698951268456 0
endloop
endfacet
facet normal -0.2190444185091277 0.9757148880282591 0
outer loop
vertex 129.84321139051065 -81.26075364644974 1
vertex 130.17178750309583 -81.18698951268456 0
vertex 129.84321139051048 -81.2607536464498 0
endloop
endfacet
facet normal -0.32701712433393476 0.9450184127266325 0
outer loop
vertex 129.52497244572763 -81.37087804526831 1
vertex 129.84321139051065 -81.26075364644974 1
vertex 129.84321139051048 -81.2607536464498 0
endloop
endfacet
facet normal -0.32701712433393476 0.9450184127266325 0
outer loop
vertex 129.52497244572763 -81.37087804526831 1
vertex 129.84321139051048 -81.2607536464498 0
vertex 129.52497244572766 -81.3708780452683 0
endloop
endfacet
facet normal -0.4308581338054572 0.9024196742833565 0
outer loop
vertex 129.2210812000001 -81.51597019999994 1
vertex 129.52497244572763 -81.37087804526831 1
vertex 129.52497244572766 -81.3708780452683 0
endloop
endfacet
facet normal -0.4308581338054572 0.9024196742833565 0
outer loop
vertex 129.2210812000001 -81.51597019999994 1
vertex 129.52497244572766 -81.3708780452683 0
vertex 129.22108120000024 -81.51597019999987 0
endloop
endfacet
facet normal 0 0 1
outer loop
vertex 92.1235013 -101.85962165000001 1
vertex 122.11666324606757 -85.41190635 1
vertex 122.12921851207196 -85.4050212659556 1
endloop
endfacet
facet normal 0 0 1
outer loop
vertex 92.1235013 -101.85962165000001 1
vertex 122.12921851207196 -85.4050212659556 1
vertex 122.16685388207623 -85.38438270000002 1
endloop
endfacet
facet normal 0 0 1
outer loop
vertex 92.1235013 -101.85962165000001 1
vertex 122.16685388207623 -85.38438270000002 1
vertex 129.2210812000001 -81.51597019999994 1
endloop
endfacet
facet normal 0 0 1
outer loop
vertex 92.1235013 -101.85962165000001 1
vertex 129.2210812000001 -81.51597019999994 1
vertex 129.22108120000024 -81.51597019999987 0
endloop
endfacet
facet normal 0 0 1
outer loop
vertex 92.1235013 -101.85962165000001 1
vertex 129.22108120000024 -81.51597019999987 0
vertex 122.16685388207628 -85.38438269999999 0
endloop
endfacet
facet normal 0 0 1
outer loop
vertex 92.1235013 -101.85962165000001 1
vertex 122.16685388207628 -85.38438269999999 0
vertex 122.129218512072 -85.40502126595558 0
endloop
endfacet
facet normal 0 0 1
outer loop
vertex 92.1235013 -101.85962165000001 1
vertex 122.129218512072 -85.40502126595558 0
vertex 122.1166632460676 -85.41190634999998 0
endloop
endfacet
facet normal 0 0 1
outer loop
vertex 92.1235013 -101.85962165000001 1
vertex 122.1166632460676 -85.41190634999998 0
vertex 92.1235013000001 -101.85962164999995 0
endloop
endfacet
facet normal -0.5474651037815361 0.8368285129830794 0
outer loop
vertex 91.73359936224242 -102.11470103784036 1
vertex 92.1235013 -101.85962165000001 1
vertex 92.1235013000001 -101.85962164999995 0
endloop
endfacet
facet normal -0.5474651037815361 0.8368285129830794 0
outer loop
vertex 91.73359936224242 -102.11470103784036 1
vertex 92.1235013000001 -101.85962164999995 0
vertex 91.73359936224243 -102.11470103784036 0
endloop
endfacet
facet normal -0.67043725274803 0.7419662324713128 0
outer loop
vertex 91.38789642872287 -102.42707660814604 1
vertex 91.73359936224242 -102.11470103784036 1
vertex 91.73359936224243 -102.11470103784036 0
endloop
endfacet
facet normal -0.67043725274803 0.7419662324713128 0
outer loop
vertex 91.38789642872287 -102.42707660814604 1
vertex 91.73359936224243 -102.11470103784036 0
vertex 91.38789642872278 -102.42707660814614 0
endloop
endfacet
facet normal -0.7772377836111114 0.6292069832156086 0
outer loop
vertex 91.09473120048291 -102.78921354925971 1
vertex 91.38789642872287 -102.42707660814604 1
vertex 91.38789642872278 -102.42707660814614 0
endloop
endfacet
facet normal -0.7772377836111114 0.6292069832156086 0
outer loop
vertex 91.09473120048291 -102.78921354925971 1
vertex 91.38789642872278 -102.42707660814614 0
vertex 91.09473120048287 -102.78921354925977 0
endloop
endfacet
facet normal -0.8652905605857566 0.5012706312573948 0
outer loop
vertex 90.86117511648732 -103.19237675541412 1
vertex 91.09473120048291 -102.78921354925971 1
vertex 91.09473120048287 -102.78921354925977 0
endloop
endfacet
facet normal -0.8652905605857566 0.5012706312573948 0
outer loop
vertex 90.86117511648732 -103.19237675541412 1
vertex 91.09473120048287 -102.78921354925977 0
vertex 90.8611751164873 -103.19237675541412 0
endloop
endfacet
facet normal -0.9324716624902457 0.3612431295577502 0
outer loop
vertex 90.69286178343171 -103.6268415262342 1
vertex 90.86117511648732 -103.19237675541412 1
vertex 90.8611751164873 -103.19237675541412 0
endloop
endfacet
facet normal -0.9324716624902457 0.3612431295577502 0
outer loop
vertex 90.69286178343171 -103.6268415262342 1
vertex 90.8611751164873 -103.19237675541412 0
vertex 90.69286178343171 -103.62684152623417 0
endloop
endfacet
facet normal -0.9771606138522639 0.21250208172125465 0
outer loop
vertex 90.5938510875064 -104.08212813625074 1
vertex 90.69286178343171 -103.6268415262342 1
vertex 90.69286178343171 -103.62684152623417 0
endloop
endfacet
facet normal -0.9771606138522639 0.21250208172125465 0
outer loop
vertex 90.5938510875064 -104.08212813625074 1
vertex 90.69286178343171 -103.62684152623417 0
vertex 90.59385108750638 -104.0821281362508 0
endloop
endfacet
facet normal -0.9982794724007098 0.058635270813397256 0
outer loop
vertex 90.56653126587462 -104.54725461637639 1
vertex 90.5938510875064 -104.08212813625074 1
vertex 90.59385108750638 -104.0821281362508 0
endloop
endfacet
facet normal -0.9982794724007098 0.058635270813397256 0
outer loop
vertex 90.56653126587462 -104.54725461637639 1
vertex 90.59385108750638 -104.0821281362508 0
vertex 90.5665312658746 -104.54725461637635 0
endloop
endfacet
facet normal -0.9953185947960397 -0.09664830496825512 0
outer loop
vertex 90.61156260000006 -105.01100330000043 1
vertex 90.56653126587462 -104.54725461637639 1
vertex 90.5665312658746 -104.54725461637635 0
endloop
endfacet
facet normal -0.9953185947960397 -0.09664830496825512 0
outer loop
vertex 90.61156260000006 -105.01100330000043 1
vertex 90.5665312658746 -104.54725461637635 0
vertex 90.61156260000003 -105.01100330000028 0
endloop
endfacet
facet normal -0.9848077544577714 -0.17364816946873393 0
outer loop
vertex 98.95220289999997 -152.31312729999988 1
vertex 90.61156260000006 -105.01100330000043 1
vertex 90.61156260000003 -105.01100330000028 0
endloop
endfacet
facet normal -0.9848077544577714 -0.17364816946873393 0
outer loop
vertex 98.95220289999997 -152.31312729999988 1
vertex 90.61156260000003 -105.01100330000028 0
vertex 98.95220289999993 -152.31312729999973 0
endloop
endfacet
facet normal -0.9683866537276271 -0.249453981491996 0
outer loop
vertex 99.06820978172729 -152.76346894351016 1
vertex 98.95220289999997 -152.31312729999988 1
vertex 98.95220289999993 -152.31312729999973 0
endloop
endfacet
facet normal -0.9683866537276271 -0.249453981491996 0
outer loop
vertex 99.06820978172729 -152.76346894351016 1
vertex 98.95220289999993 -152.31312729999973 0
vertex 99.06820978172728 -152.76346894351013 0
endloop
endfacet
facet normal -0.9181991104201195 -0.39611916593835905 0
outer loop
vertex 99.25242231246366 -153.19047121049135 1
vertex 99.06820978172729 -152.76346894351016 1
vertex 99.06820978172728 -152.76346894351013 0
endloop
endfacet
facet normal -0.9181991104201195 -0.39611916593835905 0
outer loop
vertex 99.25242231246366 -153.19047121049135 1
vertex 99.06820978172728 -152.76346894351013 0
vertex 99.25242231246365 -153.19047121049132 0
endloop
endfacet
facet normal -0.8459477329618412 -0.5332658184214712 0
outer loop
vertex 99.50041396349603 -153.5838734645591 1
vertex 99.25242231246366 -153.19047121049135 1
vertex 99.25242231246365 -153.19047121049132 0
endloop
endfacet
facet normal -0.8459477329618412 -0.5332658184214712 0
outer loop
vertex 99.50041396349603 -153.5838734645591 1
vertex 99.25242231246365 -153.19047121049132 0
vertex 99.500413963496 -153.58387346455905 0
endloop
endfacet
facet normal -0.7533686833587503 -0.6575983781414786 0
outer loop
vertex 99.80622562791935 -153.93422245969117 1
vertex 99.50041396349603 -153.5838734645591 1
vertex 99.500413963496 -153.58387346455905 0
endloop
endfacet
facet normal -0.7533686833587503 -0.6575983781414786 0
outer loop
vertex 99.80622562791935 -153.93422245969117 1
vertex 99.500413963496 -153.58387346455905 0
vertex 99.80622562791946 -153.93422245969128 0
endloop
endfacet
facet normal -0.6426865867200412 -0.7661292001027914 0
outer loop
vertex 100.16250881479246 -154.2330994966798 1
vertex 99.80622562791935 -153.93422245969117 1
vertex 99.80622562791946 -153.93422245969128 0
endloop
endfacet
facet normal -0.6426865867200412 -0.7661292001027914 0
outer loop
vertex 100.16250881479246 -154.2330994966798 1
vertex 99.80622562791946 -153.93422245969128 0
vertex 100.16250881479245 -154.23309949667984 0
endloop
endfacet
facet normal -0.5165610747051226 -0.8562503466273685 0
outer loop
vertex 100.5607022294496 -154.47332271997655 1
vertex 100.16250881479246 -154.2330994966798 1
vertex 100.16250881479245 -154.23309949667984 0
endloop
endfacet
facet normal -0.5165610747051226 -0.8562503466273685 0
outer loop
vertex 100.5607022294496 -154.47332271997655 1
vertex 100.16250881479245 -154.23309949667984 0
vertex 100.56070222944959 -154.47332271997658 0
endloop
endfacet
facet normal -0.3780228759954419 -0.9257962547040979 0
outer loop
vertex 100.99123749683923 -154.6491196938454 1
vertex 100.5607022294496 -154.47332271997655 1
vertex 100.56070222944959 -154.47332271997658 0
endloop
endfacet
facet normal -0.3780228759954419 -0.9257962547040979 0
outer loop
vertex 100.99123749683923 -154.6491196938454 1
vertex 100.56070222944959 -154.47332271997658 0
vertex 100.99123749683905 -154.64911969384536 0
endloop
endfacet
facet normal -0.23040098950335186 -0.9730957733110737 0
outer loop
vertex 101.44376908446321 -154.75626611090908 1
vertex 100.99123749683923 -154.6491196938454 1
vertex 100.99123749683905 -154.64911969384536 0
endloop
endfacet
facet normal -0.23040098950335186 -0.9730957733110737 0
outer loop
vertex 101.44376908446321 -154.75626611090908 1
vertex 100.99123749683905 -154.64911969384536 0
vertex 101.44376908446313 -154.75626611090908 0
endloop
endfacet
facet normal 0 0 -1
outer loop
vertex 101.90742579999994 -154.7921846 1
vertex 101.69900062865494 -154.77603835000002 1
vertex 101.44376908446321 -154.75626611090908 1
endloop
endfacet
facet normal 0 0 -1
outer loop
vertex 101.90742579999994 -154.7921846 1
vertex 101.44376908446321 -154.75626611090908 1
vertex 101.44376908446313 -154.75626611090908 0
endloop
endfacet
facet normal 0 0 -1
outer loop
vertex 101.90742579999994 -154.7921846 1
vertex 101.44376908446313 -154.75626611090908 0
vertex 101.69900062865487 -154.77603835000002 0
endloop
endfacet
facet normal 0 0 -1
outer loop
vertex 101.90742579999994 -154.7921846 1
vertex 101.69900062865487 -154.77603835000002 0
vertex 101.90742580000025 -154.79218460000004 0
endloop
endfacet
facet normal 0.00026625017073911295 -0.9999999645554227 0
outer loop
vertex 162.55057724998238 -154.77603835000002 1
vertex 101.90742579999994 -154.7921846 1
vertex 101.90742580000025 -154.79218460000004 0
endloop
endfacet
facet normal 0.00026625017073911295 -0.9999999645554227 0
outer loop
vertex 162.55057724998238 -154.77603835000002 1
vertex 101.90742580000025 -154.79218460000004 0
vertex 162.5505772500004 -154.77603835000002 0
endloop
endfacet
facet normal -0.04938564793587828 -0.9987797844259532 0
outer loop
vertex 162.8481439028596 -154.79075182556764 1
vertex 162.55057724998238 -154.77603835000002 1
vertex 162.5505772500004 -154.77603835000002 0
endloop
endfacet
facet normal -0.04938564793587828 -0.9987797844259532 0
outer loop
vertex 162.8481439028596 -154.79075182556764 1
vertex 162.5505772500004 -154.77603835000002 0
vertex 162.84814390285945 -154.7907518255676 0
endloop
endfacet
facet normal -0.14820864289688962 -0.9889561153917106 0
outer loop
vertex 163.1427837881185 -154.83490765499008 1
vertex 162.8481439028596 -154.79075182556764 1
vertex 162.84814390285945 -154.7907518255676 0
endloop
endfacet
facet normal -0.14820864289688962 -0.9889561153917106 0
outer loop
vertex 163.1427837881185 -154.83490765499008 1
vertex 162.84814390285945 -154.7907518255676 0
vertex 163.14278378811807 -154.83490765499 0
endloop
endfacet
facet normal -0.24556993177648634 -0.9693788777393967 0
outer loop
vertex 163.43159102320635 -154.90807035189397 1
vertex 163.1427837881185 -154.83490765499008 1
vertex 163.14278378811807 -154.83490765499 0
endloop
endfacet
facet normal -0.24556993177648634 -0.9693788777393967 0
outer loop
vertex 163.43159102320635 -154.90807035189397 1
vertex 163.14278378811807 -154.83490765499 0
vertex 163.43159102320666 -154.90807035189405 0
endloop
endfacet
facet normal -0.3405073490544624 -0.9402418546522499 0
outer loop
vertex 163.71171450000014 -155.00951670000006 1
vertex 163.43159102320635 -154.90807035189397 1
vertex 163.43159102320666 -154.90807035189405 0
endloop
endfacet
facet normal -0.3405073490544624 -0.9402418546522499 0
outer loop
vertex 163.71171450000014 -155.00951670000006 1
vertex 163.43159102320666 -154.90807035189405 0
vertex 163.7117144999997 -155.0095166999999 0
endloop
endfacet
facet normal -0.3867773278842027 -0.9221731391852378 0
outer loop
vertex 193.24637255000007 -167.39692600000006 1
vertex 163.71171450000014 -155.00951670000006 1
vertex 163.7117144999997 -155.0095166999999 0
endloop
endfacet
facet normal -0.3867773278842027 -0.9221731391852378 0
outer loop
vertex 193.24637255000007 -167.39692600000006 1
vertex 163.7117144999997 -155.0095166999999 0
vertex 193.24637255000025 -167.39692600000012 0
endloop
endfacet
facet normal -0.30691276176256166 -0.951737651176666 0
outer loop
vertex 193.7322378518083 -167.55360600676264 1
vertex 193.24637255000007 -167.39692600000006 1
vertex 193.24637255000025 -167.39692600000012 0
endloop
endfacet
facet normal -0.30691276176256166 -0.951737651176666 0
outer loop
vertex 193.7322378518083 -167.55360600676264 1
vertex 193.24637255000025 -167.39692600000012 0
vertex 193.73223785180832 -167.55360600676266 0
endloop
endfacet
facet normal -0.14110129567745833 -0.9899951638054312 0
outer loop
vertex 194.2376337436874 -167.62563869720537 1
vertex 193.7322378518083 -167.55360600676264 1
vertex 193.73223785180832 -167.55360600676266 0
endloop
endfacet
facet normal -0.14110129567745833 -0.9899951638054312 0
outer loop
vertex 194.2376337436874 -167.62563869720537 1
vertex 193.73223785180832 -167.55360600676266 0
vertex 194.23763374368735 -167.62563869720537 0
endloop
endfacet
facet normal 0.02879605185228229 -0.9995853077140144 0
outer loop
vertex 194.7479254365874 -167.61093821498025 1
vertex 194.2376337436874 -167.62563869720537 1
vertex 194.23763374368735 -167.62563869720537 0
endloop
endfacet
facet normal 0.02879605185228229 -0.9995853077140144 0
outer loop
vertex 194.7479254365874 -167.61093821498025 1
vertex 194.23763374368735 -167.62563869720537 0
vertex 194.74792543658748 -167.61093821498025 0
endloop
endfacet
facet normal 0.1978595498176221 -0.9802303803422785 0
outer loop
vertex 195.24833637335996 -167.50993024312055 1
vertex 194.7479254365874 -167.61093821498025 1
vertex 194.74792543658748 -167.61093821498025 0
endloop
endfacet
facet normal 0.1978595498176221 -0.9802303803422785 0
outer loop
vertex 195.24833637335996 -167.50993024312055 1
vertex 194.74792543658748 -167.61093821498025 0
vertex 195.24833637336 -167.50993024312058 0
endloop
endfacet
facet normal 0.36119361305768116 -0.932490843861932 0
outer loop
vertex 195.72437611469678 -167.32553967750343 1
vertex 195.24833637335996 -167.50993024312055 1
vertex 195.24833637336 -167.50993024312058 0
endloop
endfacet
facet normal 0.36119361305768116 -0.932490843861932 0
outer loop
vertex 195.72437611469678 -167.32553967750343 1
vertex 195.24833637336 -167.50993024312058 0
vertex 195.72437611469655 -167.32553967750357 0
endloop
endfacet
facet normal 0.5140685641084977 -0.8577490958289771 0
outer loop
vertex 196.162259939935 -167.06310593040746 1
vertex 195.72437611469678 -167.32553967750343 1
vertex 195.72437611469655 -167.32553967750357 0
endloop
endfacet
facet normal 0.5140685641084977 -0.8577490958289771 0
outer loop
vertex 196.162259939935 -167.06310593040746 1
vertex 195.72437611469655 -167.32553967750357 0
vertex 196.162259939935 -167.0631059304075 0
endloop
endfacet
facet normal 0.6520575908503481 -0.7581694389873811 0
outer loop
vertex 196.54930801231143 -166.7302283167251 1
vertex 196.162259939935 -167.06310593040746 1
vertex 196.162259939935 -167.0631059304075 0
endloop
endfacet
facet normal 0.6520575908503481 -0.7581694389873811 0
outer loop
vertex 196.54930801231143 -166.7302283167251 1
vertex 196.162259939935 -167.0631059304075 0
vertex 196.54930801231131 -166.7302283167252 0
endloop
endfacet
facet normal 0.7711656574418286 -0.6366345331368007 0
outer loop
vertex 196.87431509999962 -166.33654200000046 1
vertex 196.54930801231143 -166.7302283167251 1
vertex 196.54930801231131 -166.7302283167252 0
endloop
endfacet
facet normal 0.7711656574418286 -0.6366345331368007 0
outer loop
vertex 196.87431509999962 -166.33654200000046 1
vertex 196.54930801231131 -166.7302283167252 0
vertex 196.8743150999999 -166.33654200000012 0
endloop
endfacet
facet normal 0 0 1
outer loop
vertex 207.1449746499999 -151.4819214000001 1
vertex 204.8673834127431 -154.77603835000002 1
vertex 204.85721034253004 -154.79075182556764 1
endloop
endfacet
facet normal 0 0 1
outer loop
vertex 207.1449746499999 -151.4819214000001 1
vertex 204.85721034253004 -154.79075182556764 1
vertex 204.82668048226918 -154.83490765499008 1
endloop
endfacet
facet normal 0 0 1
outer loop
vertex 207.1449746499999 -151.4819214000001 1
vertex 204.82668048226918 -154.83490765499008 1
vertex 204.77609493236565 -154.90807035189397 1
endloop
endfacet
facet normal 0 0 1
outer loop
vertex 207.1449746499999 -151.4819214000001 1
vertex 204.77609493236565 -154.90807035189397 1
vertex 204.70595373306847 -155.00951670000006 1
endloop
endfacet
facet normal 0 0 1
outer loop
vertex 207.1449746499999 -151.4819214000001 1
vertex 204.70595373306847 -155.00951670000006 1
vertex 196.87431509999962 -166.33654200000046 1
endloop
endfacet
facet normal 0 0 1
outer loop
vertex 207.1449746499999 -151.4819214000001 1
vertex 196.87431509999962 -166.33654200000046 1
vertex 196.8743150999999 -166.33654200000012 0
endloop
endfacet
facet normal 0 0 1
outer loop
vertex 207.1449746499999 -151.4819214000001 1
vertex 196.8743150999999 -166.33654200000012 0
vertex 204.7059537330686 -155.0095166999999 0
endloop
endfacet
facet normal 0 0 1
outer loop
vertex 207.1449746499999 -151.4819214000001 1
vertex 204.7059537330686 -155.0095166999999 0
vertex 204.7760949323656 -154.90807035189405 0
endloop
endfacet
facet normal 0 0 1
outer loop
vertex 207.1449746499999 -151.4819214000001 1
vertex 204.7760949323656 -154.90807035189405 0
vertex 204.82668048226927 -154.83490765499 0
endloop
endfacet
facet normal 0 0 1
outer loop
vertex 207.1449746499999 -151.4819214000001 1
vertex 204.82668048226927 -154.83490765499 0
vertex 204.85721034253007 -154.7907518255676 0
endloop
endfacet
facet normal 0 0 1
outer loop
vertex 207.1449746499999 -151.4819214000001 1
vertex 204.85721034253007 -154.7907518255676 0
vertex 204.86738341274312 -154.77603835000002 0
endloop
endfacet
facet normal 0 0 1
outer loop
vertex 207.1449746499999 -151.4819214000001 1
vertex 204.86738341274312 -154.77603835000002 0
vertex 207.14497464999994 -151.48192139999998 0
endloop
endfacet
endsolid csg.js
