solid csg.js
facet normal 0 0 -1
outer loop
vertex 287.87730350000027 -80.25914750000001 0
vertex 304.8857889999999 -81.15051509999998 0
vertex 305.2205620969045 -81.1869895126846 0
endloop
endfacet
facet normal 0 0 -1
outer loop
vertex 287.87730350000027 -80.25914750000001 0
vertex 305.2205620969045 -81.1869895126846 0
vertex 305.5491382094893 -81.26075364644971 0
endloop
endfacet
facet normal 0 0 -1
outer loop
vertex 287.87730350000027 -80.25914750000001 0
vertex 305.5491382094893 -81.26075364644971 0
vertex 305.86737715427233 -81.37087804526831 0
endloop
endfacet
facet normal 0 0 -1
outer loop
vertex 287.87730350000027 -80.25914750000001 0
vertex 305.86737715427233 -81.37087804526831 0
vertex 306.1712679999995 -81.51597019999974 0
endloop
endfacet
facet normal 0 0 -1
outer loop
vertex 287.87730350000027 -80.25914750000001 0
vertex 306.1712679999995 -81.51597019999974 0
vertex 313.22549539398494 -85.38438269999997 0
endloop
endfacet
facet normal 0 0 -1
outer loop
vertex 287.87730350000027 -80.25914750000001 0
vertex 313.22549539398494 -85.38438269999997 0
vertex 249.91680640000035 -85.38438269999997 0
endloop
endfacet
facet normal 0 0 -1
outer loop
vertex 287.87730350000027 -80.25914750000001 0
vertex 249.91680640000035 -85.38438269999997 0
vertex 287.31478675000005 -80.28256875000001 0
endloop
endfacet
facet normal 0 0 -1
outer loop
vertex 287.87730350000027 -80.25914750000001 0
vertex 287.31478675000005 -80.28256875000001 0
vertex 287.59549613397354 -80.25763362074476 0
endloop
endfacet
facet normal 0 0 -1
outer loop
vertex 313.22549539398494 -85.38438269999997 0
vertex 313.26313076439516 -85.40502126595563 0
vertex 249.71451977875964 -85.40502126595563 0
endloop
endfacet
facet normal 0 0 -1
outer loop
vertex 313.22549539398494 -85.38438269999997 0
vertex 249.71451977875964 -85.40502126595563 0
vertex 249.91680640000035 -85.38438269999997 0
endloop
endfacet
facet normal 0 0 -1
outer loop
vertex 313.26313076439516 -85.40502126595563 0
vertex 313.27568603053487 -85.41190635 0
vertex 249.51130320000033 -85.41190635 0
endloop
endfacet
facet normal 0 0 -1
outer loop
vertex 313.26313076439516 -85.40502126595563 0
vertex 249.51130320000033 -85.41190635 0
vertex 249.71451977875964 -85.40502126595563 0
endloop
endfacet
facet normal 0 0 -1
outer loop
vertex 313.27568603053487 -85.41190635 0
vertex 343.2688483 -101.85962165000005 0
vertex 343.6587502377575 -102.11470103784032 0
endloop
endfacet
facet normal 0 0 -1
outer loop
vertex 313.27568603053487 -85.41190635 0
vertex 343.6587502377575 -102.11470103784032 0
vertex 344.00445317127713 -102.4270766081461 0
endloop
endfacet
facet normal 0 0 -1
outer loop
vertex 313.27568603053487 -85.41190635 0
vertex 344.00445317127713 -102.4270766081461 0
vertex 344.29761839951715 -102.78921354925986 0
endloop
endfacet
facet normal 0 0 -1
outer loop
vertex 313.27568603053487 -85.41190635 0
vertex 344.29761839951715 -102.78921354925986 0
vertex 344.53117448351276 -103.19237675541423 0
endloop
endfacet
facet normal 0 0 -1
outer loop
vertex 313.27568603053487 -85.41190635 0
vertex 344.53117448351276 -103.19237675541423 0
vertex 344.69948781656814 -103.62684152623379 0
endloop
endfacet
facet normal 0 0 -1
outer loop
vertex 313.27568603053487 -85.41190635 0
vertex 344.69948781656814 -103.62684152623379 0
vertex 344.79849851249367 -104.08212813625124 0
endloop
endfacet
facet normal 0 0 -1
outer loop
vertex 313.27568603053487 -85.41190635 0
vertex 344.79849851249367 -104.08212813625124 0
vertex 344.8258183341254 -104.54725461637653 0
endloop
endfacet
facet normal 0 0 -1
outer loop
vertex 313.27568603053487 -85.41190635 0
vertex 344.8258183341254 -104.54725461637653 0
vertex 344.7807866000001 -105.0110032999994 0
endloop
endfacet
facet normal 0 0 -1
outer loop
vertex 313.27568603053487 -85.41190635 0
vertex 344.7807866000001 -105.0110032999994 0
vertex 336.44014669999984 -152.31312730000067 0
endloop
endfacet
facet normal 0 0 -1
outer loop
vertex 313.27568603053487 -85.41190635 0
vertex 336.44014669999984 -152.31312730000067 0
vertex 336.3241398182728 -152.76346894351008 0
endloop
endfacet
facet normal 0 0 -1
outer loop
vertex 313.27568603053487 -85.41190635 0
vertex 336.3241398182728 -152.76346894351008 0
vertex 336.1399272875363 -153.1904712104914 0
endloop
endfacet
facet normal 0 0 -1
outer loop
vertex 313.27568603053487 -85.41190635 0
vertex 336.1399272875363 -153.1904712104914 0
vertex 335.891935636504 -153.58387346455908 0
endloop
endfacet
facet normal 0 0 -1
outer loop
vertex 313.27568603053487 -85.41190635 0
vertex 335.891935636504 -153.58387346455908 0
vertex 335.5861239720807 -153.93422245969109 0
endloop
endfacet
facet normal 0 0 -1
outer loop
vertex 313.27568603053487 -85.41190635 0
vertex 335.5861239720807 -153.93422245969109 0
vertex 335.2298407852077 -154.2330994966796 0
endloop
endfacet
facet normal 0 0 -1
outer loop
vertex 313.27568603053487 -85.41190635 0
vertex 335.2298407852077 -154.2330994966796 0
vertex 334.8316473705499 -154.4733227199768 0
endloop
endfacet
facet normal 0 0 -1
outer loop
vertex 313.27568603053487 -85.41190635 0
vertex 334.8316473705499 -154.4733227199768 0
vertex 334.40111210316104 -154.6491196938453 0
endloop
endfacet
facet normal 0 0 -1
outer loop
vertex 313.27568603053487 -85.41190635 0
vertex 334.40111210316104 -154.6491196938453 0
vertex 333.9485805155366 -154.75626611090908 0
endloop
endfacet
facet normal 0 0 -1
outer loop
vertex 313.27568603053487 -85.41190635 0
vertex 333.9485805155366 -154.75626611090908 0
vertex 333.69334875115476 -154.77603835000002 0
endloop
endfacet
facet normal 0 0 -1
outer loop
vertex 313.27568603053487 -85.41190635 0
vertex 333.69334875115476 -154.77603835000002 0
vertex 272.8417723500004 -154.77603835000002 0
endloop
endfacet
facet normal 0 0 -1
outer loop
vertex 313.27568603053487 -85.41190635 0
vertex 272.8417723500004 -154.77603835000002 0
vertex 230.52497388098342 -154.77603835000002 0
endloop
endfacet
facet normal 0 0 -1
outer loop
vertex 313.27568603053487 -85.41190635 0
vertex 230.52497388098342 -154.77603835000002 0
vertex 228.2473849500003 -151.48192140000046 0
endloop
endfacet
facet normal 0 0 -1
outer loop
vertex 313.27568603053487 -85.41190635 0
vertex 228.2473849500003 -151.48192140000046 0
vertex 228.0595024695072 -151.17162626995872 0
endloop
endfacet
facet normal 0 0 -1
outer loop
vertex 313.27568603053487 -85.41190635 0
vertex 228.0595024695072 -151.17162626995872 0
vertex 227.91044399682445 -150.84092328248477 0
endloop
endfacet
facet normal 0 0 -1
outer loop
vertex 313.27568603053487 -85.41190635 0
vertex 227.91044399682445 -150.84092328248477 0
vertex 227.80238881475563 -150.4946474216002 0
endloop
endfacet
facet normal 0 0 -1
outer loop
vertex 313.27568603053487 -85.41190635 0
vertex 227.80238881475563 -150.4946474216002 0
vertex 227.73691672481098 -150.13786135174655 0
endloop
endfacet
facet normal 0 0 -1
outer loop
vertex 313.27568603053487 -85.41190635 0
vertex 227.73691672481098 -150.13786135174655 0
vertex 227.7149899 -149.77578280000014 0
endloop
endfacet
facet normal 0 0 -1
outer loop
vertex 313.27568603053487 -85.41190635 0
vertex 227.7149899 -149.77578280000014 0
vertex 227.71498995000002 -88.41191219999997 0
endloop
endfacet
facet normal 0 0 -1
outer loop
vertex 313.27568603053487 -85.41190635 0
vertex 227.71498995000002 -88.41191219999997 0
vertex 227.7605666909634 -87.89096766699922 0
endloop
endfacet
facet normal 0 0 -1
outer loop
vertex 313.27568603053487 -85.41190635 0
vertex 227.7605666909634 -87.89096766699922 0
vertex 227.8959120876424 -87.3858517700228 0
endloop
endfacet
facet normal 0 0 -1
outer loop
vertex 313.27568603053487 -85.41190635 0
vertex 227.8959120876424 -87.3858517700228 0
vertex 228.11691373864656 -86.91191220000023 0
endloop
endfacet
facet normal 0 0 -1
outer loop
vertex 313.27568603053487 -85.41190635 0
vertex 228.11691373864656 -86.91191220000023 0
vertex 228.4168566206432 -86.48354937094025 0
endloop
endfacet
facet normal 0 0 -1
outer loop
vertex 313.27568603053487 -85.41190635 0
vertex 228.4168566206432 -86.48354937094025 0
vertex 228.78662712094058 -86.11377887064292 0
endloop
endfacet
facet normal 0 0 -1
outer loop
vertex 313.27568603053487 -85.41190635 0
vertex 228.78662712094058 -86.11377887064292 0
vertex 229.21498995 -85.81383598864672 0
endloop
endfacet
facet normal 0 0 -1
outer loop
vertex 313.27568603053487 -85.41190635 0
vertex 229.21498995 -85.81383598864672 0
vertex 229.688929520023 -85.59283433764229 0
endloop
endfacet
facet normal 0 0 -1
outer loop
vertex 313.27568603053487 -85.41190635 0
vertex 229.688929520023 -85.59283433764229 0
vertex 230.19404541699927 -85.45748894096337 0
endloop
endfacet
facet normal 0 0 -1
outer loop
vertex 313.27568603053487 -85.41190635 0
vertex 230.19404541699927 -85.45748894096337 0
vertex 230.7149899000001 -85.4119144 0
endloop
endfacet
facet normal 0 0 -1
outer loop
vertex 313.27568603053487 -85.41190635 0
vertex 230.7149899000001 -85.4119144 0
vertex 249.51130320000033 -85.41190635 0
endloop
endfacet
facet normal 0 0 -1
outer loop
vertex 272.8417723500004 -154.77603835000002 0
vertex 272.5442056971402 -154.79075182556767 0
vertex 230.53514694089532 -154.79075182556767 0
endloop
endfacet
facet normal 0 0 -1
outer loop
vertex 272.8417723500004 -154.77603835000002 0
vertex 230.53514694089532 -154.79075182556767 0
vertex 230.52497388098342 -154.77603835000002 0
endloop
endfacet
facet normal 0 0 -1
outer loop
vertex 333.69334875115476 -154.77603835000002 0
vertex 333.48492339999984 -154.7921846 0
vertex 272.8417723500004 -154.77603835000002 0
endloop
endfacet
facet normal 0 0 -1
outer loop
vertex 272.5442056971402 -154.79075182556767 0
vertex 272.2495658118815 -154.83490765499008 0
vertex 230.56567677024182 -154.83490765499008 0
endloop
endfacet
facet normal 0 0 -1
outer loop
vertex 272.5442056971402 -154.79075182556767 0
vertex 230.56567677024182 -154.83490765499008 0
vertex 230.53514694089532 -154.79075182556767 0
endloop
endfacet
facet normal 0 0 -1
outer loop
vertex 272.2495658118815 -154.83490765499008 0
vertex 271.96075857679386 -154.9080703518939 0
vertex 230.61626226892275 -154.9080703518939 0
endloop
endfacet
facet normal 0 0 -1
outer loop
vertex 272.2495658118815 -154.83490765499008 0
vertex 230.61626226892275 -154.9080703518939 0
vertex 230.56567677024182 -154.83490765499008 0
endloop
endfacet
facet normal 0 0 -1
outer loop
vertex 271.96075857679386 -154.9080703518939 0
vertex 271.6806347 -155.00951670000003 0
vertex 230.68640339719545 -155.00951670000003 0
endloop
endfacet
facet normal 0 0 -1
outer loop
vertex 271.96075857679386 -154.9080703518939 0
vertex 230.68640339719545 -155.00951670000003 0
vertex 230.61626226892275 -154.9080703518939 0
endloop
endfacet
facet normal 0 0 -1
outer loop
vertex 271.6806347 -155.00951670000003 0
vertex 242.14597705000043 -167.39692599999987 0
vertex 241.6601117481916 -167.55360600676264 0
endloop
endfacet
facet normal 0 0 -1
outer loop
vertex 271.6806347 -155.00951670000003 0
vertex 241.6601117481916 -167.55360600676264 0
vertex 241.15471585631252 -167.62563869720537 0
endloop
endfacet
facet normal 0 0 -1
outer loop
vertex 271.6806347 -155.00951670000003 0
vertex 241.15471585631252 -167.62563869720537 0
vertex 240.64442416341248 -167.61093821498025 0
endloop
endfacet
facet normal 0 0 -1
outer loop
vertex 271.6806347 -155.00951670000003 0
vertex 240.64442416341248 -167.61093821498025 0
vertex 240.14401322664003 -167.50993024312058 0
endloop
endfacet
facet normal 0 0 -1
outer loop
vertex 271.6806347 -155.00951670000003 0
vertex 240.14401322664003 -167.50993024312058 0
vertex 239.6679734853035 -167.32553967750357 0
endloop
endfacet
facet normal 0 0 -1
outer loop
vertex 271.6806347 -155.00951670000003 0
vertex 239.6679734853035 -167.32553967750357 0
vertex 239.23008966006483 -167.06310593040737 0
endloop
endfacet
facet normal 0 0 -1
outer loop
vertex 271.6806347 -155.00951670000003 0
vertex 239.23008966006483 -167.06310593040737 0
vertex 238.84304158768867 -166.7302283167252 0
endloop
endfacet
facet normal 0 0 -1
outer loop
vertex 271.6806347 -155.00951670000003 0
vertex 238.84304158768867 -166.7302283167252 0
vertex 238.5180341000003 -166.3365420000004 0
endloop
endfacet
facet normal 0 0 -1
outer loop
vertex 271.6806347 -155.00951670000003 0
vertex 238.5180341000003 -166.3365420000004 0
vertex 230.68640339719545 -155.00951670000003 0
endloop
endfacet
facet normal 0 0 1
outer loop
vertex 241.6601117481916 -167.55360600676264 1
vertex 242.14597704999997 -167.396926 1
vertex 271.6806346999995 -155.0095167000002 1
endloop
endfacet
facet normal 0 0 1
outer loop
vertex 241.6601117481916 -167.55360600676264 1
vertex 271.6806346999995 -155.0095167000002 1
vertex 230.68640339719556 -155.0095167000002 1
endloop
endfacet
facet normal 0 0 1
outer loop
vertex 241.6601117481916 -167.55360600676264 1
vertex 230.68640339719556 -155.0095167000002 1
vertex 238.5180341000002 -166.33654200000024 1
endloop
endfacet
facet normal 0 0 1
outer loop
vertex 241.6601117481916 -167.55360600676264 1
vertex 238.5180341000002 -166.33654200000024 1
vertex 238.84304158768882 -166.73022831672532 1
endloop
endfacet
facet normal 0 0 1
outer loop
vertex 241.6601117481916 -167.55360600676264 1
vertex 238.84304158768882 -166.73022831672532 1
vertex 239.23008966006483 -167.06310593040737 1
endloop
endfacet
facet normal 0 0 1
outer loop
vertex 241.6601117481916 -167.55360600676264 1
vertex 239.23008966006483 -167.06310593040737 1
vertex 239.6679734853035 -167.32553967750357 1
endloop
endfacet
facet normal 0 0 1
outer loop
vertex 241.6601117481916 -167.55360600676264 1
vertex 239.6679734853035 -167.32553967750357 1
vertex 240.14401322664017 -167.50993024312064 1
endloop
endfacet
facet normal 0 0 1
outer loop
vertex 241.6601117481916 -167.55360600676264 1
vertex 240.14401322664017 -167.50993024312064 1
vertex 240.64442416341242 -167.61093821498025 1
endloop
endfacet
facet normal 0 0 1
outer loop
vertex 241.6601117481916 -167.55360600676264 1
vertex 240.64442416341242 -167.61093821498025 1
vertex 241.15471585631252 -167.62563869720537 1
endloop
endfacet
facet normal 0 0 1
outer loop
vertex 271.6806346999995 -155.0095167000002 1
vertex 271.9607585767935 -154.908070351894 1
vertex 230.6162622689228 -154.908070351894 1
endloop
endfacet
facet normal 0 0 1
outer loop
vertex 271.6806346999995 -155.0095167000002 1
vertex 230.6162622689228 -154.908070351894 1
vertex 230.68640339719556 -155.0095167000002 1
endloop
endfacet
facet normal 0 0 1
outer loop
vertex 271.9607585767935 -154.908070351894 1
vertex 272.2495658118814 -154.8349076549901 1
vertex 230.56567677024185 -154.8349076549901 1
endloop
endfacet
facet normal 0 0 1
outer loop
vertex 271.9607585767935 -154.908070351894 1
vertex 230.56567677024185 -154.8349076549901 1
vertex 230.6162622689228 -154.908070351894 1
endloop
endfacet
facet normal 0 0 1
outer loop
vertex 272.2495658118814 -154.8349076549901 1
vertex 272.5442056971407 -154.7907518255676 1
vertex 230.5351469408953 -154.7907518255676 1
endloop
endfacet
facet normal 0 0 1
outer loop
vertex 272.2495658118814 -154.8349076549901 1
vertex 230.5351469408953 -154.7907518255676 1
vertex 230.56567677024185 -154.8349076549901 1
endloop
endfacet
facet normal 0 0 1
outer loop
vertex 272.5442056971407 -154.7907518255676 1
vertex 272.84177234999964 -154.77603835000002 1
vertex 230.52497388098345 -154.77603835000002 1
endloop
endfacet
facet normal 0 0 1
outer loop
vertex 272.5442056971407 -154.7907518255676 1
vertex 230.52497388098345 -154.77603835000002 1
vertex 230.5351469408953 -154.7907518255676 1
endloop
endfacet
facet normal 0 0 1
outer loop
vertex 333.69334875115464 -154.77603835000002 1
vertex 272.84177234999964 -154.77603835000002 1
vertex 333.4849234000002 -154.79218459999998 1
endloop
endfacet
facet normal 0 0 1
outer loop
vertex 272.84177234999964 -154.77603835000002 1
vertex 333.69334875115464 -154.77603835000002 1
vertex 333.9485805155367 -154.75626611090905 1
endloop
endfacet
facet normal 0 0 1
outer loop
vertex 272.84177234999964 -154.77603835000002 1
vertex 333.9485805155367 -154.75626611090905 1
vertex 334.4011121031612 -154.64911969384525 1
endloop
endfacet
facet normal 0 0 1
outer loop
vertex 272.84177234999964 -154.77603835000002 1
vertex 334.4011121031612 -154.64911969384525 1
vertex 334.8316473705504 -154.4733227199766 1
endloop
endfacet
facet normal 0 0 1
outer loop
vertex 272.84177234999964 -154.77603835000002 1
vertex 334.8316473705504 -154.4733227199766 1
vertex 335.22984078520784 -154.23309949667956 1
endloop
endfacet
facet normal 0 0 1
outer loop
vertex 272.84177234999964 -154.77603835000002 1
vertex 335.22984078520784 -154.23309949667956 1
vertex 335.5861239720806 -153.93422245969117 1
endloop
endfacet
facet normal 0 0 1
outer loop
vertex 272.84177234999964 -154.77603835000002 1
vertex 335.5861239720806 -153.93422245969117 1
vertex 335.89193563650406 -153.58387346455896 1
endloop
endfacet
facet normal 0 0 1
outer loop
vertex 272.84177234999964 -154.77603835000002 1
vertex 335.89193563650406 -153.58387346455896 1
vertex 336.1399272875361 -153.19047121049167 1
endloop
endfacet
facet normal 0 0 1
outer loop
vertex 272.84177234999964 -154.77603835000002 1
vertex 336.1399272875361 -153.19047121049167 1
vertex 336.3241398182728 -152.76346894350985 1
endloop
endfacet
facet normal 0 0 1
outer loop
vertex 272.84177234999964 -154.77603835000002 1
vertex 336.3241398182728 -152.76346894350985 1
vertex 336.44014669999984 -152.31312730000036 1
endloop
endfacet
facet normal 0 0 1
outer loop
vertex 272.84177234999964 -154.77603835000002 1
vertex 336.44014669999984 -152.31312730000036 1
vertex 344.7807866 -105.0110033 1
endloop
endfacet
facet normal 0 0 1
outer loop
vertex 272.84177234999964 -154.77603835000002 1
vertex 344.7807866 -105.0110033 1
vertex 344.82581833412536 -104.54725461637649 1
endloop
endfacet
facet normal 0 0 1
outer loop
vertex 272.84177234999964 -154.77603835000002 1
vertex 344.82581833412536 -104.54725461637649 1
vertex 344.7984985124936 -104.08212813625042 1
endloop
endfacet
facet normal 0 0 1
outer loop
vertex 272.84177234999964 -154.77603835000002 1
vertex 344.7984985124936 -104.08212813625042 1
vertex 344.6994878165684 -103.6268415262347 1
endloop
endfacet
facet normal 0 0 1
outer loop
vertex 272.84177234999964 -154.77603835000002 1
vertex 344.6994878165684 -103.6268415262347 1
vertex 344.53117448351253 -103.19237675541382 1
endloop
endfacet
facet normal 0 0 1
outer loop
vertex 272.84177234999964 -154.77603835000002 1
vertex 344.53117448351253 -103.19237675541382 1
vertex 344.2976183995173 -102.7892135492601 1
endloop
endfacet
facet normal 0 0 1
outer loop
vertex 272.84177234999964 -154.77603835000002 1
vertex 344.2976183995173 -102.7892135492601 1
vertex 344.004453171277 -102.42707660814595 1
endloop
endfacet
facet normal 0 0 1
outer loop
vertex 272.84177234999964 -154.77603835000002 1
vertex 344.004453171277 -102.42707660814595 1
vertex 343.6587502377576 -102.11470103784036 1
endloop
endfacet
facet normal 0 0 1
outer loop
vertex 272.84177234999964 -154.77603835000002 1
vertex 343.6587502377576 -102.11470103784036 1
vertex 343.26884830000034 -101.85962165000024 1
endloop
endfacet
facet normal 0 0 1
outer loop
vertex 272.84177234999964 -154.77603835000002 1
vertex 343.26884830000034 -101.85962165000024 1
vertex 313.27568603053487 -85.41190635 1
endloop
endfacet
facet normal 0 0 1
outer loop
vertex 272.84177234999964 -154.77603835000002 1
vertex 313.27568603053487 -85.41190635 1
vertex 249.51130320000001 -85.41190635 1
endloop
endfacet
facet normal 0 0 1
outer loop
vertex 272.84177234999964 -154.77603835000002 1
vertex 249.51130320000001 -85.41190635 1
vertex 230.71498990000003 -85.4119144 1
endloop
endfacet
facet normal 0 0 1
outer loop
vertex 272.84177234999964 -154.77603835000002 1
vertex 230.71498990000003 -85.4119144 1
vertex 230.19404541699922 -85.45748894096337 1
endloop
endfacet
facet normal 0 0 1
outer loop
vertex 272.84177234999964 -154.77603835000002 1
vertex 230.19404541699922 -85.45748894096337 1
vertex 229.688929520023 -85.59283433764227 1
endloop
endfacet
facet normal 0 0 1
outer loop
vertex 272.84177234999964 -154.77603835000002 1
vertex 229.688929520023 -85.59283433764227 1
vertex 229.2149899500001 -85.81383598864663 1
endloop
endfacet
facet normal 0 0 1
outer loop
vertex 272.84177234999964 -154.77603835000002 1
vertex 229.2149899500001 -85.81383598864663 1
vertex 228.78662712094055 -86.11377887064297 1
endloop
endfacet
facet normal 0 0 1
outer loop
vertex 272.84177234999964 -154.77603835000002 1
vertex 228.78662712094055 -86.11377887064297 1
vertex 228.41685662064316 -86.48354937094032 1
endloop
endfacet
facet normal 0 0 1
outer loop
vertex 272.84177234999964 -154.77603835000002 1
vertex 228.41685662064316 -86.48354937094032 1
vertex 228.11691373864662 -86.91191220000016 1
endloop
endfacet
facet normal 0 0 1
outer loop
vertex 272.84177234999964 -154.77603835000002 1
vertex 228.11691373864662 -86.91191220000016 1
vertex 227.89591208764224 -87.38585177002311 1
endloop
endfacet
facet normal 0 0 1
outer loop
vertex 272.84177234999964 -154.77603835000002 1
vertex 227.89591208764224 -87.38585177002311 1
vertex 227.7605666909634 -87.89096766699915 1
endloop
endfacet
facet normal 0 0 1
outer loop
vertex 272.84177234999964 -154.77603835000002 1
vertex 227.7605666909634 -87.89096766699915 1
vertex 227.71498995000005 -88.41191219999978 1
endloop
endfacet
facet normal 0 0 1
outer loop
vertex 272.84177234999964 -154.77603835000002 1
vertex 227.71498995000005 -88.41191219999978 1
vertex 227.7149899 -149.77578280000031 1
endloop
endfacet
facet normal 0 0 1
outer loop
vertex 272.84177234999964 -154.77603835000002 1
vertex 227.7149899 -149.77578280000031 1
vertex 227.73691672481095 -150.13786135174655 1
endloop
endfacet
facet normal 0 0 1
outer loop
vertex 272.84177234999964 -154.77603835000002 1
vertex 227.73691672481095 -150.13786135174655 1
vertex 227.80238881475555 -150.49464742159986 1
endloop
endfacet
facet normal 0 0 1
outer loop
vertex 272.84177234999964 -154.77603835000002 1
vertex 227.80238881475555 -150.49464742159986 1
vertex 227.91044399682443 -150.84092328248462 1
endloop
endfacet
facet normal 0 0 1
outer loop
vertex 272.84177234999964 -154.77603835000002 1
vertex 227.91044399682443 -150.84092328248462 1
vertex 228.0595024695073 -151.17162626995884 1
endloop
endfacet
facet normal 0 0 1
outer loop
vertex 272.84177234999964 -154.77603835000002 1
vertex 228.0595024695073 -151.17162626995884 1
vertex 228.24738495 -151.48192139999998 1
endloop
endfacet
facet normal 0 0 1
outer loop
vertex 272.84177234999964 -154.77603835000002 1
vertex 228.24738495 -151.48192139999998 1
vertex 230.52497388098345 -154.77603835000002 1
endloop
endfacet
facet normal 0 0 1
outer loop
vertex 313.27568603053487 -85.41190635 1
vertex 313.26313076439516 -85.40502126595563 1
vertex 249.71451977875947 -85.40502126595563 1
endloop
endfacet
facet normal 0 0 1
outer loop
vertex 313.27568603053487 -85.41190635 1
vertex 249.71451977875947 -85.40502126595563 1
vertex 249.51130320000001 -85.41190635 1
endloop
endfacet
facet normal 0 0 1
outer loop
vertex 313.26313076439516 -85.40502126595563 1
vertex 313.2254953939849 -85.38438269999995 1
vertex 249.91680640000038 -85.38438269999995 1
endloop
endfacet
facet normal 0 0 1
outer loop
vertex 313.26313076439516 -85.40502126595563 1
vertex 249.91680640000038 -85.38438269999995 1
vertex 249.71451977875947 -85.40502126595563 1
endloop
endfacet
facet normal 0 0 1
outer loop
vertex 313.2254953939849 -85.38438269999995 1
vertex 306.17126799999977 -81.5159701999999 1
vertex 305.86737715427216 -81.37087804526824 1
endloop
endfacet
facet normal 0 0 1
outer loop
vertex 313.2254953939849 -85.38438269999995 1
vertex 305.86737715427216 -81.37087804526824 1
vertex 305.5491382094893 -81.26075364644971 1
endloop
endfacet
facet normal 0 0 1
outer loop
vertex 313.2254953939849 -85.38438269999995 1
vertex 305.5491382094893 -81.26075364644971 1
vertex 305.2205620969044 -81.18698951268459 1
endloop
endfacet
facet normal 0 0 1
outer loop
vertex 313.2254953939849 -85.38438269999995 1
vertex 305.2205620969044 -81.18698951268459 1
vertex 304.8857890000001 -81.1505151 1
endloop
endfacet
facet normal 0 0 1
outer loop
vertex 313.2254953939849 -85.38438269999995 1
vertex 304.8857890000001 -81.1505151 1
vertex 287.8773035000001 -80.25914750000001 1
endloop
endfacet
facet normal 0 0 1
outer loop
vertex 313.2254953939849 -85.38438269999995 1
vertex 287.8773035000001 -80.25914750000001 1
vertex 287.5954961339736 -80.25763362074476 1
endloop
endfacet
facet normal 0 0 1
outer loop
vertex 313.2254953939849 -85.38438269999995 1
vertex 287.5954961339736 -80.25763362074476 1
vertex 287.31478674999994 -80.28256875000002 1
endloop
endfacet
facet normal 0 0 1
outer loop
vertex 313.2254953939849 -85.38438269999995 1
vertex 287.31478674999994 -80.28256875000002 1
vertex 249.91680640000038 -85.38438269999995 1
endloop
endfacet
facet normal 0 0 1
outer loop
vertex 238.5180341000002 -166.33654200000024 1
vertex 230.68640339719556 -155.0095167000002 1
vertex 230.6162622689228 -154.908070351894 1
endloop
endfacet
facet normal 0 0 1
outer loop
vertex 238.5180341000002 -166.33654200000024 1
vertex 230.6162622689228 -154.908070351894 1
vertex 230.56567677024185 -154.8349076549901 1
endloop
endfacet
facet normal 0 0 1
outer loop
vertex 238.5180341000002 -166.33654200000024 1
vertex 230.56567677024185 -154.8349076549901 1
vertex 230.5351469408953 -154.7907518255676 1
endloop
endfacet
facet normal 0 0 1
outer loop
vertex 238.5180341000002 -166.33654200000024 1
vertex 230.5351469408953 -154.7907518255676 1
vertex 230.52497388098345 -154.77603835000002 1
endloop
endfacet
facet normal 0 0 1
outer loop
vertex 238.5180341000002 -166.33654200000024 1
vertex 230.52497388098345 -154.77603835000002 1
vertex 228.24738495 -151.48192139999998 1
endloop
endfacet
facet normal 0 0 1
outer loop
vertex 238.5180341000002 -166.33654200000024 1
vertex 228.24738495 -151.48192139999998 1
vertex 228.2473849500003 -151.48192140000046 0
endloop
endfacet
facet normal 0 0 1
outer loop
vertex 238.5180341000002 -166.33654200000024 1
vertex 228.2473849500003 -151.48192140000046 0
vertex 230.52497388098342 -154.77603835000002 0
endloop
endfacet
facet normal 0 0 1
outer loop
vertex 238.5180341000002 -166.33654200000024 1
vertex 230.52497388098342 -154.77603835000002 0
vertex 230.53514694089532 -154.79075182556767 0
endloop
endfacet
facet normal 0 0 1
outer loop
vertex 238.5180341000002 -166.33654200000024 1
vertex 230.53514694089532 -154.79075182556767 0
vertex 230.56567677024182 -154.83490765499008 0
endloop
endfacet
facet normal 0 0 1
outer loop
vertex 238.5180341000002 -166.33654200000024 1
vertex 230.56567677024182 -154.83490765499008 0
vertex 230.61626226892275 -154.9080703518939 0
endloop
endfacet
facet normal 0 0 1
outer loop
vertex 238.5180341000002 -166.33654200000024 1
vertex 230.61626226892275 -154.9080703518939 0
vertex 230.68640339719545 -155.00951670000003 0
endloop
endfacet
facet normal 0 0 1
outer loop
vertex 238.5180341000002 -166.33654200000024 1
vertex 230.68640339719545 -155.00951670000003 0
vertex 238.5180341000003 -166.3365420000004 0
endloop
endfacet
facet normal -0.7711652727657297 -0.6366349991008645 0
outer loop
vertex 238.84304158768882 -166.73022831672532 1
vertex 238.5180341000002 -166.33654200000024 1
vertex 238.5180341000003 -166.3365420000004 0
endloop
endfacet
facet normal -0.7711652727657297 -0.6366349991008645 0
outer loop
vertex 238.84304158768882 -166.73022831672532 1
vertex 238.5180341000003 -166.3365420000004 0
vertex 238.84304158768867 -166.7302283167252 0
endloop
endfacet
facet normal -0.6520575908503615 -0.7581694389873694 0
outer loop
vertex 239.23008966006483 -167.06310593040737 1
vertex 238.84304158768882 -166.73022831672532 1
vertex 238.84304158768867 -166.7302283167252 0
endloop
endfacet
facet normal -0.6520575908503615 -0.7581694389873694 0
outer loop
vertex 239.23008966006483 -167.06310593040737 1
vertex 238.84304158768867 -166.7302283167252 0
vertex 239.23008966006483 -167.06310593040737 0
endloop
endfacet
facet normal -0.5140685641085407 -0.8577490958289512 0
outer loop
vertex 239.6679734853035 -167.32553967750357 1
vertex 239.23008966006483 -167.06310593040737 1
vertex 239.23008966006483 -167.06310593040737 0
endloop
endfacet
facet normal -0.5140685641085407 -0.8577490958289512 0
outer loop
vertex 239.6679734853035 -167.32553967750357 1
vertex 239.23008966006483 -167.06310593040737 0
vertex 239.6679734853035 -167.32553967750357 0
endloop
endfacet
facet normal -0.3611936130576664 -0.9324908438619378 0
outer loop
vertex 240.14401322664017 -167.50993024312064 1
vertex 239.6679734853035 -167.32553967750357 1
vertex 239.6679734853035 -167.32553967750357 0
endloop
endfacet
facet normal -0.3611936130576664 -0.9324908438619378 0
outer loop
vertex 240.14401322664017 -167.50993024312064 1
vertex 239.6679734853035 -167.32553967750357 0
vertex 240.14401322664003 -167.50993024312058 0
endloop
endfacet
facet normal -0.1978595498176221 -0.9802303803422785 0
outer loop
vertex 240.64442416341242 -167.61093821498025 1
vertex 240.14401322664017 -167.50993024312064 1
vertex 240.14401322664003 -167.50993024312058 0
endloop
endfacet
facet normal -0.1978595498176221 -0.9802303803422785 0
outer loop
vertex 240.64442416341242 -167.61093821498025 1
vertex 240.14401322664003 -167.50993024312058 0
vertex 240.64442416341248 -167.61093821498025 0
endloop
endfacet
facet normal -0.028796051852282276 -0.9995853077140144 0
outer loop
vertex 241.15471585631252 -167.62563869720537 1
vertex 240.64442416341242 -167.61093821498025 1
vertex 240.64442416341248 -167.61093821498025 0
endloop
endfacet
facet normal -0.028796051852282276 -0.9995853077140144 0
outer loop
vertex 241.15471585631252 -167.62563869720537 1
vertex 240.64442416341248 -167.61093821498025 0
vertex 241.15471585631252 -167.62563869720537 0
endloop
endfacet
facet normal 0.14110129567745833 -0.9899951638054312 0
outer loop
vertex 241.6601117481916 -167.55360600676264 1
vertex 241.15471585631252 -167.62563869720537 1
vertex 241.15471585631252 -167.62563869720537 0
endloop
endfacet
facet normal 0.14110129567745833 -0.9899951638054312 0
outer loop
vertex 241.6601117481916 -167.55360600676264 1
vertex 241.15471585631252 -167.62563869720537 0
vertex 241.6601117481916 -167.55360600676264 0
endloop
endfacet
facet normal 0.3069127617625596 -0.9517376511766666 0
outer loop
vertex 242.14597704999997 -167.396926 1
vertex 241.6601117481916 -167.55360600676264 1
vertex 241.6601117481916 -167.55360600676264 0
endloop
endfacet
facet normal 0.3069127617625596 -0.9517376511766666 0
outer loop
vertex 242.14597704999997 -167.396926 1
vertex 241.6601117481916 -167.55360600676264 0
vertex 242.14597705000043 -167.39692599999987 0
endloop
endfacet
facet normal 0.38677733233887984 -0.9221731373168597 0
outer loop
vertex 271.6806346999995 -155.0095167000002 1
vertex 242.14597704999997 -167.396926 1
vertex 242.14597705000043 -167.39692599999987 0
endloop
endfacet
facet normal 0.38677733233887984 -0.9221731373168597 0
outer loop
vertex 271.6806346999995 -155.0095167000002 1
vertex 242.14597705000043 -167.39692599999987 0
vertex 271.6806347 -155.00951670000003 0
endloop
endfacet
facet normal 0.34050691920580994 -0.940242010321262 0
outer loop
vertex 271.9607585767935 -154.908070351894 1
vertex 271.6806346999995 -155.0095167000002 1
vertex 271.6806347 -155.00951670000003 0
endloop
endfacet
facet normal 0.34050691920580994 -0.940242010321262 0
outer loop
vertex 271.9607585767935 -154.908070351894 1
vertex 271.6806347 -155.00951670000003 0
vertex 271.96075857679386 -154.9080703518939 0
endloop
endfacet
facet normal 0.24556993177648717 -0.9693788777393963 0
outer loop
vertex 272.2495658118814 -154.8349076549901 1
vertex 271.9607585767935 -154.908070351894 1
vertex 271.96075857679386 -154.9080703518939 0
endloop
endfacet
facet normal 0.24556993177648717 -0.9693788777393963 0
outer loop
vertex 272.2495658118814 -154.8349076549901 1
vertex 271.96075857679386 -154.9080703518939 0
vertex 272.2495658118815 -154.83490765499008 0
endloop
endfacet
facet normal 0.14820864289686128 -0.9889561153917148 0
outer loop
vertex 272.5442056971407 -154.7907518255676 1
vertex 272.2495658118814 -154.8349076549901 1
vertex 272.2495658118815 -154.83490765499008 0
endloop
endfacet
facet normal 0.14820864289686128 -0.9889561153917148 0
outer loop
vertex 272.5442056971407 -154.7907518255676 1
vertex 272.2495658118815 -154.83490765499008 0
vertex 272.5442056971402 -154.79075182556767 0
endloop
endfacet
facet normal 0.04938564793587828 -0.9987797844259532 0
outer loop
vertex 272.84177234999964 -154.77603835000002 1
vertex 272.5442056971407 -154.7907518255676 1
vertex 272.5442056971402 -154.79075182556767 0
endloop
endfacet
facet normal 0.04938564793587828 -0.9987797844259532 0
outer loop
vertex 272.84177234999964 -154.77603835000002 1
vertex 272.5442056971402 -154.79075182556767 0
vertex 272.8417723500004 -154.77603835000002 0
endloop
endfacet
facet normal -0.00026625017250125893 -0.9999999645554223 0
outer loop
vertex 333.4849234000002 -154.79218459999998 1
vertex 272.84177234999964 -154.77603835000002 1
vertex 272.8417723500004 -154.77603835000002 0
endloop
endfacet
facet normal -0.00026625017250125893 -0.9999999645554223 0
outer loop
vertex 333.4849234000002 -154.79218459999998 1
vertex 272.8417723500004 -154.77603835000002 0
vertex 333.48492339999984 -154.7921846 0
endloop
endfacet
facet normal 0 0 -1
outer loop
vertex 333.9485805155367 -154.75626611090905 1
vertex 333.69334875115464 -154.77603835000002 1
vertex 333.4849234000002 -154.79218459999998 1
endloop
endfacet
facet normal 0 0 -1
outer loop
vertex 333.9485805155367 -154.75626611090905 1
vertex 333.4849234000002 -154.79218459999998 1
vertex 333.48492339999984 -154.7921846 0
endloop
endfacet
facet normal 0 0 -1
outer loop
vertex 333.9485805155367 -154.75626611090905 1
vertex 333.48492339999984 -154.7921846 0
vertex 333.69334875115476 -154.77603835000002 0
endloop
endfacet
facet normal 0 0 -1
outer loop
vertex 333.9485805155367 -154.75626611090905 1
vertex 333.69334875115476 -154.77603835000002 0
vertex 333.9485805155366 -154.75626611090908 0
endloop
endfacet
facet normal 0.23040098950335183 -0.9730957733110737 0
outer loop
vertex 334.4011121031612 -154.64911969384525 1
vertex 333.9485805155367 -154.75626611090905 1
vertex 333.9485805155366 -154.75626611090908 0
endloop
endfacet
facet normal 0.23040098950335183 -0.9730957733110737 0
outer loop
vertex 334.4011121031612 -154.64911969384525 1
vertex 333.9485805155366 -154.75626611090908 0
vertex 334.40111210316104 -154.6491196938453 0
endloop
endfacet
facet normal 0.37802287599541257 -0.9257962547041099 0
outer loop
vertex 334.8316473705504 -154.4733227199766 1
vertex 334.4011121031612 -154.64911969384525 1
vertex 334.40111210316104 -154.6491196938453 0
endloop
endfacet
facet normal 0.37802287599541257 -0.9257962547041099 0
outer loop
vertex 334.8316473705504 -154.4733227199766 1
vertex 334.40111210316104 -154.6491196938453 0
vertex 334.8316473705499 -154.4733227199768 0
endloop
endfacet
facet normal 0.5165610747051195 -0.8562503466273704 0
outer loop
vertex 335.22984078520784 -154.23309949667956 1
vertex 334.8316473705504 -154.4733227199766 1
vertex 334.8316473705499 -154.4733227199768 0
endloop
endfacet
facet normal 0.5165610747051195 -0.8562503466273704 0
outer loop
vertex 335.22984078520784 -154.23309949667956 1
vertex 334.8316473705499 -154.4733227199768 0
vertex 335.2298407852077 -154.2330994966796 0
endloop
endfacet
facet normal 0.6426865867200335 -0.7661292001027978 0
outer loop
vertex 335.5861239720806 -153.93422245969117 1
vertex 335.22984078520784 -154.23309949667956 1
vertex 335.2298407852077 -154.2330994966796 0
endloop
endfacet
facet normal 0.6426865867200335 -0.7661292001027978 0
outer loop
vertex 335.5861239720806 -153.93422245969117 1
vertex 335.2298407852077 -154.2330994966796 0
vertex 335.5861239720807 -153.93422245969109 0
endloop
endfacet
facet normal 0.7533686833587568 -0.657598378141471 0
outer loop
vertex 335.89193563650406 -153.58387346455896 1
vertex 335.5861239720806 -153.93422245969117 1
vertex 335.5861239720807 -153.93422245969109 0
endloop
endfacet
facet normal 0.7533686833587568 -0.657598378141471 0
outer loop
vertex 335.89193563650406 -153.58387346455896 1
vertex 335.5861239720807 -153.93422245969109 0
vertex 335.891935636504 -153.58387346455908 0
endloop
endfacet
facet normal 0.8459477329618459 -0.5332658184214637 0
outer loop
vertex 336.1399272875361 -153.19047121049167 1
vertex 335.89193563650406 -153.58387346455896 1
vertex 335.891935636504 -153.58387346455908 0
endloop
endfacet
facet normal 0.8459477329618459 -0.5332658184214637 0
outer loop
vertex 336.1399272875361 -153.19047121049167 1
vertex 335.891935636504 -153.58387346455908 0
vertex 336.1399272875363 -153.1904712104914 0
endloop
endfacet
facet normal 0.9181991104200841 -0.39611916593844126 0
outer loop
vertex 336.3241398182728 -152.76346894350985 1
vertex 336.1399272875361 -153.19047121049167 1
vertex 336.1399272875363 -153.1904712104914 0
endloop
endfacet
facet normal 0.9181991104200841 -0.39611916593844126 0
outer loop
vertex 336.3241398182728 -152.76346894350985 1
vertex 336.1399272875363 -153.1904712104914 0
vertex 336.3241398182728 -152.76346894351008 0
endloop
endfacet
facet normal 0.9683866537276344 -0.24945398149196762 0
outer loop
vertex 336.44014669999984 -152.31312730000036 1
vertex 336.3241398182728 -152.76346894350985 1
vertex 336.3241398182728 -152.76346894351008 0
endloop
endfacet
facet normal 0.9683866537276344 -0.24945398149196762 0
outer loop
vertex 336.44014669999984 -152.31312730000036 1
vertex 336.3241398182728 -152.76346894351008 0
vertex 336.44014669999984 -152.31312730000067 0
endloop
endfacet
facet normal 0.9848077558819157 -0.1736481613920089 0
outer loop
vertex 344.7807866 -105.0110033 1
vertex 336.44014669999984 -152.31312730000036 1
vertex 336.44014669999984 -152.31312730000067 0
endloop
endfacet
facet normal 0.9848077558819157 -0.1736481613920089 0
outer loop
vertex 344.7807866 -105.0110033 1
vertex 336.44014669999984 -152.31312730000067 0
vertex 344.7807866000001 -105.0110032999994 0
endloop
endfacet
facet normal 0.9953185122117146 -0.09664915544720969 0
outer loop
vertex 344.82581833412536 -104.54725461637649 1
vertex 344.7807866 -105.0110033 1
vertex 344.7807866000001 -105.0110032999994 0
endloop
endfacet
facet normal 0.9953185122117146 -0.09664915544720969 0
outer loop
vertex 344.82581833412536 -104.54725461637649 1
vertex 344.7807866000001 -105.0110032999994 0
vertex 344.8258183341254 -104.54725461637653 0
endloop
endfacet
facet normal 0.9982794724007131 0.05863527081334035 0
outer loop
vertex 344.7984985124936 -104.08212813625042 1
vertex 344.82581833412536 -104.54725461637649 1
vertex 344.8258183341254 -104.54725461637653 0
endloop
endfacet
facet normal 0.9982794724007131 0.05863527081334035 0
outer loop
vertex 344.7984985124936 -104.08212813625042 1
vertex 344.8258183341254 -104.54725461637653 0
vertex 344.79849851249367 -104.08212813625124 0
endloop
endfacet
facet normal 0.9771606138522515 0.21250208172131188 0
outer loop
vertex 344.6994878165684 -103.6268415262347 1
vertex 344.7984985124936 -104.08212813625042 1
vertex 344.79849851249367 -104.08212813625124 0
endloop
endfacet
facet normal 0.9771606138522515 0.21250208172131188 0
outer loop
vertex 344.6994878165684 -103.6268415262347 1
vertex 344.79849851249367 -104.08212813625124 0
vertex 344.69948781656814 -103.62684152623379 0
endloop
endfacet
facet normal 0.9324716624902457 0.3612431295577502 0
outer loop
vertex 344.53117448351253 -103.19237675541382 1
vertex 344.6994878165684 -103.6268415262347 1
vertex 344.69948781656814 -103.62684152623379 0
endloop
endfacet
facet normal 0.9324716624902457 0.3612431295577502 0
outer loop
vertex 344.53117448351253 -103.19237675541382 1
vertex 344.69948781656814 -103.62684152623379 0
vertex 344.53117448351276 -103.19237675541423 0
endloop
endfacet
facet normal 0.8652905605857213 0.5012706312574559 0
outer loop
vertex 344.2976183995173 -102.7892135492601 1
vertex 344.53117448351253 -103.19237675541382 1
vertex 344.53117448351276 -103.19237675541423 0
endloop
endfacet
facet normal 0.8652905605857213 0.5012706312574559 0
outer loop
vertex 344.2976183995173 -102.7892135492601 1
vertex 344.53117448351276 -103.19237675541423 0
vertex 344.29761839951715 -102.78921354925986 0
endloop
endfacet
facet normal 0.7772377836111493 0.6292069832155621 0
outer loop
vertex 344.004453171277 -102.42707660814595 1
vertex 344.2976183995173 -102.7892135492601 1
vertex 344.29761839951715 -102.78921354925986 0
endloop
endfacet
facet normal 0.7772377836111493 0.6292069832155621 0
outer loop
vertex 344.004453171277 -102.42707660814595 1
vertex 344.29761839951715 -102.78921354925986 0
vertex 344.00445317127713 -102.4270766081461 0
endloop
endfacet
facet normal 0.6704372527480301 0.7419662324713129 0
outer loop
vertex 343.6587502377576 -102.11470103784036 1
vertex 344.004453171277 -102.42707660814595 1
vertex 344.00445317127713 -102.4270766081461 0
endloop
endfacet
facet normal 0.6704372527480301 0.7419662324713129 0
outer loop
vertex 343.6587502377576 -102.11470103784036 1
vertex 344.00445317127713 -102.4270766081461 0
vertex 343.6587502377575 -102.11470103784032 0
endloop
endfacet
facet normal 0.547465103781533 0.8368285129830816 0
outer loop
vertex 343.26884830000034 -101.85962165000024 1
vertex 343.6587502377576 -102.11470103784036 1
vertex 343.6587502377575 -102.11470103784032 0
endloop
endfacet
facet normal 0.547465103781533 0.8368285129830816 0
outer loop
vertex 343.26884830000034 -101.85962165000024 1
vertex 343.6587502377575 -102.11470103784032 0
vertex 343.2688483 -101.85962165000005 0
endloop
endfacet
facet normal 0 0 1
outer loop
vertex 306.17126799999977 -81.5159701999999 1
vertex 313.2254953939849 -85.38438269999995 1
vertex 313.26313076439516 -85.40502126595563 1
endloop
endfacet
facet normal 0 0 1
outer loop
vertex 306.17126799999977 -81.5159701999999 1
vertex 313.26313076439516 -85.40502126595563 1
vertex 313.27568603053487 -85.41190635 1
endloop
endfacet
facet normal 0 0 1
outer loop
vertex 306.17126799999977 -81.5159701999999 1
vertex 313.27568603053487 -85.41190635 1
vertex 343.26884830000034 -101.85962165000024 1
endloop
endfacet
facet normal 0 0 1
outer loop
vertex 306.17126799999977 -81.5159701999999 1
vertex 343.26884830000034 -101.85962165000024 1
vertex 343.2688483 -101.85962165000005 0
endloop
endfacet
facet normal 0 0 1
outer loop
vertex 306.17126799999977 -81.5159701999999 1
vertex 343.2688483 -101.85962165000005 0
vertex 313.27568603053487 -85.41190635 0
endloop
endfacet
facet normal 0 0 1
outer loop
vertex 306.17126799999977 -81.5159701999999 1
vertex 313.27568603053487 -85.41190635 0
vertex 313.26313076439516 -85.40502126595563 0
endloop
endfacet
facet normal 0 0 1
outer loop
vertex 306.17126799999977 -81.5159701999999 1
vertex 313.26313076439516 -85.40502126595563 0
vertex 313.22549539398494 -85.38438269999997 0
endloop
endfacet
facet normal 0 0 1
outer loop
vertex 306.17126799999977 -81.5159701999999 1
vertex 313.22549539398494 -85.38438269999997 0
vertex 306.1712679999995 -81.51597019999974 0
endloop
endfacet
facet normal 0.43085859564764856 0.9024194537777521 0
outer loop
vertex 305.86737715427216 -81.37087804526824 1
vertex 306.17126799999977 -81.5159701999999 1
vertex 306.1712679999995 -81.51597019999974 0
endloop
endfacet
facet normal 0.43085859564764856 0.9024194537777521 0
outer loop
vertex 305.86737715427216 -81.37087804526824 1
vertex 306.1712679999995 -81.51597019999974 0
vertex 305.86737715427233 -81.37087804526831 0
endloop
endfacet
facet normal 0.3270171243339279 0.9450184127266349 0
outer loop
vertex 305.5491382094893 -81.26075364644971 1
vertex 305.86737715427216 -81.37087804526824 1
vertex 305.86737715427233 -81.37087804526831 0
endloop
endfacet
facet normal 0.3270171243339279 0.9450184127266349 0
outer loop
vertex 305.5491382094893 -81.26075364644971 1
vertex 305.86737715427233 -81.37087804526831 0
vertex 305.5491382094893 -81.26075364644971 0
endloop
endfacet
facet normal 0.2190444185091103 0.975714888028263 0
outer loop
vertex 305.2205620969044 -81.18698951268459 1
vertex 305.5491382094893 -81.26075364644971 1
vertex 305.5491382094893 -81.26075364644971 0
endloop
endfacet
facet normal 0.2190444185091103 0.975714888028263 0
outer loop
vertex 305.2205620969044 -81.18698951268459 1
vertex 305.5491382094893 -81.26075364644971 0
vertex 305.2205620969045 -81.1869895126846 0
endloop
endfacet
facet normal 0.10831167003729543 0.9941169861408325 0
outer loop
vertex 304.8857890000001 -81.1505151 1
vertex 305.2205620969044 -81.18698951268459 1
vertex 305.2205620969045 -81.1869895126846 0
endloop
endfacet
facet normal 0.10831167003729543 0.9941169861408325 0
outer loop
vertex 304.8857890000001 -81.1505151 1
vertex 305.2205620969045 -81.1869895126846 0
vertex 304.8857889999999 -81.15051509999998 0
endloop
endfacet
facet normal 0.05233540853879506 0.9986295634583815 0
outer loop
vertex 287.8773035000001 -80.25914750000001 1
vertex 304.8857890000001 -81.1505151 1
vertex 304.8857889999999 -81.15051509999998 0
endloop
endfacet
facet normal 0.05233540853879506 0.9986295634583815 0
outer loop
vertex 287.8773035000001 -80.25914750000001 1
vertex 304.8857889999999 -81.15051509999998 0
vertex 287.87730350000027 -80.25914750000001 0
endloop
endfacet
facet normal 0.005371958273229893 0.9999855709280563 0
outer loop
vertex 287.5954961339736 -80.25763362074476 1
vertex 287.8773035000001 -80.25914750000001 1
vertex 287.87730350000027 -80.25914750000001 0
endloop
endfacet
facet normal 0.005371958273229893 0.9999855709280563 0
outer loop
vertex 287.5954961339736 -80.25763362074476 1
vertex 287.87730350000027 -80.25914750000001 0
vertex 287.59549613397354 -80.25763362074476 0
endloop
endfacet
facet normal -0.08848058753073933 0.99607790138634 0
outer loop
vertex 287.31478674999994 -80.28256875000002 1
vertex 287.5954961339736 -80.25763362074476 1
vertex 287.59549613397354 -80.25763362074476 0
endloop
endfacet
facet normal -0.08848058753073933 0.99607790138634 0
outer loop
vertex 287.31478674999994 -80.28256875000002 1
vertex 287.59549613397354 -80.25763362074476 0
vertex 287.31478675000005 -80.28256875000001 0
endloop
endfacet
facet normal -0.13516754944087933 0.990822755884294 0
outer loop
vertex 249.91680640000038 -85.38438269999995 1
vertex 287.31478674999994 -80.28256875000002 1
vertex 287.31478675000005 -80.28256875000001 0
endloop
endfacet
facet normal -0.13516754944087933 0.990822755884294 0
outer loop
vertex 249.91680640000038 -85.38438269999995 1
vertex 287.31478675000005 -80.28256875000001 0
vertex 249.91680640000035 -85.38438269999997 0
endloop
endfacet
facet normal -0.10149944633096197 0.9948355956611667 0
outer loop
vertex 249.71451977875947 -85.40502126595563 1
vertex 249.91680640000038 -85.38438269999995 1
vertex 249.91680640000035 -85.38438269999997 0
endloop
endfacet
facet normal -0.10149944633096197 0.9948355956611667 0
outer loop
vertex 249.71451977875947 -85.40502126595563 1
vertex 249.91680640000035 -85.38438269999997 0
vertex 249.71451977875964 -85.40502126595563 0
endloop
endfacet
facet normal -0.03386109453316522 0.9994265487153202 0
outer loop
vertex 249.51130320000001 -85.41190635 1
vertex 249.71451977875947 -85.40502126595563 1
vertex 249.71451977875964 -85.40502126595563 0
endloop
endfacet
facet normal -0.03386109453316522 0.9994265487153202 0
outer loop
vertex 249.51130320000001 -85.41190635 1
vertex 249.71451977875964 -85.40502126595563 0
vertex 249.51130320000033 -85.41190635 0
endloop
endfacet
facet normal -4.2827547019896883e-7 0.9999999999999084 0
outer loop
vertex 230.71498990000003 -85.4119144 1
vertex 249.51130320000001 -85.41190635 1
vertex 249.51130320000033 -85.41190635 0
endloop
endfacet
facet normal -4.2827547019896883e-7 0.9999999999999084 0
outer loop
vertex 230.71498990000003 -85.4119144 1
vertex 249.51130320000033 -85.41190635 0
vertex 230.7149899000001 -85.4119144 0
endloop
endfacet
facet normal -0.08715157597549708 0.9961950626282923 0
outer loop
vertex 230.19404541699922 -85.45748894096337 1
vertex 230.71498990000003 -85.4119144 1
vertex 230.7149899000001 -85.4119144 0
endloop
endfacet
facet normal -0.08715157597549708 0.9961950626282923 0
outer loop
vertex 230.19404541699922 -85.45748894096337 1
vertex 230.7149899000001 -85.4119144 0
vertex 230.19404541699927 -85.45748894096337 0
endloop
endfacet
facet normal -0.25881904510254217 0.9659258262890627 0
outer loop
vertex 229.688929520023 -85.59283433764227 1
vertex 230.19404541699922 -85.45748894096337 1
vertex 230.19404541699927 -85.45748894096337 0
endloop
endfacet
facet normal -0.25881904510254217 0.9659258262890627 0
outer loop
vertex 229.688929520023 -85.59283433764227 1
vertex 230.19404541699927 -85.45748894096337 0
vertex 229.688929520023 -85.59283433764229 0
endloop
endfacet
facet normal -0.42261826174069467 0.9063077870366524 0
outer loop
vertex 229.2149899500001 -85.81383598864663 1
vertex 229.688929520023 -85.59283433764227 1
vertex 229.688929520023 -85.59283433764229 0
endloop
endfacet
facet normal -0.42261826174069467 0.9063077870366524 0
outer loop
vertex 229.2149899500001 -85.81383598864663 1
vertex 229.688929520023 -85.59283433764229 0
vertex 229.21498995 -85.81383598864672 0
endloop
endfacet
facet normal -0.5735764363510666 0.8191520442889775 0
outer loop
vertex 228.78662712094055 -86.11377887064297 1
vertex 229.2149899500001 -85.81383598864663 1
vertex 229.21498995 -85.81383598864672 0
endloop
endfacet
facet normal -0.5735764363510666 0.8191520442889775 0
outer loop
vertex 228.78662712094055 -86.11377887064297 1
vertex 229.21498995 -85.81383598864672 0
vertex 228.78662712094058 -86.11377887064292 0
endloop
endfacet
facet normal -0.7071067811865193 0.7071067811865761 0
outer loop
vertex 228.41685662064316 -86.48354937094032 1
vertex 228.78662712094055 -86.11377887064297 1
vertex 228.78662712094058 -86.11377887064292 0
endloop
endfacet
facet normal -0.7071067811865193 0.7071067811865761 0
outer loop
vertex 228.41685662064316 -86.48354937094032 1
vertex 228.78662712094058 -86.11377887064292 0
vertex 228.4168566206432 -86.48354937094025 0
endloop
endfacet
facet normal -0.8191520442890048 0.5735764363510275 0
outer loop
vertex 228.11691373864662 -86.91191220000016 1
vertex 228.41685662064316 -86.48354937094032 1
vertex 228.4168566206432 -86.48354937094025 0
endloop
endfacet
facet normal -0.8191520442890048 0.5735764363510275 0
outer loop
vertex 228.11691373864662 -86.91191220000016 1
vertex 228.4168566206432 -86.48354937094025 0
vertex 228.11691373864656 -86.91191220000023 0
endloop
endfacet
facet normal -0.9063077870366524 0.4226182617406946 0
outer loop
vertex 227.89591208764224 -87.38585177002311 1
vertex 228.11691373864662 -86.91191220000016 1
vertex 228.11691373864656 -86.91191220000023 0
endloop
endfacet
facet normal -0.9063077870366524 0.4226182617406946 0
outer loop
vertex 227.89591208764224 -87.38585177002311 1
vertex 228.11691373864656 -86.91191220000023 0
vertex 227.8959120876424 -87.3858517700228 0
endloop
endfacet
facet normal -0.9659258262890708 0.25881904510251214 0
outer loop
vertex 227.7605666909634 -87.89096766699915 1
vertex 227.89591208764224 -87.38585177002311 1
vertex 227.8959120876424 -87.3858517700228 0
endloop
endfacet
facet normal -0.9659258262890708 0.25881904510251214 0
outer loop
vertex 227.7605666909634 -87.89096766699915 1
vertex 227.8959120876424 -87.3858517700228 0
vertex 227.7605666909634 -87.89096766699922 0
endloop
endfacet
facet normal -0.9961946980917434 0.08715574274768315 0
outer loop
vertex 227.71498995000005 -88.41191219999978 1
vertex 227.7605666909634 -87.89096766699915 1
vertex 227.7605666909634 -87.89096766699922 0
endloop
endfacet
facet normal -0.9961946980917434 0.08715574274768315 0
outer loop
vertex 227.71498995000005 -88.41191219999978 1
vertex 227.7605666909634 -87.89096766699922 0
vertex 227.71498995000002 -88.41191219999997 0
endloop
endfacet
facet normal -1 8.148219876602525e-10 0
outer loop
vertex 227.7149899 -149.77578280000031 1
vertex 227.71498995000005 -88.41191219999978 1
vertex 227.71498995000002 -88.41191219999997 0
endloop
endfacet
facet normal -1 8.148219876602525e-10 0
outer loop
vertex 227.7149899 -149.77578280000031 1
vertex 227.71498995000002 -88.41191219999997 0
vertex 227.7149899 -149.77578280000014 0
endloop
endfacet
facet normal -0.998171380329056 -0.060447460591717544 0
outer loop
vertex 227.73691672481095 -150.13786135174655 1
vertex 227.7149899 -149.77578280000031 1
vertex 227.7149899 -149.77578280000014 0
endloop
endfacet
facet normal -0.998171380329056 -0.060447460591717544 0
outer loop
vertex 227.73691672481095 -150.13786135174655 1
vertex 227.7149899 -149.77578280000014 0
vertex 227.73691672481098 -150.13786135174655 0
endloop
endfacet
facet normal -0.9835765646420687 -0.1804913889550046 0
outer loop
vertex 227.80238881475555 -150.49464742159986 1
vertex 227.73691672481095 -150.13786135174655 1
vertex 227.73691672481098 -150.13786135174655 0
endloop
endfacet
facet normal -0.9835765646420687 -0.1804913889550046 0
outer loop
vertex 227.80238881475555 -150.49464742159986 1
vertex 227.73691672481098 -150.13786135174655 0
vertex 227.80238881475563 -150.4946474216002 0
endloop
endfacet
facet normal -0.9546023526285552 -0.2978831119013421 0
outer loop
vertex 227.91044399682443 -150.84092328248462 1
vertex 227.80238881475555 -150.49464742159986 1
vertex 227.80238881475563 -150.4946474216002 0
endloop
endfacet
facet normal -0.9546023526285552 -0.2978831119013421 0
outer loop
vertex 227.91044399682443 -150.84092328248462 1
vertex 227.80238881475563 -150.4946474216002 0
vertex 227.91044399682445 -150.84092328248477 0
endloop
endfacet
facet normal -0.9116715472403238 -0.4109196879591364 0
outer loop
vertex 228.0595024695073 -151.17162626995884 1
vertex 227.91044399682443 -150.84092328248462 1
vertex 227.91044399682445 -150.84092328248477 0
endloop
endfacet
facet normal -0.9116715472403238 -0.4109196879591364 0
outer loop
vertex 228.0595024695073 -151.17162626995884 1
vertex 227.91044399682445 -150.84092328248477 0
vertex 228.0595024695072 -151.17162626995872 0
endloop
endfacet
facet normal -0.8554118106578579 -0.5179484860360587 0
outer loop
vertex 228.24738495 -151.48192139999998 1
vertex 228.0595024695073 -151.17162626995884 1
vertex 228.0595024695072 -151.17162626995872 0
endloop
endfacet
facet normal -0.8554118106578579 -0.5179484860360587 0
outer loop
vertex 228.24738495 -151.48192139999998 1
vertex 228.0595024695072 -151.17162626995872 0
vertex 228.2473849500003 -151.48192140000046 0
endloop
endfacet
endsolid csg.js
