0
SECTION
2
HEADER
9
$INSUNITS
70
4
0
ENDSEC
0
SECTION
2
TABLES
0
TABLE
2
LTYPE
0
LTYPE
72
65
70
64
2
CONTINUOUS
3
______
73
0
40
0
0
ENDTAB
0
TABLE
2
LAYER
0
ENDTAB
0
ENDSEC
0
SECTION
2
ENTITIES
0
LINE
8
0
10
103.6465458
20
-13.445516
11
94.3857026
21
-29.5004318
0
LINE
8
0
10
90.6457768
20
-30.7759026
11
57.0478764
21
-16.9555355
0
LINE
8
0
10
10.5478764
20
-14.5394343
11
-8.0832609
21
-14.1688443
0
LINE
8
0
10
-10.9944041
20
-11.5869569
11
-18.4842374
21
41.7059763
0
LINE
8
0
10
-16.8901577
20
44.7889466
11
24.4001625
21
66.1156956
0
LINE
8
0
10
25.776887
20
66.4502445
11
44.7321807
21
66.4502445
0
LINE
8
0
10
45.3566568
20
66.3845297
11
83.7390961
21
58.2159594
0
LINE
8
0
10
96.1473752
20
58.1502446
11
101.0478765
21
58.1502446
0
LINE
8
0
10
104.0478765
20
55.1502446
11
104.0478765
21
-11.9465438
0
ARC
8
0
10
91.7870333
20
-28.0014596
40
3
50
247.6403729
51
330.0226633
0
ARC
8
0
10
-8.0235999
20
-11.1694376
40
3
50
187.9999997
51
268.8604837
0
ARC
8
0
10
-15.5134332
20
42.1234956
40
3
50
117.3166777
51
187.9999997
0
ARC
8
0
10
25.776887
20
63.4502445
40
3
50
90
51
117.3166777
0
ARC
8
0
10
44.7321807
20
63.4502445
40
3
50
77.9855313
51
90
0
ARC
8
0
10
84.3635722
20
61.1502446
40
3
50
257.9855313
51
265.3205181
0
ARC
8
0
10
101.0478765
20
55.1502446
40
3
50
0
51
90
0
ARC
8
0
10
101.0478765
20
-11.9465438
40
3
50
330.0226633
51
0
0
LINE
8
0
10
84.1188274
20
58.1602446
11
84.0478765
21
58.1602446
0
LINE
8
0
10
83.5478765
20
57.6602446
11
83.5478765
21
25.5502446
0
LINE
8
0
10
84.0478765
20
25.0502446
11
96.0478765
21
25.0502446
0
LINE
8
0
10
96.5478765
20
25.5502446
11
96.5478765
21
57.6602446
0
ARC
8
0
10
84.0478765
20
57.6602446
40
0.5
50
90
51
180
0
ARC
8
0
10
84.0478765
20
25.5502446
40
0.5
50
180
51
270
0
ARC
8
0
10
96.0478765
20
25.5502446
40
0.5
50
270
51
0
0
ARC
8
0
10
96.0478765
20
57.6602446
40
0.5
50
0
51
78.521664
0
LINE
8
0
10
10.5478764
20
-14.5394343
11
10.5478764
21
3.4502445
0
LINE
8
0
10
11.0478764
20
3.9502445
11
56.5478764
21
3.9502445
0
LINE
8
0
10
57.0478764
20
3.4502445
11
57.0478764
21
-16.9555355
0
ARC
8
0
10
11.0478764
20
3.4502445
40
0.5
50
90
51
180
0
ARC
8
0
10
56.5478764
20
3.4502445
40
0.5
50
0
51
90
0
ENDSEC
0
EOF