0
SECTION
2
HEADER
9
$INSUNITS
70
4
0
ENDSEC
0
SECTION
2
TABLES
0
TABLE
2
LTYPE
0
LTYPE
72
65
70
64
2
CONTINUOUS
3
______
73
0
40
0
0
ENDTAB
0
TABLE
2
LAYER
0
ENDTAB
0
ENDSEC
0
SECTION
2
ENTITIES
0
LINE
8
0
10
52.2705587
20
-169.6698365
11
70.095384
21
-167.1647207
0
LINE
8
0
10
70.095384
20
-167.1647207
11
68.4508908
21
-155.4635435
0
LINE
8
0
10
62.9975559
20
-116.6610491
11
68.4403497
21
-155.3885397
0
LINE
8
0
10
45.1727306
20
-119.1661649
11
52.2705587
21
-169.6698365
0
LINE
8
0
10
62.9975559
20
-116.6610491
11
45.1727306
21
-119.1661649
0
LINE
8
0
10
68.4508908
20
-155.4635435
11
86.4196302
21
-154.5218417
0
LINE
8
0
10
86.4196302
20
-154.5218417
11
86.0804426
21
-148.0497555
0
LINE
8
0
10
86.0478764
20
-147.4283562
11
85.529919
21
-137.5451396
0
LINE
8
0
10
67.5545874
20
-138.4871869
11
68.4403497
21
-155.3885397
0
LINE
8
0
10
85.5299189
20
-137.5451396
11
84.6402077
21
-120.5684375
0
LINE
8
0
10
66.6648761
20
-121.5104848
11
67.5545873
21
-138.4871869
0
LINE
8
0
10
84.6402076
20
-120.5684375
11
83.7504964
21
-103.5917354
0
LINE
8
0
10
83.7504964
20
-103.5917354
11
65.7751648
21
-104.5337827
0
LINE
8
0
10
65.7751648
20
-104.5337827
11
66.664876
21
-121.5104848
0
LINE
8
0
10
86.0804426
20
-148.0497555
11
104.0478764
21
-148.0497555
0
LINE
8
0
10
104.0478764
20
-148.0497555
11
104.0478764
21
-97.0497555
0
LINE
8
0
10
86.0478764
20
-147.4283562
11
86.0478764
21
-97.0497555
0
LINE
8
0
10
104.0478764
20
-97.0497555
11
86.0478764
21
-97.0497555
0
LINE
8
0
10
104.0478765
20
-153.0497554
11
122.0478765
21
-153.0497554
0
LINE
8
0
10
104.0478765
20
-153.0497554
11
104.0478765
21
-102.0497554
0
LINE
8
0
10
122.0478765
20
-104.0497554
11
122.0478765
21
-102.0497554
0
LINE
8
0
10
122.0478765
20
-102.0497554
11
104.0478765
21
-102.0497554
0
LINE
8
0
10
122.0478765
20
-155.0497554
11
140.0478765
21
-155.0497554
0
LINE
8
0
10
140.0478765
20
-155.0497554
11
140.0478765
21
-104.0497554
0
LINE
8
0
10
122.0478765
20
-153.0497554
11
122.0478765
21
-155.0497554
0
LINE
8
0
10
140.0478765
20
-104.0497554
11
122.0478765
21
-104.0497554
0
LINE
8
0
10
117.6545822
20
-172.4307535
11
135.0412471
21
-177.0894963
0
LINE
8
0
10
135.0412471
20
-177.0894963
11
139.4411708
21
-160.6687573
0
LINE
8
0
10
139.4411708
20
-160.6687573
11
122.0545059
21
-156.0100145
0
LINE
8
0
10
122.0545059
20
-156.0100145
11
117.6545822
21
-172.4307535
0
LINE
8
0
10
136.4543148
20
-177.560584
11
152.042772
21
-186.560584
0
LINE
8
0
10
152.042772
20
-186.560584
11
160.542772
21
-171.8381522
0
LINE
8
0
10
160.542772
20
-171.8381522
11
144.9543148
21
-162.8381522
0
LINE
8
0
10
144.9543148
20
-162.8381522
11
136.4543148
21
-177.560584
0
ENDSEC
0
EOF