0
SECTION
2
HEADER
9
$INSUNITS
70
4
0
ENDSEC
0
SECTION
2
TABLES
0
TABLE
2
LTYPE
0
LTYPE
72
65
70
64
2
CONTINUOUS
3
______
73
0
40
0
0
ENDTAB
0
TABLE
2
LAYER
0
ENDTAB
0
ENDSEC
0
SECTION
2
ENTITIES
0
LINE
8
0
10
-7.7294413
20
-9.6698365
11
10.095384
21
-7.1647207
0
LINE
8
0
10
10.095384
20
-7.1647207
11
8.4508908
21
4.5364565
0
LINE
8
0
10
2.9975559
20
43.3389509
11
8.4403497
21
4.6114603
0
LINE
8
0
10
-14.8272694
20
40.8338351
11
-7.7294413
21
-9.6698365
0
LINE
8
0
10
2.9975559
20
43.3389509
11
-14.8272694
21
40.8338351
0
LINE
8
0
10
8.4508908
20
4.5364565
11
26.4196302
21
5.4781583
0
LINE
8
0
10
26.4196302
20
5.4781583
11
26.0804426
21
11.9502445
0
LINE
8
0
10
26.0478764
20
12.5716438
11
25.529919
21
22.4548604
0
LINE
8
0
10
7.5545874
20
21.5128131
11
8.4403497
21
4.6114603
0
LINE
8
0
10
25.5299189
20
22.4548604
11
24.6402077
21
39.4315625
0
LINE
8
0
10
6.6648761
20
38.4895152
11
7.5545873
21
21.5128131
0
LINE
8
0
10
24.6402076
20
39.4315625
11
23.7504964
21
56.4082646
0
LINE
8
0
10
23.7504964
20
56.4082646
11
5.7751648
21
55.4662173
0
LINE
8
0
10
5.7751648
20
55.4662173
11
6.664876
21
38.4895152
0
LINE
8
0
10
26.0804426
20
11.9502445
11
44.0478764
21
11.9502445
0
LINE
8
0
10
44.0478764
20
11.9502445
11
44.0478764
21
62.9502445
0
LINE
8
0
10
26.0478764
20
12.5716438
11
26.0478764
21
62.9502445
0
LINE
8
0
10
44.0478764
20
62.9502445
11
26.0478764
21
62.9502445
0
LINE
8
0
10
44.0478765
20
6.9502446
11
62.0478765
21
6.9502446
0
LINE
8
0
10
44.0478765
20
6.9502446
11
44.0478765
21
57.9502446
0
LINE
8
0
10
62.0478765
20
55.9502446
11
62.0478765
21
57.9502446
0
LINE
8
0
10
62.0478765
20
57.9502446
11
44.0478765
21
57.9502446
0
LINE
8
0
10
62.0478765
20
4.9502446
11
80.0478765
21
4.9502446
0
LINE
8
0
10
80.0478765
20
4.9502446
11
80.0478765
21
55.9502446
0
LINE
8
0
10
62.0478765
20
6.9502446
11
62.0478765
21
4.9502446
0
LINE
8
0
10
80.0478765
20
55.9502446
11
62.0478765
21
55.9502446
0
LINE
8
0
10
57.6545822
20
-12.4307535
11
75.0412471
21
-17.0894963
0
LINE
8
0
10
75.0412471
20
-17.0894963
11
79.4411708
21
-0.6687573
0
LINE
8
0
10
79.4411708
20
-0.6687573
11
62.0545059
21
3.9899855
0
LINE
8
0
10
62.0545059
20
3.9899855
11
57.6545822
21
-12.4307535
0
LINE
8
0
10
76.4543148
20
-17.560584
11
92.042772
21
-26.560584
0
LINE
8
0
10
92.042772
20
-26.560584
11
100.542772
21
-11.8381522
0
LINE
8
0
10
100.542772
20
-11.8381522
11
84.9543148
21
-2.8381522
0
LINE
8
0
10
84.9543148
20
-2.8381522
11
76.4543148
21
-17.560584
0
ENDSEC
0
EOF