0
SECTION
2
HEADER
9
$INSUNITS
70
4
0
ENDSEC
0
SECTION
2
TABLES
0
TABLE
2
LTYPE
0
LTYPE
72
65
70
64
2
CONTINUOUS
3
______
73
0
40
0
0
ENDTAB
0
TABLE
2
LAYER
0
ENDTAB
0
ENDSEC
0
SECTION
2
ENTITIES
0
LINE
8
0
10
224.6294162
20
-144.1564041
11
235.4890757
21
-164.8738362
0
LINE
8
0
10
245.9330863
20
-168.4206379
11
287.1447549
21
-149.3587504
0
LINE
8
0
10
291.8923772
20
-148.7412045
11
330.1927776
21
-155.4945985
0
LINE
8
0
10
339.4604251
20
-149.005322
11
346.6255566
21
-108.3698424
0
LINE
8
0
10
342.7052794
20
-100.0284793
11
325.7106312
21
-90.3526676
0
LINE
8
0
10
325.2759007
20
-90.1225566
11
307.5655927
21
-81.4343146
0
LINE
8
0
10
304.4608264
20
-80.6275669
11
287.8770321
21
-79.7584471
0
LINE
8
0
10
286.3725249
20
-79.8215136
11
249.7553757
21
-84.8378842
0
LINE
8
0
10
248.6695565
20
-84.9119144
11
231.7149899
21
-84.9119144
0
LINE
8
0
10
223.7149899
20
-92.9119144
11
223.7149899
21
-140.4422897
0
ARC
8
0
10
242.5746494
20
-161.1597218
40
8
50
207.6626194
51
294.8222519
0
ARC
8
0
10
290.5031917
20
-156.6196665
40
8
50
79.9999992
51
114.8222519
0
ARC
8
0
10
331.5819631
20
-147.6161365
40
8
50
259.9999992
51
349.9999992
0
ARC
8
0
10
338.7470946
20
-106.9806569
40
8
50
349.9999992
51
60.3452107
0
ARC
8
0
10
321.7524464
20
-97.3048452
40
8
50
60.3452107
51
63.8685658
0
ARC
8
0
10
304.0421384
20
-88.6166032
40
8
50
63.8685658
51
86.9999974
0
ARC
8
0
10
287.4583441
20
-87.7474834
40
8
50
86.9999974
51
97.8006842
0
ARC
8
0
10
248.6695565
20
-76.9119144
40
8
50
270
51
277.8006842
0
ARC
8
0
10
231.7149899
20
-92.9119144
40
8
50
90
51
180
0
ARC
8
0
10
231.7149899
20
-140.4422897
40
8
50
180
51
207.6626194
0
LINE
8
0
10
319.2667591
20
-150.3694528
11
335.516087
21
-153.2346477
0
LINE
8
0
10
335.516087
20
-153.2346477
11
338.3812819
21
-136.9853198
0
LINE
8
0
10
338.3812819
20
-136.9853198
11
322.131954
21
-134.1201249
0
LINE
8
0
10
322.131954
20
-134.1201249
11
319.2667591
21
-150.3694528
0
LINE
8
0
10
322.2187782
20
-133.627721
11
338.4681061
21
-136.4929159
0
LINE
8
0
10
338.4681061
20
-136.4929159
11
341.333301
21
-120.243588
0
LINE
8
0
10
341.333301
20
-120.243588
11
325.0839731
21
-117.3783931
0
LINE
8
0
10
325.0839731
20
-117.3783931
11
322.2187782
21
-133.627721
0
LINE
8
0
10
325.1707972
20
-116.8859892
11
341.4201251
21
-119.7511841
0
LINE
8
0
10
341.4201251
20
-119.7511841
11
344.28532
21
-103.5018562
0
LINE
8
0
10
344.28532
20
-103.5018562
11
328.0359921
21
-100.6366613
0
LINE
8
0
10
328.0359921
20
-100.6366613
11
325.1707972
21
-116.8859892
0
LINE
8
0
10
302.4346931
20
-139.8420547
11
318.8443044
21
-141.5667744
0
LINE
8
0
10
318.8443044
20
-141.5667744
11
320.5690241
21
-125.1571631
0
LINE
8
0
10
320.5690241
20
-125.1571631
11
304.1594128
21
-123.4324434
0
LINE
8
0
10
304.1594128
20
-123.4324434
11
302.4346931
21
-139.8420547
0
LINE
8
0
10
304.211677
20
-122.9351824
11
320.6212883
21
-124.6599021
0
LINE
8
0
10
320.6212883
20
-124.6599021
11
322.346008
21
-108.2502908
0
LINE
8
0
10
322.346008
20
-108.2502908
11
305.9363967
21
-106.5255711
0
LINE
8
0
10
305.9363967
20
-106.5255711
11
304.211677
21
-122.9351824
0
LINE
8
0
10
305.9886608
20
-106.0283101
11
322.3982721
21
-107.7530298
0
LINE
8
0
10
322.3982721
20
-107.7530298
11
324.1229918
21
-91.3434185
0
LINE
8
0
10
324.1229918
20
-91.3434185
11
307.7133805
21
-89.6186988
0
LINE
8
0
10
307.7133805
20
-89.6186988
11
305.9886608
21
-106.0283101
0
LINE
8
0
10
285.6616985
20
-131.4633653
11
302.1390858
21
-132.3269086
0
LINE
8
0
10
302.1390858
20
-132.3269086
11
303.0026291
21
-115.8495213
0
LINE
8
0
10
303.0026291
20
-115.8495213
11
286.5252418
21
-114.985978
0
LINE
8
0
10
286.5252418
20
-114.985978
11
285.6616985
21
-131.4633653
0
LINE
8
0
10
286.5514098
20
-114.4866632
11
303.0287971
21
-115.3502065
0
LINE
8
0
10
303.0287971
20
-115.3502065
11
303.8923404
21
-98.8728192
0
LINE
8
0
10
303.8923404
20
-98.8728192
11
287.4149531
21
-98.0092759
0
LINE
8
0
10
287.4149531
20
-98.0092759
11
286.5514098
21
-114.4866632
0
LINE
8
0
10
287.4411211
20
-97.5099611
11
303.9185084
21
-98.3735044
0
LINE
8
0
10
303.9185084
20
-98.3735044
11
304.7820517
21
-81.8961171
0
LINE
8
0
10
304.7820517
20
-81.8961171
11
288.3046644
21
-81.0325738
0
LINE
8
0
10
288.3046644
20
-81.0325738
11
287.4411211
21
-97.5099611
0
LINE
8
0
10
267.9544885
20
-134.8241425
11
284.4519754
21
-135.1121072
0
LINE
8
0
10
284.4519754
20
-135.1121072
11
284.7399401
21
-118.6146203
0
LINE
8
0
10
284.7399401
20
-118.6146203
11
268.2424532
21
-118.3266556
0
LINE
8
0
10
268.2424532
20
-118.3266556
11
267.9544885
21
-134.8241425
0
LINE
8
0
10
268.2511794
20
-117.8267317
11
284.7486663
21
-118.1146964
0
LINE
8
0
10
284.7486663
20
-118.1146964
11
285.036631
21
-101.6172095
0
LINE
8
0
10
285.036631
20
-101.6172095
11
268.5391441
21
-101.3292448
0
LINE
8
0
10
268.5391441
20
-101.3292448
11
268.2511794
21
-117.8267317
0
LINE
8
0
10
268.5478703
20
-100.8293208
11
285.0453572
21
-101.1172855
0
LINE
8
0
10
285.0453572
20
-101.1172855
11
285.3333219
21
-84.6197986
0
LINE
8
0
10
285.3333219
20
-84.6197986
11
268.835835
21
-84.3318339
0
LINE
8
0
10
268.835835
20
-84.3318339
11
268.5478703
21
-100.8293208
0
LINE
8
0
10
250.4649899
20
-136.6619143
11
266.9649899
21
-136.6619143
0
LINE
8
0
10
266.9649899
20
-136.6619143
11
266.9649899
21
-120.1619143
0
LINE
8
0
10
266.9649899
20
-120.1619143
11
250.4649899
21
-120.1619143
0
LINE
8
0
10
250.4649899
20
-120.1619143
11
250.4649899
21
-136.6619143
0
LINE
8
0
10
250.4649899
20
-119.6619143
11
266.9649899
21
-119.6619143
0
LINE
8
0
10
266.9649899
20
-119.6619143
11
266.9649899
21
-103.1619143
0
LINE
8
0
10
266.9649899
20
-103.1619143
11
250.4649899
21
-103.1619143
0
LINE
8
0
10
250.4649899
20
-103.1619143
11
250.4649899
21
-119.6619143
0
LINE
8
0
10
250.4649899
20
-102.6619144
11
266.9649899
21
-102.6619144
0
LINE
8
0
10
266.9649899
20
-102.6619144
11
266.9649899
21
-86.1619144
0
LINE
8
0
10
266.9649899
20
-86.1619144
11
250.4649899
21
-86.1619144
0
LINE
8
0
10
250.4649899
20
-86.1619144
11
250.4649899
21
-102.6619144
0
LINE
8
0
10
255.381359
20
-158.5160595
11
271.3191351
21
-154.2455452
0
LINE
8
0
10
271.3191351
20
-154.2455452
11
267.0486208
21
-138.3077691
0
LINE
8
0
10
267.0486208
20
-138.3077691
11
251.1108447
21
-142.5782834
0
LINE
8
0
10
251.1108447
20
-142.5782834
11
255.381359
21
-158.5160595
0
LINE
8
0
10
240.176465
20
-167.3135984
11
254.4658842
21
-159.0635984
0
LINE
8
0
10
254.4658842
20
-159.0635984
11
246.2158842
21
-144.7741792
0
LINE
8
0
10
246.2158842
20
-144.7741792
11
231.926465
21
-153.0241792
0
LINE
8
0
10
231.926465
20
-153.0241792
11
240.176465
21
-167.3135984
0
ENDSEC
0
EOF