0
SECTION
2
HEADER
9
$INSUNITS
70
4
0
ENDSEC
0
SECTION
2
TABLES
0
TABLE
2
LTYPE
0
LTYPE
72
65
70
64
2
CONTINUOUS
3
______
73
0
40
0
0
ENDTAB
0
TABLE
2
LAYER
0
ENDTAB
0
ENDSEC
0
SECTION
2
ENTITIES
0
LINE
8
0
10
230.1175816
20
-151.4085073
11
238.5801596
21
-166.0510676
0
LINE
8
0
10
242.3379001
20
-167.3164308
11
271.6961492
21
-155.0030096
0
LINE
8
0
10
272.8249091
20
-154.7696951
11
333.6340792
21
-154.1297
0
LINE
8
0
10
336.5569302
20
-151.6508107
11
344.7807866
21
-105.0110033
0
LINE
8
0
10
343.2688509
20
-101.8596159
11
324.121307
21
-91.359448
0
LINE
8
0
10
324.0847463
20
-91.3393987
11
306.171268
21
-81.5159702
0
LINE
8
0
10
304.8857884
20
-81.1505244
11
287.8773035
21
-80.2591475
0
LINE
8
0
10
287.3147927
20
-80.2825678
11
249.9168064
21
-85.3843827
0
LINE
8
0
10
249.5113036
20
-85.4119144
11
232.7149899
21
-85.4119144
0
LINE
8
0
10
229.7149899
20
-88.4119144
11
229.7149899
21
-149.9073512
0
ARC
8
0
10
241.1775679
20
-164.5499115
40
3
50
210.0255005
51
292.754128
0
ARC
8
0
10
272.8564814
20
-157.769529
40
3
50
90.6029977
51
112.754128
0
ARC
8
0
10
333.6025069
20
-151.1298661
40
3
50
270.6029977
51
349.9999992
0
ARC
8
0
10
341.8263634
20
-104.4900588
40
3
50
349.9999992
51
61.2604282
0
ARC
8
0
10
304.7287804
20
-84.146413
40
3
50
61.2604282
51
86.9999974
0
ARC
8
0
10
287.7202955
20
-83.2550361
40
3
50
86.9999974
51
97.7683111
0
ARC
8
0
10
249.5113036
20
-82.4119144
40
3
50
270
51
277.7683111
0
ARC
8
0
10
232.7149899
20
-88.4119144
40
3
50
90
51
180
0
ARC
8
0
10
232.7149899
20
-149.9073512
40
3
50
180
51
210.0255005
0
LINE
8
0
10
319.2667591
20
-150.3694528
11
335.516087
21
-153.2346477
0
LINE
8
0
10
335.516087
20
-153.2346477
11
338.3812819
21
-136.9853198
0
LINE
8
0
10
338.3812819
20
-136.9853198
11
322.131954
21
-134.1201249
0
LINE
8
0
10
322.131954
20
-134.1201249
11
319.2667591
21
-150.3694528
0
LINE
8
0
10
322.2187782
20
-133.627721
11
338.4681061
21
-136.4929159
0
LINE
8
0
10
338.4681061
20
-136.4929159
11
341.333301
21
-120.243588
0
LINE
8
0
10
341.333301
20
-120.243588
11
325.0839731
21
-117.3783931
0
LINE
8
0
10
325.0839731
20
-117.3783931
11
322.2187782
21
-133.627721
0
LINE
8
0
10
325.1707972
20
-116.8859892
11
341.4201251
21
-119.7511841
0
LINE
8
0
10
341.4201251
20
-119.7511841
11
344.28532
21
-103.5018562
0
LINE
8
0
10
344.28532
20
-103.5018562
11
328.0359921
21
-100.6366613
0
LINE
8
0
10
328.0359921
20
-100.6366613
11
325.1707972
21
-116.8859892
0
LINE
8
0
10
302.4346931
20
-139.8420547
11
318.8443044
21
-141.5667744
0
LINE
8
0
10
318.8443044
20
-141.5667744
11
320.5690241
21
-125.1571631
0
LINE
8
0
10
320.5690241
20
-125.1571631
11
304.1594128
21
-123.4324434
0
LINE
8
0
10
304.1594128
20
-123.4324434
11
302.4346931
21
-139.8420547
0
LINE
8
0
10
304.211677
20
-122.9351824
11
320.6212883
21
-124.6599021
0
LINE
8
0
10
320.6212883
20
-124.6599021
11
322.346008
21
-108.2502908
0
LINE
8
0
10
322.346008
20
-108.2502908
11
305.9363967
21
-106.5255711
0
LINE
8
0
10
305.9363967
20
-106.5255711
11
304.211677
21
-122.9351824
0
LINE
8
0
10
305.9886608
20
-106.0283101
11
322.3982721
21
-107.7530298
0
LINE
8
0
10
322.3982721
20
-107.7530298
11
324.121307
21
-91.359448
0
LINE
8
0
10
324.0847463
20
-91.3393987
11
307.7133805
21
-89.6186988
0
LINE
8
0
10
307.7133805
20
-89.6186988
11
305.9886608
21
-106.0283101
0
LINE
8
0
10
285.6616985
20
-131.4633653
11
302.1390858
21
-132.3269086
0
LINE
8
0
10
302.1390858
20
-132.3269086
11
303.0026291
21
-115.8495213
0
LINE
8
0
10
303.0026291
20
-115.8495213
11
286.5252418
21
-114.985978
0
LINE
8
0
10
286.5252418
20
-114.985978
11
285.6616985
21
-131.4633653
0
LINE
8
0
10
286.5514098
20
-114.4866632
11
303.0287971
21
-115.3502065
0
LINE
8
0
10
303.0287971
20
-115.3502065
11
303.8923404
21
-98.8728192
0
LINE
8
0
10
303.8923404
20
-98.8728192
11
287.4149531
21
-98.0092759
0
LINE
8
0
10
287.4149531
20
-98.0092759
11
286.5514098
21
-114.4866632
0
LINE
8
0
10
287.4411211
20
-97.5099611
11
303.9185084
21
-98.3735044
0
LINE
8
0
10
303.9185084
20
-98.3735044
11
304.7820517
21
-81.8961171
0
LINE
8
0
10
304.7820517
20
-81.8961171
11
288.3046644
21
-81.0325738
0
LINE
8
0
10
288.3046644
20
-81.0325738
11
287.4411211
21
-97.5099611
0
LINE
8
0
10
267.9544885
20
-134.8241425
11
284.4519754
21
-135.1121072
0
LINE
8
0
10
284.4519754
20
-135.1121072
11
284.7399401
21
-118.6146203
0
LINE
8
0
10
284.7399401
20
-118.6146203
11
268.2424532
21
-118.3266556
0
LINE
8
0
10
268.2424532
20
-118.3266556
11
267.9544885
21
-134.8241425
0
LINE
8
0
10
268.2511794
20
-117.8267317
11
284.7486663
21
-118.1146964
0
LINE
8
0
10
284.7486663
20
-118.1146964
11
285.036631
21
-101.6172095
0
LINE
8
0
10
285.036631
20
-101.6172095
11
268.5391441
21
-101.3292448
0
LINE
8
0
10
268.5391441
20
-101.3292448
11
268.2511794
21
-117.8267317
0
LINE
8
0
10
268.5478703
20
-100.8293208
11
285.0453572
21
-101.1172855
0
LINE
8
0
10
285.0453572
20
-101.1172855
11
285.3333219
21
-84.6197986
0
LINE
8
0
10
285.3333219
20
-84.6197986
11
268.835835
21
-84.3318339
0
LINE
8
0
10
268.835835
20
-84.3318339
11
268.5478703
21
-100.8293208
0
LINE
8
0
10
250.4649899
20
-136.6619143
11
266.9649899
21
-136.6619143
0
LINE
8
0
10
266.9649899
20
-136.6619143
11
266.9649899
21
-120.1619143
0
LINE
8
0
10
266.9649899
20
-120.1619143
11
250.4649899
21
-120.1619143
0
LINE
8
0
10
250.4649899
20
-120.1619143
11
250.4649899
21
-136.6619143
0
LINE
8
0
10
250.4649899
20
-119.6619143
11
266.9649899
21
-119.6619143
0
LINE
8
0
10
266.9649899
20
-119.6619143
11
266.9649899
21
-103.1619143
0
LINE
8
0
10
266.9649899
20
-103.1619143
11
250.4649899
21
-103.1619143
0
LINE
8
0
10
250.4649899
20
-103.1619143
11
250.4649899
21
-119.6619143
0
LINE
8
0
10
250.4649899
20
-102.6619144
11
266.9649899
21
-102.6619144
0
LINE
8
0
10
266.9649899
20
-102.6619144
11
266.9649899
21
-86.1619144
0
LINE
8
0
10
266.9649899
20
-86.1619144
11
250.4649899
21
-86.1619144
0
LINE
8
0
10
250.4649899
20
-86.1619144
11
250.4649899
21
-102.6619144
0
LINE
8
0
10
255.381359
20
-158.5160595
11
271.3191351
21
-154.2455452
0
LINE
8
0
10
271.3191351
20
-154.2455452
11
267.0486208
21
-138.3077691
0
LINE
8
0
10
267.0486208
20
-138.3077691
11
251.1108447
21
-142.5782834
0
LINE
8
0
10
251.1108447
20
-142.5782834
11
255.381359
21
-158.5160595
0
LINE
8
0
10
240.176465
20
-167.3135984
11
254.4658842
21
-159.0635984
0
LINE
8
0
10
254.4658842
20
-159.0635984
11
246.2158842
21
-144.7741792
0
LINE
8
0
10
246.2158842
20
-144.7741792
11
231.926465
21
-153.0241792
0
LINE
8
0
10
231.926465
20
-153.0241792
11
240.176465
21
-167.3135984
0
ENDSEC
0
EOF