0
SECTION
2
HEADER
9
$INSUNITS
70
4
0
ENDSEC
0
SECTION
2
TABLES
0
TABLE
2
LTYPE
0
LTYPE
72
65
70
64
2
CONTINUOUS
3
______
73
0
40
0
0
ENDTAB
0
TABLE
2
LAYER
0
ENDTAB
0
ENDSEC
0
SECTION
2
ENTITIES
0
LINE
8
0
10
205.2747676
20
-151.4085073
11
196.8182666
21
-166.0405528
0
LINE
8
0
10
193.0479465
20
-167.3006061
11
144.4025398
21
-146.63692
0
LINE
8
0
10
142.7086834
20
-146.4437062
11
102.2223158
21
-153.5825452
0
LINE
8
0
10
98.746948
20
-151.1490664
11
90.6115626
21
-105.0110033
0
LINE
8
0
10
92.1234983
20
-101.8596159
11
111.2710422
21
-91.359448
0
LINE
8
0
10
111.3076029
20
-91.3393987
11
129.2210812
21
-81.5159702
0
LINE
8
0
10
130.5065608
20
-81.1505244
11
147.5150457
21
-80.2591475
0
LINE
8
0
10
148.0775565
20
-80.2825678
11
185.4755428
21
-85.3843827
0
LINE
8
0
10
185.8810456
20
-85.4119144
11
202.6773593
21
-85.4119144
0
LINE
8
0
10
205.6773593
20
-88.4119144
11
205.6773593
21
-149.9073512
0
ARC
8
0
10
194.2208583
20
-164.5393966
40
3
50
246.9850943
51
329.9744995
0
ARC
8
0
10
143.229628
20
-149.3981295
40
3
50
66.9850943
51
100.0000008
0
ARC
8
0
10
101.7013713
20
-150.6281219
40
3
50
190.0000008
51
231.4096224
0
ARC
8
0
10
101.7013713
20
-150.6281219
40
3
50
238.5903783
51
280.0000008
0
ARC
8
0
10
93.5659858
20
-104.4900588
40
3
50
118.7395718
51
190.0000008
0
ARC
8
0
10
130.6635688
20
-84.146413
40
3
50
93.0000026
51
118.7395718
0
ARC
8
0
10
147.6720537
20
-83.2550361
40
3
50
82.2316889
51
93.0000026
0
ARC
8
0
10
185.8810456
20
-82.4119144
40
3
50
262.2316889
51
270
0
ARC
8
0
10
202.6773593
20
-88.4119144
40
3
50
0
51
90
0
ARC
8
0
10
202.6773593
20
-149.9073512
40
3
50
329.9744995
51
0
0
LINE
8
0
10
100.1379124
20
-153.1885118
11
116.1255901
21
-150.3694528
0
LINE
8
0
10
116.1255901
20
-150.3694528
11
113.2603952
21
-134.1201249
0
LINE
8
0
10
113.2603952
20
-134.1201249
11
97.0110673
21
-136.9853198
0
LINE
8
0
10
97.0110673
20
-136.9853198
11
99.8301263
21
-152.9729976
0
LINE
8
0
10
96.9242431
20
-136.4929159
11
113.173571
21
-133.627721
0
LINE
8
0
10
113.173571
20
-133.627721
11
110.3083761
21
-117.3783931
0
LINE
8
0
10
110.3083761
20
-117.3783931
11
94.0590482
21
-120.243588
0
LINE
8
0
10
94.0590482
20
-120.243588
11
96.9242431
21
-136.4929159
0
LINE
8
0
10
93.9722241
20
-119.7511841
11
110.221552
21
-116.8859892
0
LINE
8
0
10
110.221552
20
-116.8859892
11
107.3563571
21
-100.6366613
0
LINE
8
0
10
107.3563571
20
-100.6366613
11
91.1070292
21
-103.5018562
0
LINE
8
0
10
91.1070292
20
-103.5018562
11
93.9722241
21
-119.7511841
0
LINE
8
0
10
116.5480448
20
-141.5667744
11
132.9576561
21
-139.8420547
0
LINE
8
0
10
132.9576561
20
-139.8420547
11
131.2329364
21
-123.4324434
0
LINE
8
0
10
131.2329364
20
-123.4324434
11
114.8233251
21
-125.1571631
0
LINE
8
0
10
114.8233251
20
-125.1571631
11
116.5480448
21
-141.5667744
0
LINE
8
0
10
114.7710609
20
-124.6599021
11
131.1806722
21
-122.9351824
0
LINE
8
0
10
131.1806722
20
-122.9351824
11
129.4559525
21
-106.5255711
0
LINE
8
0
10
129.4559525
20
-106.5255711
11
113.0463412
21
-108.2502908
0
LINE
8
0
10
113.0463412
20
-108.2502908
11
114.7710609
21
-124.6599021
0
LINE
8
0
10
112.9940771
20
-107.7530298
11
129.4036884
21
-106.0283101
0
LINE
8
0
10
129.4036884
20
-106.0283101
11
127.6789687
21
-89.6186988
0
LINE
8
0
10
127.6789687
20
-89.6186988
11
111.3076029
21
-91.3393987
0
LINE
8
0
10
111.2710422
20
-91.359448
11
112.9940771
21
-107.7530298
0
LINE
8
0
10
133.2532634
20
-132.3269086
11
149.7306507
21
-131.4633653
0
LINE
8
0
10
149.7306507
20
-131.4633653
11
148.8671074
21
-114.985978
0
LINE
8
0
10
148.8671074
20
-114.985978
11
132.3897201
21
-115.8495213
0
LINE
8
0
10
132.3897201
20
-115.8495213
11
133.2532634
21
-132.3269086
0
LINE
8
0
10
132.3635521
20
-115.3502065
11
148.8409394
21
-114.4866632
0
LINE
8
0
10
148.8409394
20
-114.4866632
11
147.9773961
21
-98.0092759
0
LINE
8
0
10
147.9773961
20
-98.0092759
11
131.5000088
21
-98.8728192
0
LINE
8
0
10
131.5000088
20
-98.8728192
11
132.3635521
21
-115.3502065
0
LINE
8
0
10
131.4738408
20
-98.3735044
11
147.9512281
21
-97.5099611
0
LINE
8
0
10
147.9512281
20
-97.5099611
11
147.0876848
21
-81.0325738
0
LINE
8
0
10
147.0876848
20
-81.0325738
11
130.6102975
21
-81.8961171
0
LINE
8
0
10
130.6102975
20
-81.8961171
11
131.4738408
21
-98.3735044
0
LINE
8
0
10
150.9403738
20
-135.1121072
11
167.4378607
21
-134.8241425
0
LINE
8
0
10
167.4378607
20
-134.8241425
11
167.149896
21
-118.3266556
0
LINE
8
0
10
167.149896
20
-118.3266556
11
150.6524091
21
-118.6146203
0
LINE
8
0
10
150.6524091
20
-118.6146203
11
150.9403738
21
-135.1121072
0
LINE
8
0
10
150.6436829
20
-118.1146964
11
167.1411698
21
-117.8267317
0
LINE
8
0
10
167.1411698
20
-117.8267317
11
166.8532051
21
-101.3292448
0
LINE
8
0
10
166.8532051
20
-101.3292448
11
150.3557182
21
-101.6172095
0
LINE
8
0
10
150.3557182
20
-101.6172095
11
150.6436829
21
-118.1146964
0
LINE
8
0
10
150.346992
20
-101.1172855
11
166.8444789
21
-100.8293208
0
LINE
8
0
10
166.8444789
20
-100.8293208
11
166.5565142
21
-84.3318339
0
LINE
8
0
10
166.5565142
20
-84.3318339
11
150.0590273
21
-84.6197986
0
LINE
8
0
10
150.0590273
20
-84.6197986
11
150.346992
21
-101.1172855
0
LINE
8
0
10
168.4273593
20
-136.6619143
11
184.9273593
21
-136.6619143
0
LINE
8
0
10
184.9273593
20
-136.6619143
11
184.9273593
21
-120.1619143
0
LINE
8
0
10
184.9273593
20
-120.1619143
11
168.4273593
21
-120.1619143
0
LINE
8
0
10
168.4273593
20
-120.1619143
11
168.4273593
21
-136.6619143
0
LINE
8
0
10
168.4273593
20
-119.6619143
11
184.9273593
21
-119.6619143
0
LINE
8
0
10
184.9273593
20
-119.6619143
11
184.9273593
21
-103.1619143
0
LINE
8
0
10
184.9273593
20
-103.1619143
11
168.4273593
21
-103.1619143
0
LINE
8
0
10
168.4273593
20
-103.1619143
11
168.4273593
21
-119.6619143
0
LINE
8
0
10
168.4273593
20
-102.6619144
11
184.9273593
21
-102.6619144
0
LINE
8
0
10
184.9273593
20
-102.6619144
11
184.9273593
21
-86.1619144
0
LINE
8
0
10
184.9273593
20
-86.1619144
11
168.4273593
21
-86.1619144
0
LINE
8
0
10
168.4273593
20
-86.1619144
11
168.4273593
21
-102.6619144
0
LINE
8
0
10
164.0732141
20
-154.2455452
11
180.0109902
21
-158.5160595
0
LINE
8
0
10
180.0109902
20
-158.5160595
11
184.2815045
21
-142.5782834
0
LINE
8
0
10
184.2815045
20
-142.5782834
11
168.3437284
21
-138.3077691
0
LINE
8
0
10
168.3437284
20
-138.3077691
11
164.0732141
21
-154.2455452
0
LINE
8
0
10
180.926465
20
-159.0635984
11
195.2158842
21
-167.3135984
0
LINE
8
0
10
195.2158842
20
-167.3135984
11
203.4658842
21
-153.0241792
0
LINE
8
0
10
203.4658842
20
-153.0241792
11
189.176465
21
-144.7741792
0
LINE
8
0
10
189.176465
20
-144.7741792
11
180.926465
21
-159.0635984
0
ENDSEC
0
EOF