0
SECTION
2
HEADER
9
$INSUNITS
70
4
0
ENDSEC
0
SECTION
2
TABLES
0
TABLE
2
LTYPE
0
LTYPE
72
65
70
64
2
CONTINUOUS
3
______
73
0
40
0
0
ENDTAB
0
TABLE
2
LAYER
0
ENDTAB
0
ENDSEC
0
SECTION
2
ENTITIES
0
LINE
8
0
10
-5.5361314
20
-9.10913
11
7.8324876
21
-7.2302931
0
LINE
8
0
10
9.5346775
20
-4.9714108
11
7.7950137
21
7.4069401
0
LINE
8
0
10
5.5361314
20
9.10913
11
-7.8324876
21
7.2302931
0
LINE
8
0
10
-9.5346775
20
4.9714108
11
-7.7950137
21
-7.4069401
0
LINE
8
0
10
-7.9020741
20
7.7254272
11
5.4665449
21
9.6042641
0
LINE
8
0
10
7.1687348
20
11.8631464
11
5.429071
21
24.2414973
0
LINE
8
0
10
3.1701887
20
25.9436872
11
-10.1984303
21
24.0648503
0
LINE
8
0
10
-11.9006202
20
21.805968
11
-10.1609564
21
9.4276171
0
LINE
8
0
10
-10.2680168
20
24.5599844
11
3.1006022
21
26.4388213
0
LINE
8
0
10
4.8027921
20
28.6977036
11
3.0631283
21
41.0760545
0
LINE
8
0
10
0.804246
20
42.7782444
11
-12.564373
21
40.8994075
0
LINE
8
0
10
-14.2665629
20
38.6405252
11
-12.5268991
21
26.2621743
0
LINE
8
0
10
10.6781312
20
4.9035243
11
24.1596299
21
5.6100598
0
LINE
8
0
10
26.052217
20
7.7119909
11
25.3980175
21
20.19486
0
LINE
8
0
10
23.2960864
20
22.0874471
11
9.8145877
21
21.3809116
0
LINE
8
0
10
7.9220006
20
19.2789805
11
8.5762001
21
6.7961114
0
LINE
8
0
10
9.7884199
20
21.8802264
11
23.2699186
21
22.5867619
0
LINE
8
0
10
25.1625057
20
24.688693
11
24.5083062
21
37.1715621
0
LINE
8
0
10
22.4063751
20
39.0641492
11
8.9248764
21
38.3576137
0
LINE
8
0
10
7.0322893
20
36.2556826
11
7.6864888
21
23.7728135
0
LINE
8
0
10
8.8987086
20
38.8569285
11
22.3802073
21
39.563464
0
LINE
8
0
10
24.2727944
20
41.6653951
11
23.6185949
21
54.1482642
0
LINE
8
0
10
21.5166638
20
56.0408513
11
8.0351651
21
55.3343158
0
LINE
8
0
10
6.142578
20
53.2323847
11
6.7967775
21
40.7495156
0
LINE
8
0
10
28.2978764
20
12.2002445
11
41.7978764
21
12.2002445
0
LINE
8
0
10
43.7978764
20
14.2002445
11
43.7978764
21
26.7002445
0
LINE
8
0
10
41.7978764
20
28.7002445
11
28.2978764
21
28.7002445
0
LINE
8
0
10
26.2978764
20
26.7002445
11
26.2978764
21
14.2002445
0
LINE
8
0
10
28.2978764
20
29.2002445
11
41.7978764
21
29.2002445
0
LINE
8
0
10
43.7978764
20
31.2002445
11
43.7978764
21
43.7002445
0
LINE
8
0
10
41.7978764
20
45.7002445
11
28.2978764
21
45.7002445
0
LINE
8
0
10
26.2978764
20
43.7002445
11
26.2978764
21
31.2002445
0
LINE
8
0
10
28.2978764
20
46.2002445
11
41.7978764
21
46.2002445
0
LINE
8
0
10
43.7978764
20
48.2002445
11
43.7978764
21
60.7002445
0
LINE
8
0
10
41.7978764
20
62.7002445
11
28.2978764
21
62.7002445
0
LINE
8
0
10
26.2978764
20
60.7002445
11
26.2978764
21
48.2002445
0
LINE
8
0
10
46.2978765
20
7.2002446
11
59.7978765
21
7.2002446
0
LINE
8
0
10
61.7978765
20
9.2002446
11
61.7978765
21
21.7002446
0
LINE
8
0
10
59.7978765
20
23.7002446
11
46.2978765
21
23.7002446
0
LINE
8
0
10
44.2978765
20
21.7002446
11
44.2978765
21
9.2002446
0
LINE
8
0
10
46.2978765
20
24.2002446
11
59.7978765
21
24.2002446
0
LINE
8
0
10
61.7978765
20
26.2002446
11
61.7978765
21
38.7002446
0
LINE
8
0
10
59.7978765
20
40.7002446
11
46.2978765
21
40.7002446
0
LINE
8
0
10
44.2978765
20
38.7002446
11
44.2978765
21
26.2002446
0
LINE
8
0
10
46.2978765
20
41.2002446
11
59.7978765
21
41.2002446
0
LINE
8
0
10
61.7978765
20
43.2002446
11
61.7978765
21
55.7002446
0
LINE
8
0
10
59.7978765
20
57.7002446
11
46.2978765
21
57.7002446
0
LINE
8
0
10
44.2978765
20
55.7002446
11
44.2978765
21
43.2002446
0
LINE
8
0
10
64.2978765
20
5.2002446
11
77.7978765
21
5.2002446
0
LINE
8
0
10
79.7978765
20
7.2002446
11
79.7978765
21
19.7002446
0
LINE
8
0
10
77.7978765
20
21.7002446
11
64.2978765
21
21.7002446
0
LINE
8
0
10
62.2978765
20
19.7002446
11
62.2978765
21
7.2002446
0
LINE
8
0
10
64.2978765
20
22.2002446
11
77.7978765
21
22.2002446
0
LINE
8
0
10
79.7978765
20
24.2002446
11
79.7978765
21
36.7002446
0
LINE
8
0
10
77.7978765
20
38.7002446
11
64.2978765
21
38.7002446
0
LINE
8
0
10
62.2978765
20
36.7002446
11
62.2978765
21
24.2002446
0
LINE
8
0
10
64.2978765
20
39.2002446
11
77.7978765
21
39.2002446
0
LINE
8
0
10
79.7978765
20
41.2002446
11
79.7978765
21
53.7002446
0
LINE
8
0
10
77.7978765
20
55.7002446
11
64.2978765
21
55.7002446
0
LINE
8
0
10
62.2978765
20
53.7002446
11
62.2978765
21
41.2002446
0
LINE
8
0
10
59.8926202
20
-12.7716149
11
72.9326188
21
-16.265672
0
LINE
8
0
10
75.3821085
20
-14.8514583
11
78.6173465
21
-2.7773856
0
LINE
8
0
10
77.2031328
20
-0.3278959
11
64.1631342
21
3.1661612
0
LINE
8
0
10
61.7136445
20
1.7519475
11
58.4784065
21
-10.3221252
0
LINE
8
0
10
78.5278719
20
-18.4690777
11
90.2192149
21
-25.2190777
0
LINE
8
0
10
92.9512657
20
-24.4870269
11
99.2012657
21
-13.6617093
0
LINE
8
0
10
98.4692149
20
-10.9296585
11
86.7778719
21
-4.1796585
0
LINE
8
0
10
84.0458211
20
-4.9117093
11
77.7958211
21
-15.7370269
0
ARC
8
0
10
91.2192149
20
-23.4870269
40
2
50
239.9999999
51
329.9999999
0
ARC
8
0
10
97.4692149
20
-12.6617093
40
2
50
329.9999999
51
59.9999999
0
ARC
8
0
10
85.7778719
20
-5.9117093
40
2
50
59.9999999
51
149.9999999
0
ARC
8
0
10
79.5278719
20
-16.7370269
40
2
50
149.9999999
51
239.9999999
0
ARC
8
0
10
24.0549579
20
7.6073189
40
2
50
273.0000026
51
3.0000026
0
ARC
8
0
10
23.4007584
20
20.090188
40
2
50
3.0000026
51
93.0000026
0
ARC
8
0
10
9.9192597
20
19.3836525
40
2
50
93.0000026
51
183.0000026
0
ARC
8
0
10
10.5734592
20
6.9007834
40
2
50
183.0000026
51
273.0000026
0
ARC
8
0
10
23.1652466
20
24.584021
40
2
50
273.0000026
51
3.0000026
0
ARC
8
0
10
22.5110471
20
37.0668901
40
2
50
3.0000026
51
93.0000026
0
ARC
8
0
10
9.0295484
20
36.3603546
40
2
50
93.0000026
51
183.0000026
0
ARC
8
0
10
9.6837479
20
23.8774855
40
2
50
183.0000026
51
273.0000026
0
ARC
8
0
10
22.2755353
20
41.5607231
40
2
50
273.0000026
51
3.0000026
0
ARC
8
0
10
21.6213358
20
54.0435922
40
2
50
3.0000026
51
93.0000026
0
ARC
8
0
10
8.1398371
20
53.3370567
40
2
50
93.0000026
51
183.0000026
0
ARC
8
0
10
8.7940366
20
40.8541876
40
2
50
183.0000026
51
273.0000026
0
ARC
8
0
10
41.7978764
20
14.2002445
40
2
50
270
51
0
0
ARC
8
0
10
41.7978764
20
26.7002445
40
2
50
0
51
90
0
ARC
8
0
10
28.2978764
20
26.7002445
40
2
50
90
51
180
0
ARC
8
0
10
28.2978764
20
14.2002445
40
2
50
180
51
270
0
ARC
8
0
10
41.7978764
20
31.2002445
40
2
50
270
51
0
0
ARC
8
0
10
41.7978764
20
43.7002445
40
2
50
0
51
90
0
ARC
8
0
10
28.2978764
20
43.7002445
40
2
50
90
51
180
0
ARC
8
0
10
28.2978764
20
31.2002445
40
2
50
180
51
270
0
ARC
8
0
10
41.7978764
20
48.2002445
40
2
50
270
51
0
0
ARC
8
0
10
41.7978764
20
60.7002445
40
2
50
0
51
90
0
ARC
8
0
10
28.2978764
20
60.7002445
40
2
50
90
51
180
0
ARC
8
0
10
28.2978764
20
48.2002445
40
2
50
180
51
270
0
ARC
8
0
10
59.7978765
20
9.2002446
40
2
50
270
51
0
0
ARC
8
0
10
59.7978765
20
21.7002446
40
2
50
0
51
90
0
ARC
8
0
10
46.2978765
20
21.7002446
40
2
50
90
51
180
0
ARC
8
0
10
46.2978765
20
9.2002446
40
2
50
180
51
270
0
ARC
8
0
10
59.7978765
20
26.2002446
40
2
50
270
51
0
0
ARC
8
0
10
59.7978765
20
38.7002446
40
2
50
0
51
90
0
ARC
8
0
10
46.2978765
20
38.7002446
40
2
50
90
51
180
0
ARC
8
0
10
46.2978765
20
26.2002446
40
2
50
180
51
270
0
ARC
8
0
10
59.7978765
20
43.2002446
40
2
50
270
51
0
0
ARC
8
0
10
59.7978765
20
55.7002446
40
2
50
0
51
90
0
ARC
8
0
10
46.2978765
20
55.7002446
40
2
50
90
51
180
0
ARC
8
0
10
46.2978765
20
43.2002446
40
2
50
180
51
270
0
ARC
8
0
10
77.7978765
20
7.2002446
40
2
50
270
51
0
0
ARC
8
0
10
77.7978765
20
19.7002446
40
2
50
0
51
90
0
ARC
8
0
10
64.2978765
20
19.7002446
40
2
50
90
51
180
0
ARC
8
0
10
64.2978765
20
7.2002446
40
2
50
180
51
270
0
ARC
8
0
10
77.7978765
20
24.2002446
40
2
50
270
51
0
0
ARC
8
0
10
77.7978765
20
36.7002446
40
2
50
0
51
90
0
ARC
8
0
10
64.2978765
20
36.7002446
40
2
50
90
51
180
0
ARC
8
0
10
64.2978765
20
24.2002446
40
2
50
180
51
270
0
ARC
8
0
10
77.7978765
20
41.2002446
40
2
50
270
51
0
0
ARC
8
0
10
77.7978765
20
53.7002446
40
2
50
0
51
90
0
ARC
8
0
10
64.2978765
20
53.7002446
40
2
50
90
51
180
0
ARC
8
0
10
64.2978765
20
41.2002446
40
2
50
180
51
270
0
ARC
8
0
10
73.4502568
20
-14.3338203
40
2
50
255.0000021
51
345.0000021
0
ARC
8
0
10
76.6854948
20
-2.2597476
40
2
50
345.0000021
51
75.0000021
0
ARC
8
0
10
63.6454962
20
1.2343095
40
2
50
75.0000021
51
165.0000021
0
ARC
8
0
10
60.4102582
20
-10.8397632
40
2
50
165.0000021
51
255.0000021
0
ARC
8
0
10
7.5541414
20
-5.249757
40
2
50
277.9999997
51
7.9999997
0
ARC
8
0
10
5.8144776
20
7.1285939
40
2
50
7.9999997
51
97.9999997
0
ARC
8
0
10
-7.5541414
20
5.249757
40
2
50
97.9999997
51
187.9999997
0
ARC
8
0
10
-5.8144776
20
-7.1285939
40
2
50
187.9999997
51
277.9999997
0
ARC
8
0
10
5.1881987
20
11.5848002
40
2
50
277.9999997
51
7.9999997
0
ARC
8
0
10
3.4485349
20
23.9631511
40
2
50
7.9999997
51
97.9999997
0
ARC
8
0
10
-9.9200841
20
22.0843142
40
2
50
97.9999997
51
187.9999997
0
ARC
8
0
10
-8.1804203
20
9.7059633
40
2
50
187.9999997
51
277.9999997
0
ARC
8
0
10
2.822256
20
28.4193574
40
2
50
277.9999997
51
7.9999997
0
ARC
8
0
10
1.0825922
20
40.7977083
40
2
50
7.9999997
51
97.9999997
0
ARC
8
0
10
-12.2860268
20
38.9188714
40
2
50
97.9999997
51
187.9999997
0
ARC
8
0
10
-10.546363
20
26.5405205
40
2
50
187.9999997
51
277.9999997
0
ENDSEC
0
EOF