0
SECTION
2
HEADER
9
$INSUNITS
70
4
0
ENDSEC
0
SECTION
2
TABLES
0
TABLE
2
LTYPE
0
LTYPE
72
65
70
64
2
CONTINUOUS
3
______
73
0
40
0
0
ENDTAB
0
TABLE
2
LAYER
0
ENDTAB
0
ENDSEC
0
SECTION
2
ENTITIES
0
LINE
8
0
10
52.4833325
20
-169.3874762
11
69.8130237
21
-166.9519469
0
LINE
8
0
10
69.8130237
20
-166.9519469
11
67.5166675
21
-150.6125238
0
LINE
8
0
10
67.5166675
20
-150.6125238
11
50.1869763
21
-153.0480531
0
LINE
8
0
10
50.1869763
20
-153.0480531
11
52.4833325
21
-169.3874762
0
LINE
8
0
10
50.1173898
20
-152.552919
11
67.447081
21
-150.1173897
0
LINE
8
0
10
67.447081
20
-150.1173897
11
65.1507248
21
-133.7779666
0
LINE
8
0
10
65.1507248
20
-133.7779666
11
47.8210336
21
-136.2134959
0
LINE
8
0
10
47.8210336
20
-136.2134959
11
50.1173898
21
-152.552919
0
LINE
8
0
10
47.7514471
20
-135.7183618
11
65.0811383
21
-133.2828325
0
LINE
8
0
10
65.0811383
20
-133.2828325
11
62.7847821
21
-116.9434094
0
LINE
8
0
10
62.7847821
20
-116.9434094
11
45.4550909
21
-119.3789387
0
LINE
8
0
10
45.4550909
20
-119.3789387
11
47.7514471
21
-135.7183618
0
LINE
8
0
10
68.680872
20
-155.2011476
11
86.1568889
21
-154.2852683
0
LINE
8
0
10
86.1568889
20
-154.2852683
11
85.2933456
21
-137.807881
0
LINE
8
0
10
85.2933456
20
-137.807881
11
67.8173287
21
-138.7237603
0
LINE
8
0
10
67.8173287
20
-138.7237603
11
68.680872
21
-155.2011476
0
LINE
8
0
10
67.7911607
20
-138.2244455
11
85.2671776
21
-137.3085662
0
LINE
8
0
10
85.2671776
20
-137.3085662
11
84.4036343
21
-120.8311789
0
LINE
8
0
10
84.4036343
20
-120.8311789
11
66.9276174
21
-121.7470582
0
LINE
8
0
10
66.9276174
20
-121.7470582
11
67.7911607
21
-138.2244455
0
LINE
8
0
10
66.9014494
20
-121.2477434
11
84.3774663
21
-120.3318641
0
LINE
8
0
10
84.3774663
20
-120.3318641
11
83.513923
21
-103.8544768
0
LINE
8
0
10
83.513923
20
-103.8544768
11
66.0379061
21
-104.7703561
0
LINE
8
0
10
66.0379061
20
-104.7703561
11
66.9014494
21
-121.2477434
0
LINE
8
0
10
86.2978764
20
-147.7997555
11
103.7978764
21
-147.7997555
0
LINE
8
0
10
103.7978764
20
-147.7997555
11
103.7978764
21
-131.2997555
0
LINE
8
0
10
103.7978764
20
-131.2997555
11
86.2978764
21
-131.2997555
0
LINE
8
0
10
86.2978764
20
-131.2997555
11
86.2978764
21
-147.7997555
0
LINE
8
0
10
86.2978764
20
-130.7997555
11
103.7978764
21
-130.7997555
0
LINE
8
0
10
103.7978764
20
-130.7997555
11
103.7978764
21
-114.2997555
0
LINE
8
0
10
103.7978764
20
-114.2997555
11
86.2978764
21
-114.2997555
0
LINE
8
0
10
86.2978764
20
-114.2997555
11
86.2978764
21
-130.7997555
0
LINE
8
0
10
86.2978764
20
-113.7997555
11
103.7978764
21
-113.7997555
0
LINE
8
0
10
103.7978764
20
-113.7997555
11
103.7978764
21
-97.2997555
0
LINE
8
0
10
103.7978764
20
-97.2997555
11
86.2978764
21
-97.2997555
0
LINE
8
0
10
86.2978764
20
-97.2997555
11
86.2978764
21
-113.7997555
0
LINE
8
0
10
104.2978765
20
-152.7997554
11
121.7978765
21
-152.7997554
0
LINE
8
0
10
121.7978765
20
-152.7997554
11
121.7978765
21
-136.2997554
0
LINE
8
0
10
121.7978765
20
-136.2997554
11
104.2978765
21
-136.2997554
0
LINE
8
0
10
104.2978765
20
-136.2997554
11
104.2978765
21
-152.7997554
0
LINE
8
0
10
104.2978765
20
-135.7997554
11
121.7978765
21
-135.7997554
0
LINE
8
0
10
121.7978765
20
-135.7997554
11
121.7978765
21
-119.2997554
0
LINE
8
0
10
121.7978765
20
-119.2997554
11
104.2978765
21
-119.2997554
0
LINE
8
0
10
104.2978765
20
-119.2997554
11
104.2978765
21
-135.7997554
0
LINE
8
0
10
104.2978765
20
-118.7997554
11
121.7978765
21
-118.7997554
0
LINE
8
0
10
121.7978765
20
-118.7997554
11
121.7978765
21
-102.2997554
0
LINE
8
0
10
121.7978765
20
-102.2997554
11
104.2978765
21
-102.2997554
0
LINE
8
0
10
104.2978765
20
-102.2997554
11
104.2978765
21
-118.7997554
0
LINE
8
0
10
122.2978765
20
-154.7997554
11
139.7978765
21
-154.7997554
0
LINE
8
0
10
139.7978765
20
-154.7997554
11
139.7978765
21
-138.2997554
0
LINE
8
0
10
139.7978765
20
-138.2997554
11
122.2978765
21
-138.2997554
0
LINE
8
0
10
122.2978765
20
-138.2997554
11
122.2978765
21
-154.7997554
0
LINE
8
0
10
122.2978765
20
-137.7997554
11
139.7978765
21
-137.7997554
0
LINE
8
0
10
139.7978765
20
-137.7997554
11
139.7978765
21
-121.2997554
0
LINE
8
0
10
139.7978765
20
-121.2997554
11
122.2978765
21
-121.2997554
0
LINE
8
0
10
122.2978765
20
-121.2997554
11
122.2978765
21
-137.7997554
0
LINE
8
0
10
122.2978765
20
-120.7997554
11
139.7978765
21
-120.7997554
0
LINE
8
0
10
139.7978765
20
-120.7997554
11
139.7978765
21
-104.2997554
0
LINE
8
0
10
139.7978765
20
-104.2997554
11
122.2978765
21
-104.2997554
0
LINE
8
0
10
122.2978765
20
-104.2997554
11
122.2978765
21
-120.7997554
0
LINE
8
0
10
117.9607684
20
-172.2539768
11
134.8644704
21
-176.7833101
0
LINE
8
0
10
134.8644704
20
-176.7833101
11
139.1349846
21
-160.845534
0
LINE
8
0
10
139.1349846
20
-160.845534
11
122.2312826
21
-156.3162007
0
LINE
8
0
10
122.2312826
20
-156.3162007
11
117.9607684
21
-172.2539768
0
LINE
8
0
10
136.7958211
20
-177.4690777
11
151.9512657
21
-186.2190777
0
LINE
8
0
10
151.9512657
20
-186.2190777
11
160.2012657
21
-171.9296585
0
LINE
8
0
10
160.2012657
20
-171.9296585
11
145.0458211
21
-163.1796585
0
LINE
8
0
10
145.0458211
20
-163.1796585
11
136.7958211
21
-177.4690777
0
ENDSEC
0
EOF