0
SECTION
2
HEADER
9
$INSUNITS
70
4
0
ENDSEC
0
SECTION
2
TABLES
0
TABLE
2
LTYPE
0
LTYPE
72
65
70
64
2
CONTINUOUS
3
______
73
0
40
0
0
ENDTAB
0
TABLE
2
LAYER
0
ENDTAB
0
ENDSEC
0
SECTION
2
ENTITIES
0
LINE
8
0
10
320.9541634
20
-148.5175843
11
337.6418255
21
-151.7613372
0
LINE
8
0
10
337.6418255
20
-151.7613372
11
347.3730842
21
-101.6983509
0
LINE
8
0
10
320.9541634
20
-148.5175843
11
330.6854221
21
-98.454598
0
LINE
8
0
10
347.3730842
20
-101.6983509
11
330.6854221
21
-98.454598
0
LINE
8
0
10
304.4534983
20
-137.8821855
11
321.3603705
21
-139.6591693
0
LINE
8
0
10
321.3603705
20
-139.6591693
11
323.1373543
21
-122.7522971
0
LINE
8
0
10
306.2304821
20
-120.9753133
11
304.4534983
21
-137.8821855
0
LINE
8
0
10
323.1373544
20
-122.7522971
11
324.9143382
21
-105.8454249
0
LINE
8
0
10
308.007466
20
-104.0684411
11
306.2304822
21
-120.9753133
0
LINE
8
0
10
324.9143384
20
-105.8454248
11
326.6913222
21
-88.9385526
0
LINE
8
0
10
326.6913222
20
-88.9385526
11
309.78445
21
-87.1615688
0
LINE
8
0
10
309.78445
20
-87.1615688
11
308.0074662
21
-104.068441
0
LINE
8
0
10
287.6925247
20
-129.5175711
11
304.6692268
21
-130.4072824
0
LINE
8
0
10
304.6692268
20
-130.4072824
11
307.3383607
21
-79.4771761
0
LINE
8
0
10
287.6925247
20
-129.5175711
11
290.3616586
21
-78.5874648
0
LINE
8
0
10
307.3383607
20
-79.4771761
11
290.3616586
21
-78.5874648
0
LINE
8
0
10
269.993731
20
-132.8873739
11
286.9911419
21
-133.1840648
0
LINE
8
0
10
286.9911419
20
-133.1840648
11
287.5845237
21
-99.1892431
0
LINE
8
0
10
269.993731
20
-132.8873739
11
270.5871128
21
-98.8925522
0
LINE
8
0
10
287.5845238
20
-99.1892432
11
287.8812147
21
-82.1918323
0
LINE
8
0
10
287.8812147
20
-82.1918323
11
270.8838038
21
-81.8951414
0
LINE
8
0
10
270.8838038
20
-81.8951414
11
270.5871129
21
-98.8925523
0
LINE
8
0
10
252.5085577
20
-134.7295469
11
269.5085577
21
-134.7295469
0
LINE
8
0
10
269.5085577
20
-134.7295469
11
269.5085577
21
-83.7295469
0
LINE
8
0
10
252.5085577
20
-134.7295469
11
252.5085577
21
-83.7295469
0
LINE
8
0
10
269.5085577
20
-83.7295469
11
252.5085577
21
-83.7295469
0
LINE
8
0
10
257.4981501
20
-156.6398783
11
273.9188891
21
-152.2399545
0
LINE
8
0
10
273.9188891
20
-152.2399545
11
269.5189653
21
-135.8192155
0
LINE
8
0
10
269.5189653
20
-135.8192155
11
253.0982263
21
-140.2191393
0
LINE
8
0
10
253.0982263
20
-140.2191393
11
257.4981501
21
-156.6398783
0
LINE
8
0
10
242.3785265
20
-165.4727374
11
257.1009583
21
-156.9727374
0
LINE
8
0
10
257.1009583
20
-156.9727374
11
248.6009583
21
-142.2503056
0
LINE
8
0
10
248.6009583
20
-142.2503056
11
233.8785265
21
-150.7503056
0
LINE
8
0
10
233.8785265
20
-150.7503056
11
242.3785265
21
-165.4727374
0
ENDSEC
0
EOF