0
SECTION
2
HEADER
9
$INSUNITS
70
4
0
ENDSEC
0
SECTION
2
TABLES
0
TABLE
2
LTYPE
0
LTYPE
72
65
70
64
2
CONTINUOUS
3
______
73
0
40
0
0
ENDTAB
0
TABLE
2
LAYER
0
ENDTAB
0
ENDSEC
0
SECTION
2
ENTITIES
0
LINE
8
0
10
211.8945495
20
-6.7219546
11
228.5822116
21
-9.9657075
0
LINE
8
0
10
228.5822116
20
-9.9657075
11
238.3134703
21
40.0972788
0
LINE
8
0
10
211.8945495
20
-6.7219546
11
221.6258082
21
43.3410317
0
LINE
8
0
10
238.3134703
20
40.0972788
11
221.6258082
21
43.3410317
0
LINE
8
0
10
195.3938845
20
3.9134442
11
212.3007567
21
2.1364604
0
LINE
8
0
10
212.3007567
20
2.1364604
11
214.0777405
21
19.0433326
0
LINE
8
0
10
197.1708683
20
20.8203164
11
195.3938845
21
3.9134442
0
LINE
8
0
10
214.0777406
20
19.0433326
11
215.8547244
21
35.9502048
0
LINE
8
0
10
198.9478522
20
37.7271886
11
197.1708684
21
20.8203164
0
LINE
8
0
10
215.8547245
20
35.9502049
11
217.6317083
21
52.8570771
0
LINE
8
0
10
217.6317083
20
52.8570771
11
200.7248361
21
54.6340609
0
LINE
8
0
10
200.7248361
20
54.6340609
11
198.9478523
21
37.7271887
0
LINE
8
0
10
178.6329109
20
12.2780586
11
195.609613
21
11.3883473
0
LINE
8
0
10
195.609613
20
11.3883473
11
198.2787468
21
62.3184536
0
LINE
8
0
10
178.6329109
20
12.2780586
11
181.3020447
21
63.2081649
0
LINE
8
0
10
198.2787468
20
62.3184536
11
181.3020447
21
63.2081649
0
LINE
8
0
10
160.9341171
20
8.9082558
11
177.931528
21
8.6115649
0
LINE
8
0
10
177.931528
20
8.6115649
11
178.2282189
21
25.6089758
0
LINE
8
0
10
161.230808
20
25.9056667
11
160.9341171
21
8.9082558
0
LINE
8
0
10
178.228219
20
25.6089757
11
178.8216008
21
59.6037975
0
LINE
8
0
10
161.2308081
20
25.9056666
11
161.8241899
21
59.9004884
0
LINE
8
0
10
178.8216008
20
59.6037975
11
161.8241899
21
59.9004884
0
LINE
8
0
10
143.4489438
20
7.0660828
11
160.4489438
21
7.0660828
0
LINE
8
0
10
160.4489438
20
7.0660828
11
160.4489438
21
58.0660828
0
LINE
8
0
10
143.4489438
20
7.0660828
11
143.4489438
21
58.0660828
0
LINE
8
0
10
160.4489438
20
58.0660828
11
143.4489438
21
58.0660828
0
LINE
8
0
10
148.4385362
20
-14.8442486
11
164.8592752
21
-10.4443248
0
LINE
8
0
10
164.8592752
20
-10.4443248
11
160.4593514
21
5.9764142
0
LINE
8
0
10
160.4593514
20
5.9764142
11
144.0386124
21
1.5764904
0
LINE
8
0
10
144.0386124
20
1.5764904
11
148.4385362
21
-14.8442486
0
LINE
8
0
10
133.3189126
20
-23.6771076
11
148.0413444
21
-15.1771076
0
LINE
8
0
10
148.0413444
20
-15.1771076
11
139.5413444
21
-0.4546758
0
LINE
8
0
10
139.5413444
20
-0.4546758
11
124.8189126
21
-8.9546758
0
LINE
8
0
10
124.8189126
20
-8.9546758
11
133.3189126
21
-23.6771076
0
ENDSEC
0
EOF