0
SECTION
2
HEADER
9
$INSUNITS
70
4
0
ENDSEC
0
SECTION
2
TABLES
0
TABLE
2
LTYPE
0
LTYPE
72
65
70
64
2
CONTINUOUS
3
______
73
0
40
0
0
ENDTAB
0
TABLE
2
LAYER
0
ENDTAB
0
ENDSEC
0
SECTION
2
ENTITIES
0
LINE
8
0
10
-6.7219546
20
-9.9657075
11
9.9657075
21
-6.7219546
0
LINE
8
0
10
0.2344488
20
43.3410317
11
9.9657075
21
-6.7219546
0
LINE
8
0
10
-16.4532133
20
40.0972788
11
-6.7219546
21
-9.9657075
0
LINE
8
0
10
0.2344488
20
43.3410317
11
-16.4532133
21
40.0972788
0
LINE
8
0
10
9.5595003
20
2.1364604
11
26.4663725
21
3.9134442
0
LINE
8
0
10
26.4663725
20
3.9134442
11
24.6893887
21
20.8203164
0
LINE
8
0
10
7.7825165
20
19.0433326
11
9.5595003
21
2.1364604
0
LINE
8
0
10
24.6893886
20
20.8203164
11
22.9124048
21
37.7271886
0
LINE
8
0
10
6.0055326
20
35.9502048
11
7.7825164
21
19.0433326
0
LINE
8
0
10
22.9124047
20
37.7271887
11
21.1354209
21
54.6340609
0
LINE
8
0
10
21.1354209
20
54.6340609
11
4.2285487
21
52.8570771
0
LINE
8
0
10
4.2285487
20
52.8570771
11
6.0055325
21
35.9502049
0
LINE
8
0
10
26.250644
20
11.3883473
11
43.2273461
21
12.2780586
0
LINE
8
0
10
40.5582123
20
63.2081649
11
43.2273461
21
12.2780586
0
LINE
8
0
10
23.5815102
20
62.3184536
11
26.250644
21
11.3883473
0
LINE
8
0
10
40.5582123
20
63.2081649
11
23.5815102
21
62.3184536
0
LINE
8
0
10
43.928729
20
8.6115649
11
60.9261399
21
8.9082558
0
LINE
8
0
10
60.9261399
20
8.9082558
11
60.629449
21
25.9056667
0
LINE
8
0
10
43.6320381
20
25.6089758
11
43.928729
21
8.6115649
0
LINE
8
0
10
60.0360671
20
59.9004884
11
60.6294489
21
25.9056666
0
LINE
8
0
10
43.0386562
20
59.6037975
11
43.632038
21
25.6089757
0
LINE
8
0
10
60.0360671
20
59.9004884
11
43.0386562
21
59.6037975
0
LINE
8
0
10
61.4113132
20
7.0660828
11
78.4113132
21
7.0660828
0
LINE
8
0
10
78.4113132
20
7.0660828
11
78.4113132
21
58.0660828
0
LINE
8
0
10
61.4113132
20
7.0660828
11
61.4113132
21
58.0660828
0
LINE
8
0
10
78.4113132
20
58.0660828
11
61.4113132
21
58.0660828
0
LINE
8
0
10
57.0009818
20
-10.4443248
11
73.4217208
21
-14.8442486
0
LINE
8
0
10
73.4217208
20
-14.8442486
11
77.8216446
21
1.5764904
0
LINE
8
0
10
77.8216446
20
1.5764904
11
61.4009056
21
5.9764142
0
LINE
8
0
10
61.4009056
20
5.9764142
11
57.0009818
21
-10.4443248
0
LINE
8
0
10
73.8189126
20
-15.1771076
11
88.5413444
21
-23.6771076
0
LINE
8
0
10
88.5413444
20
-23.6771076
11
97.0413444
21
-8.9546758
0
LINE
8
0
10
97.0413444
20
-8.9546758
11
82.3189126
21
-0.4546758
0
LINE
8
0
10
82.3189126
20
-0.4546758
11
73.8189126
21
-15.1771076
0
ENDSEC
0
EOF