0
SECTION
2
HEADER
9
$INSUNITS
70
4
0
ENDSEC
0
SECTION
2
TABLES
0
TABLE
2
LTYPE
0
LTYPE
72
65
70
64
2
CONTINUOUS
3
______
73
0
40
0
0
ENDTAB
0
TABLE
2
LAYER
0
ENDTAB
0
ENDSEC
0
SECTION
2
ENTITIES
0
LINE
8
0
10
99.8762622
20
-153.2346477
11
116.1255901
21
-150.3694528
0
LINE
8
0
10
116.1255901
20
-150.3694528
11
113.2603952
21
-134.1201249
0
LINE
8
0
10
113.2603952
20
-134.1201249
11
97.0110673
21
-136.9853198
0
LINE
8
0
10
97.0110673
20
-136.9853198
11
99.8762622
21
-153.2346477
0
LINE
8
0
10
96.9242431
20
-136.4929159
11
113.173571
21
-133.627721
0
LINE
8
0
10
113.173571
20
-133.627721
11
110.3083761
21
-117.3783931
0
LINE
8
0
10
110.3083761
20
-117.3783931
11
94.0590482
21
-120.243588
0
LINE
8
0
10
94.0590482
20
-120.243588
11
96.9242431
21
-136.4929159
0
LINE
8
0
10
93.9722241
20
-119.7511841
11
110.221552
21
-116.8859892
0
LINE
8
0
10
110.221552
20
-116.8859892
11
107.3563571
21
-100.6366613
0
LINE
8
0
10
107.3563571
20
-100.6366613
11
91.1070292
21
-103.5018562
0
LINE
8
0
10
91.1070292
20
-103.5018562
11
93.9722241
21
-119.7511841
0
LINE
8
0
10
116.5480448
20
-141.5667744
11
132.9576561
21
-139.8420547
0
LINE
8
0
10
132.9576561
20
-139.8420547
11
131.2329364
21
-123.4324434
0
LINE
8
0
10
131.2329364
20
-123.4324434
11
114.8233251
21
-125.1571631
0
LINE
8
0
10
114.8233251
20
-125.1571631
11
116.5480448
21
-141.5667744
0
LINE
8
0
10
114.7710609
20
-124.6599021
11
131.1806722
21
-122.9351824
0
LINE
8
0
10
131.1806722
20
-122.9351824
11
129.4559525
21
-106.5255711
0
LINE
8
0
10
129.4559525
20
-106.5255711
11
113.0463412
21
-108.2502908
0
LINE
8
0
10
113.0463412
20
-108.2502908
11
114.7710609
21
-124.6599021
0
LINE
8
0
10
112.9940771
20
-107.7530298
11
129.4036884
21
-106.0283101
0
LINE
8
0
10
129.4036884
20
-106.0283101
11
127.6789687
21
-89.6186988
0
LINE
8
0
10
127.6789687
20
-89.6186988
11
111.2693574
21
-91.3434185
0
LINE
8
0
10
111.2693574
20
-91.3434185
11
112.9940771
21
-107.7530298
0
LINE
8
0
10
133.2532634
20
-132.3269086
11
149.7306507
21
-131.4633653
0
LINE
8
0
10
149.7306507
20
-131.4633653
11
148.8671074
21
-114.985978
0
LINE
8
0
10
148.8671074
20
-114.985978
11
132.3897201
21
-115.8495213
0
LINE
8
0
10
132.3897201
20
-115.8495213
11
133.2532634
21
-132.3269086
0
LINE
8
0
10
132.3635521
20
-115.3502065
11
148.8409394
21
-114.4866632
0
LINE
8
0
10
148.8409394
20
-114.4866632
11
147.9773961
21
-98.0092759
0
LINE
8
0
10
147.9773961
20
-98.0092759
11
131.5000088
21
-98.8728192
0
LINE
8
0
10
131.5000088
20
-98.8728192
11
132.3635521
21
-115.3502065
0
LINE
8
0
10
131.4738408
20
-98.3735044
11
147.9512281
21
-97.5099611
0
LINE
8
0
10
147.9512281
20
-97.5099611
11
147.0876848
21
-81.0325738
0
LINE
8
0
10
147.0876848
20
-81.0325738
11
130.6102975
21
-81.8961171
0
LINE
8
0
10
130.6102975
20
-81.8961171
11
131.4738408
21
-98.3735044
0
LINE
8
0
10
150.9403738
20
-135.1121072
11
167.4378607
21
-134.8241425
0
LINE
8
0
10
167.4378607
20
-134.8241425
11
167.149896
21
-118.3266556
0
LINE
8
0
10
167.149896
20
-118.3266556
11
150.6524091
21
-118.6146203
0
LINE
8
0
10
150.6524091
20
-118.6146203
11
150.9403738
21
-135.1121072
0
LINE
8
0
10
150.6436829
20
-118.1146964
11
167.1411698
21
-117.8267317
0
LINE
8
0
10
167.1411698
20
-117.8267317
11
166.8532051
21
-101.3292448
0
LINE
8
0
10
166.8532051
20
-101.3292448
11
150.3557182
21
-101.6172095
0
LINE
8
0
10
150.3557182
20
-101.6172095
11
150.6436829
21
-118.1146964
0
LINE
8
0
10
150.346992
20
-101.1172855
11
166.8444789
21
-100.8293208
0
LINE
8
0
10
166.8444789
20
-100.8293208
11
166.5565142
21
-84.3318339
0
LINE
8
0
10
166.5565142
20
-84.3318339
11
150.0590273
21
-84.6197986
0
LINE
8
0
10
150.0590273
20
-84.6197986
11
150.346992
21
-101.1172855
0
LINE
8
0
10
168.4273593
20
-136.6619143
11
184.9273593
21
-136.6619143
0
LINE
8
0
10
184.9273593
20
-136.6619143
11
184.9273593
21
-120.1619143
0
LINE
8
0
10
184.9273593
20
-120.1619143
11
168.4273593
21
-120.1619143
0
LINE
8
0
10
168.4273593
20
-120.1619143
11
168.4273593
21
-136.6619143
0
LINE
8
0
10
168.4273593
20
-119.6619143
11
184.9273593
21
-119.6619143
0
LINE
8
0
10
184.9273593
20
-119.6619143
11
184.9273593
21
-103.1619143
0
LINE
8
0
10
184.9273593
20
-103.1619143
11
168.4273593
21
-103.1619143
0
LINE
8
0
10
168.4273593
20
-103.1619143
11
168.4273593
21
-119.6619143
0
LINE
8
0
10
168.4273593
20
-102.6619144
11
184.9273593
21
-102.6619144
0
LINE
8
0
10
184.9273593
20
-102.6619144
11
184.9273593
21
-86.1619144
0
LINE
8
0
10
184.9273593
20
-86.1619144
11
168.4273593
21
-86.1619144
0
LINE
8
0
10
168.4273593
20
-86.1619144
11
168.4273593
21
-102.6619144
0
LINE
8
0
10
164.0732141
20
-154.2455452
11
180.0109902
21
-158.5160595
0
LINE
8
0
10
180.0109902
20
-158.5160595
11
184.2815045
21
-142.5782834
0
LINE
8
0
10
184.2815045
20
-142.5782834
11
168.3437284
21
-138.3077691
0
LINE
8
0
10
168.3437284
20
-138.3077691
11
164.0732141
21
-154.2455452
0
LINE
8
0
10
180.926465
20
-159.0635984
11
195.2158842
21
-167.3135984
0
LINE
8
0
10
195.2158842
20
-167.3135984
11
203.4658842
21
-153.0241792
0
LINE
8
0
10
203.4658842
20
-153.0241792
11
189.176465
21
-144.7741792
0
LINE
8
0
10
189.176465
20
-144.7741792
11
180.926465
21
-159.0635984
0
LINE
8
0
10
319.2667591
20
-150.3694528
11
335.516087
21
-153.2346477
0
LINE
8
0
10
335.516087
20
-153.2346477
11
338.3812819
21
-136.9853198
0
LINE
8
0
10
338.3812819
20
-136.9853198
11
322.131954
21
-134.1201249
0
LINE
8
0
10
322.131954
20
-134.1201249
11
319.2667591
21
-150.3694528
0
LINE
8
0
10
322.2187782
20
-133.627721
11
338.4681061
21
-136.4929159
0
LINE
8
0
10
338.4681061
20
-136.4929159
11
341.333301
21
-120.243588
0
LINE
8
0
10
341.333301
20
-120.243588
11
325.0839731
21
-117.3783931
0
LINE
8
0
10
325.0839731
20
-117.3783931
11
322.2187782
21
-133.627721
0
LINE
8
0
10
325.1707972
20
-116.8859892
11
341.4201251
21
-119.7511841
0
LINE
8
0
10
341.4201251
20
-119.7511841
11
344.28532
21
-103.5018562
0
LINE
8
0
10
344.28532
20
-103.5018562
11
328.0359921
21
-100.6366613
0
LINE
8
0
10
328.0359921
20
-100.6366613
11
325.1707972
21
-116.8859892
0
LINE
8
0
10
302.4346931
20
-139.8420547
11
318.8443044
21
-141.5667744
0
LINE
8
0
10
318.8443044
20
-141.5667744
11
320.5690241
21
-125.1571631
0
LINE
8
0
10
320.5690241
20
-125.1571631
11
304.1594128
21
-123.4324434
0
LINE
8
0
10
304.1594128
20
-123.4324434
11
302.4346931
21
-139.8420547
0
LINE
8
0
10
304.211677
20
-122.9351824
11
320.6212883
21
-124.6599021
0
LINE
8
0
10
320.6212883
20
-124.6599021
11
322.346008
21
-108.2502908
0
LINE
8
0
10
322.346008
20
-108.2502908
11
305.9363967
21
-106.5255711
0
LINE
8
0
10
305.9363967
20
-106.5255711
11
304.211677
21
-122.9351824
0
LINE
8
0
10
305.9886608
20
-106.0283101
11
322.3982721
21
-107.7530298
0
LINE
8
0
10
322.3982721
20
-107.7530298
11
324.1229918
21
-91.3434185
0
LINE
8
0
10
324.1229918
20
-91.3434185
11
307.7133805
21
-89.6186988
0
LINE
8
0
10
307.7133805
20
-89.6186988
11
305.9886608
21
-106.0283101
0
LINE
8
0
10
285.6616985
20
-131.4633653
11
302.1390858
21
-132.3269086
0
LINE
8
0
10
302.1390858
20
-132.3269086
11
303.0026291
21
-115.8495213
0
LINE
8
0
10
303.0026291
20
-115.8495213
11
286.5252418
21
-114.985978
0
LINE
8
0
10
286.5252418
20
-114.985978
11
285.6616985
21
-131.4633653
0
LINE
8
0
10
286.5514098
20
-114.4866632
11
303.0287971
21
-115.3502065
0
LINE
8
0
10
303.0287971
20
-115.3502065
11
303.8923404
21
-98.8728192
0
LINE
8
0
10
303.8923404
20
-98.8728192
11
287.4149531
21
-98.0092759
0
LINE
8
0
10
287.4149531
20
-98.0092759
11
286.5514098
21
-114.4866632
0
LINE
8
0
10
287.4411211
20
-97.5099611
11
303.9185084
21
-98.3735044
0
LINE
8
0
10
303.9185084
20
-98.3735044
11
304.7820517
21
-81.8961171
0
LINE
8
0
10
304.7820517
20
-81.8961171
11
288.3046644
21
-81.0325738
0
LINE
8
0
10
288.3046644
20
-81.0325738
11
287.4411211
21
-97.5099611
0
LINE
8
0
10
267.9544885
20
-134.8241425
11
284.4519754
21
-135.1121072
0
LINE
8
0
10
284.4519754
20
-135.1121072
11
284.7399401
21
-118.6146203
0
LINE
8
0
10
284.7399401
20
-118.6146203
11
268.2424532
21
-118.3266556
0
LINE
8
0
10
268.2424532
20
-118.3266556
11
267.9544885
21
-134.8241425
0
LINE
8
0
10
268.2511794
20
-117.8267317
11
284.7486663
21
-118.1146964
0
LINE
8
0
10
284.7486663
20
-118.1146964
11
285.036631
21
-101.6172095
0
LINE
8
0
10
285.036631
20
-101.6172095
11
268.5391441
21
-101.3292448
0
LINE
8
0
10
268.5391441
20
-101.3292448
11
268.2511794
21
-117.8267317
0
LINE
8
0
10
268.5478703
20
-100.8293208
11
285.0453572
21
-101.1172855
0
LINE
8
0
10
285.0453572
20
-101.1172855
11
285.3333219
21
-84.6197986
0
LINE
8
0
10
285.3333219
20
-84.6197986
11
268.835835
21
-84.3318339
0
LINE
8
0
10
268.835835
20
-84.3318339
11
268.5478703
21
-100.8293208
0
LINE
8
0
10
250.4649899
20
-136.6619143
11
266.9649899
21
-136.6619143
0
LINE
8
0
10
266.9649899
20
-136.6619143
11
266.9649899
21
-120.1619143
0
LINE
8
0
10
266.9649899
20
-120.1619143
11
250.4649899
21
-120.1619143
0
LINE
8
0
10
250.4649899
20
-120.1619143
11
250.4649899
21
-136.6619143
0
LINE
8
0
10
250.4649899
20
-119.6619143
11
266.9649899
21
-119.6619143
0
LINE
8
0
10
266.9649899
20
-119.6619143
11
266.9649899
21
-103.1619143
0
LINE
8
0
10
266.9649899
20
-103.1619143
11
250.4649899
21
-103.1619143
0
LINE
8
0
10
250.4649899
20
-103.1619143
11
250.4649899
21
-119.6619143
0
LINE
8
0
10
250.4649899
20
-102.6619144
11
266.9649899
21
-102.6619144
0
LINE
8
0
10
266.9649899
20
-102.6619144
11
266.9649899
21
-86.1619144
0
LINE
8
0
10
266.9649899
20
-86.1619144
11
250.4649899
21
-86.1619144
0
LINE
8
0
10
250.4649899
20
-86.1619144
11
250.4649899
21
-102.6619144
0
LINE
8
0
10
255.381359
20
-158.5160595
11
271.3191351
21
-154.2455452
0
LINE
8
0
10
271.3191351
20
-154.2455452
11
267.0486208
21
-138.3077691
0
LINE
8
0
10
267.0486208
20
-138.3077691
11
251.1108447
21
-142.5782834
0
LINE
8
0
10
251.1108447
20
-142.5782834
11
255.381359
21
-158.5160595
0
LINE
8
0
10
240.176465
20
-167.3135984
11
254.4658842
21
-159.0635984
0
LINE
8
0
10
254.4658842
20
-159.0635984
11
246.2158842
21
-144.7741792
0
LINE
8
0
10
246.2158842
20
-144.7741792
11
231.926465
21
-153.0241792
0
LINE
8
0
10
231.926465
20
-153.0241792
11
240.176465
21
-167.3135984
0
ENDSEC
0
EOF