0
SECTION
2
HEADER
9
$INSUNITS
70
4
0
ENDSEC
0
SECTION
2
TABLES
0
TABLE
2
LTYPE
0
LTYPE
72
65
70
64
2
CONTINUOUS
3
______
73
0
40
0
0
ENDTAB
0
TABLE
2
LAYER
0
ENDTAB
0
ENDSEC
0
SECTION
2
ENTITIES
0
LINE
8
0
10
98.8623127
20
-154.6827176
11
117.57366
21
-151.3834023
0
LINE
8
0
10
117.57366
20
-151.3834023
11
116.0731475
21
-142.8735734
0
LINE
8
0
10
108.3703066
20
-99.1885914
11
114.4772098
21
-133.8225604
0
LINE
8
0
10
89.6589593
20
-102.4879067
11
98.8623127
21
-154.6827176
0
LINE
8
0
10
108.3703066
20
-99.1885914
11
89.6589593
21
-102.4879067
0
LINE
8
0
10
116.0731475
20
-142.8735734
11
134.331469
21
-140.9545465
0
LINE
8
0
10
134.331469
20
-140.9545465
11
133.5545686
21
-133.5628333
0
LINE
8
0
10
109.8955445
20
-90.2309267
11
114.4772098
21
-133.8225604
0
LINE
8
0
10
128.7914605
20
-88.2448859
11
130.586224
21
-105.3209211
0
LINE
8
0
10
128.7914605
20
-88.2448859
11
109.8955445
21
-90.2309267
0
LINE
8
0
10
133.5545686
20
-133.5628333
11
149.6484184
21
-132.7193904
0
LINE
8
0
10
129.2965906
20
-80.7132501
11
130.586224
21
-105.3209211
0
LINE
8
0
10
148.9493844
20
-92.6717648
11
148.2705518
21
-79.7188669
0
LINE
8
0
10
148.2705518
20
-79.7188669
11
129.2965906
21
-80.7132501
0
LINE
8
0
10
149.7123797
20
-136.3837324
11
167.1773593
21
-136.07888
0
LINE
8
0
10
149.6484184
20
-132.7193904
11
149.7123797
21
-136.3837324
0
LINE
8
0
10
167.8168299
20
-84.9119144
11
167.7845083
21
-83.0602087
0
LINE
8
0
10
167.7845083
20
-83.0602087
11
148.7874021
21
-83.3918045
0
LINE
8
0
10
148.7874021
20
-83.3918045
11
148.9493844
21
-92.6717648
0
LINE
8
0
10
171.6960073
20
-137.9119143
11
186.1773593
21
-137.9119143
0
LINE
8
0
10
186.1773593
20
-137.9119143
11
186.1773593
21
-84.9119144
0
LINE
8
0
10
167.1773593
20
-136.07888
11
167.1773593
21
-137.8310886
0
LINE
8
0
10
186.1773593
20
-84.9119144
11
167.8168299
21
-84.9119144
0
LINE
8
0
10
162.542283
20
-155.1294287
11
179.4671342
21
-159.6644289
0
LINE
8
0
10
182.6092109
20
-153.648997
11
185.8124356
21
-141.6943999
0
LINE
8
0
10
185.8124356
20
-141.6943999
11
171.6960073
21
-137.9119143
0
LINE
8
0
10
167.1773593
20
-137.8310886
11
162.542283
21
-155.1294287
0
LINE
8
0
10
179.4671342
20
-159.6644289
11
195.6734159
21
-169.0211301
0
LINE
8
0
10
195.6734159
20
-169.0211301
11
205.1734159
21
-152.5666475
0
LINE
8
0
10
205.1734159
20
-152.5666475
11
188.7189333
21
-143.0666475
0
LINE
8
0
10
188.7189333
20
-143.0666475
11
182.6092109
21
-153.648997
0
LINE
8
0
10
317.8186892
20
-151.3834023
11
336.5300365
21
-154.6827176
0
LINE
8
0
10
336.5300365
20
-154.6827176
11
345.7333899
21
-102.4879067
0
LINE
8
0
10
320.9151394
20
-133.8225604
11
327.0220426
21
-99.1885914
0
LINE
8
0
10
319.3192017
20
-142.8735734
11
317.8186892
21
-151.3834023
0
LINE
8
0
10
345.7333899
20
-102.4879067
11
327.0220426
21
-99.1885914
0
LINE
8
0
10
301.0608802
20
-140.9545465
11
319.3192017
21
-142.8735734
0
LINE
8
0
10
320.9151394
20
-133.8225604
11
325.4968047
21
-90.2309267
0
LINE
8
0
10
301.8377806
20
-133.5628333
11
301.0608802
21
-140.9545465
0
LINE
8
0
10
304.8061252
20
-105.3209211
11
306.6008887
21
-88.2448859
0
LINE
8
0
10
325.4968047
20
-90.2309267
11
306.6008887
21
-88.2448859
0
LINE
8
0
10
285.7439308
20
-132.7193904
11
301.8377806
21
-133.5628333
0
LINE
8
0
10
304.8061252
20
-105.3209211
11
306.0957586
21
-80.7132501
0
LINE
8
0
10
306.0957586
20
-80.7132501
11
287.1217974
21
-79.7188669
0
LINE
8
0
10
287.1217974
20
-79.7188669
11
286.4429648
21
-92.6717648
0
LINE
8
0
10
268.2149899
20
-136.07888
11
285.6799695
21
-136.3837324
0
LINE
8
0
10
285.6799695
20
-136.3837324
11
285.7439308
21
-132.7193904
0
LINE
8
0
10
286.4429648
20
-92.6717648
11
286.6049471
21
-83.3918045
0
LINE
8
0
10
286.6049471
20
-83.3918045
11
267.6078409
21
-83.0602087
0
LINE
8
0
10
267.6078409
20
-83.0602087
11
267.5755193
21
-84.9119144
0
LINE
8
0
10
249.2149899
20
-137.9119143
11
263.6963419
21
-137.9119143
0
LINE
8
0
10
268.2149899
20
-137.8310886
11
268.2149899
21
-136.07888
0
LINE
8
0
10
249.2149899
20
-137.9119143
11
249.2149899
21
-84.9119144
0
LINE
8
0
10
267.5755193
20
-84.9119144
11
249.2149899
21
-84.9119144
0
LINE
8
0
10
255.925215
20
-159.6644289
11
272.8500662
21
-155.1294287
0
LINE
8
0
10
272.8500662
20
-155.1294287
11
268.2149899
21
-137.8310886
0
LINE
8
0
10
263.6963419
20
-137.9119143
11
249.5799136
21
-141.6943999
0
LINE
8
0
10
249.5799136
20
-141.6943999
11
252.7831383
21
-153.648997
0
LINE
8
0
10
239.7189333
20
-169.0211301
11
255.925215
21
-159.6644289
0
LINE
8
0
10
252.7831383
20
-153.648997
11
246.6734159
21
-143.0666475
0
LINE
8
0
10
246.6734159
20
-143.0666475
11
230.2189333
21
-152.5666475
0
LINE
8
0
10
230.2189333
20
-152.5666475
11
239.7189333
21
-169.0211301
0
ENDSEC
0
EOF