0
SECTION
2
HEADER
9
$INSUNITS
70
4
0
ENDSEC
0
SECTION
2
TABLES
0
TABLE
2
LTYPE
0
LTYPE
72
65
70
64
2
CONTINUOUS
3
______
73
0
40
0
0
ENDTAB
0
TABLE
2
LAYER
0
ENDTAB
0
ENDSEC
0
SECTION
2
ENTITIES
0
LINE
8
0
10
210.7221133
20
-7.5127728
11
229.3730298
21
-11.1381437
0
LINE
8
0
10
229.3730298
20
-11.1381437
11
239.4859065
21
40.888097
0
LINE
8
0
10
214.1404143
20
10.0728616
11
220.83499
21
44.5134679
0
LINE
8
0
10
212.4002505
20
1.1204949
11
210.7221133
21
-7.5127728
0
LINE
8
0
10
239.4859065
20
40.888097
11
220.83499
21
44.5134679
0
LINE
8
0
10
194.2948341
20
3.0234508
11
212.4002505
21
1.1204949
0
LINE
8
0
10
214.1404143
20
10.0728616
11
218.7307587
21
53.7470705
0
LINE
8
0
10
195.0717345
20
10.415164
11
194.2948341
21
3.0234508
0
LINE
8
0
10
198.0400786
20
38.657072
11
199.8348427
21
55.7331113
0
LINE
8
0
10
218.7307587
20
53.7470705
11
199.8348427
21
55.7331113
0
LINE
8
0
10
178.9778845
20
11.2586069
11
195.0717345
21
10.415164
0
LINE
8
0
10
198.0400786
20
38.657072
11
199.3297123
21
63.2647472
0
LINE
8
0
10
199.3297123
20
63.2647472
11
180.3557511
21
64.2591304
0
LINE
8
0
10
180.3557511
20
64.2591304
11
179.6769186
21
51.3062354
0
LINE
8
0
10
161.4489438
20
7.8991172
11
178.9139232
21
7.5942648
0
LINE
8
0
10
178.9139232
20
7.5942648
11
178.9778845
21
11.2586069
0
LINE
8
0
10
179.6769186
20
51.3062354
11
179.8389009
21
60.5861927
0
LINE
8
0
10
179.8389009
20
60.5861927
11
160.8417947
21
60.9177885
0
LINE
8
0
10
160.8417947
20
60.9177885
11
160.8094731
21
59.0660828
0
LINE
8
0
10
142.4489438
20
6.0660828
11
156.9302958
21
6.0660828
0
LINE
8
0
10
161.4489438
20
6.1469085
11
161.4489438
21
7.8991172
0
LINE
8
0
10
142.4489438
20
6.0660828
11
142.4489438
21
59.0660828
0
LINE
8
0
10
160.8094731
20
59.0660828
11
142.4489438
21
59.0660828
0
LINE
8
0
10
149.1591689
20
-15.6864318
11
166.0840201
21
-11.1514316
0
LINE
8
0
10
166.0840201
20
-11.1514316
11
161.4489438
21
6.1469085
0
LINE
8
0
10
156.9302958
20
6.0660828
11
142.8138675
21
2.2835972
0
LINE
8
0
10
142.8138675
20
2.2835972
11
146.0170922
21
-9.6709999
0
LINE
8
0
10
132.9528872
20
-25.043133
11
149.1591689
21
-15.6864318
0
LINE
8
0
10
146.0170922
20
-9.6709999
11
139.9073698
21
0.9113496
0
LINE
8
0
10
139.9073698
20
0.9113496
11
123.4528872
21
-8.5886504
0
LINE
8
0
10
123.4528872
20
-8.5886504
11
132.9528872
21
-25.043133
0
ENDSEC
0
EOF