0
SECTION
2
HEADER
9
$INSUNITS
70
4
0
ENDSEC
0
SECTION
2
TABLES
0
TABLE
2
LTYPE
0
LTYPE
72
65
70
64
2
CONTINUOUS
3
______
73
0
40
0
0
ENDTAB
0
TABLE
2
LAYER
0
ENDTAB
0
ENDSEC
0
SECTION
2
ENTITIES
0
LINE
8
0
10
-7.5127728
20
-11.1381437
11
11.1381437
21
-7.5127728
0
LINE
8
0
10
11.1381437
20
-7.5127728
11
9.4600065
21
1.1204949
0
LINE
8
0
10
1.025267
20
44.5134679
11
7.7198427
21
10.0728616
0
LINE
8
0
10
-17.6256495
20
40.888097
11
-7.5127728
21
-11.1381437
0
LINE
8
0
10
1.025267
20
44.5134679
11
-17.6256495
21
40.888097
0
LINE
8
0
10
9.4600065
20
1.1204949
11
27.5654229
21
3.0234508
0
LINE
8
0
10
27.5654229
20
3.0234508
11
26.7885225
21
10.415164
0
LINE
8
0
10
3.1294983
20
53.7470705
11
7.7198427
21
10.0728616
0
LINE
8
0
10
22.0254143
20
55.7331113
11
23.8201784
21
38.657072
0
LINE
8
0
10
22.0254143
20
55.7331113
11
3.1294983
21
53.7470705
0
LINE
8
0
10
26.7885225
20
10.415164
11
42.8823725
21
11.2586069
0
LINE
8
0
10
22.5305447
20
63.2647472
11
23.8201784
21
38.657072
0
LINE
8
0
10
42.1833384
20
51.3062354
11
41.5045059
21
64.2591304
0
LINE
8
0
10
41.5045059
20
64.2591304
11
22.5305447
21
63.2647472
0
LINE
8
0
10
42.9463338
20
7.5942648
11
60.4113132
21
7.8991172
0
LINE
8
0
10
42.8823725
20
11.2586069
11
42.9463338
21
7.5942648
0
LINE
8
0
10
61.0507839
20
59.0660828
11
61.0184623
21
60.9177885
0
LINE
8
0
10
61.0184623
20
60.9177885
11
42.0213561
21
60.5861927
0
LINE
8
0
10
42.0213561
20
60.5861927
11
42.1833384
21
51.3062354
0
LINE
8
0
10
64.9299612
20
6.0660828
11
79.4113132
21
6.0660828
0
LINE
8
0
10
79.4113132
20
6.0660828
11
79.4113132
21
59.0660828
0
LINE
8
0
10
60.4113132
20
7.8991172
11
60.4113132
21
6.1469085
0
LINE
8
0
10
79.4113132
20
59.0660828
11
61.0507839
21
59.0660828
0
LINE
8
0
10
55.7762369
20
-11.1514316
11
72.7010881
21
-15.6864318
0
LINE
8
0
10
75.8431648
20
-9.6709999
11
79.0463895
21
2.2835972
0
LINE
8
0
10
79.0463895
20
2.2835972
11
64.9299612
21
6.0660828
0
LINE
8
0
10
60.4113132
20
6.1469085
11
55.7762369
21
-11.1514316
0
LINE
8
0
10
72.7010881
20
-15.6864318
11
88.9073698
21
-25.043133
0
LINE
8
0
10
88.9073698
20
-25.043133
11
98.4073698
21
-8.5886504
0
LINE
8
0
10
98.4073698
20
-8.5886504
11
81.9528872
21
0.9113496
0
LINE
8
0
10
81.9528872
20
0.9113496
11
75.8431648
21
-9.6709999
0
ENDSEC
0
EOF