0
SECTION
2
HEADER
9
$INSUNITS
70
4
0
ENDSEC
0
SECTION
2
TABLES
0
TABLE
2
LTYPE
0
LTYPE
72
65
70
64
2
CONTINUOUS
3
______
73
0
40
0
0
ENDTAB
0
TABLE
2
LAYER
0
ENDTAB
0
ENDSEC
0
SECTION
2
ENTITIES
0
LINE
8
0
10
319.7817272
20
-149.3084025
11
338.4326437
21
-152.9337734
0
LINE
8
0
10
338.4326437
20
-152.9337734
11
348.5455204
21
-100.9075327
0
LINE
8
0
10
323.200028
20
-131.7227693
11
329.8946039
21
-97.2821618
0
LINE
8
0
10
321.4598644
20
-140.6751349
11
319.7817272
21
-149.3084025
0
LINE
8
0
10
348.5455204
20
-100.9075327
11
329.8946039
21
-97.2821618
0
LINE
8
0
10
303.3544479
20
-138.7721789
11
321.4598644
21
-140.6751349
0
LINE
8
0
10
323.200028
20
-131.7227693
11
325.8043318
21
-106.9444752
0
LINE
8
0
10
304.1313483
20
-131.3804657
11
303.3544479
21
-138.7721789
0
LINE
8
0
10
325.8043318
20
-106.9444752
11
326.0133886
21
-104.9554315
0
LINE
8
0
10
307.1174726
20
-102.9693907
11
307.0996926
21
-103.1385559
0
LINE
8
0
10
326.0133886
20
-104.9554315
11
327.7903726
21
-88.0485592
0
LINE
8
0
10
327.7903726
20
-88.0485592
11
308.8944566
21
-86.0625184
0
LINE
8
0
10
308.8944566
20
-86.0625184
11
307.1174726
21
-102.9693907
0
LINE
8
0
10
288.0374984
20
-130.5370228
11
304.1313483
21
-131.3804657
0
LINE
8
0
10
307.0996926
20
-103.1385559
11
308.3893262
21
-78.5308825
0
LINE
8
0
10
308.3893262
20
-78.5308825
11
289.415365
21
-77.5364993
0
LINE
8
0
10
289.415365
20
-77.5364993
11
288.7365325
21
-90.4893942
0
LINE
8
0
10
270.5085577
20
-133.8965125
11
287.9735371
21
-134.2013649
0
LINE
8
0
10
287.9735371
20
-134.2013649
11
288.0374984
21
-130.5370228
0
LINE
8
0
10
288.7365325
20
-90.4893942
11
288.8985148
21
-81.2094371
0
LINE
8
0
10
288.8985148
20
-81.2094371
11
269.9014086
21
-80.8778413
0
LINE
8
0
10
269.9014086
20
-80.8778413
11
269.8690869
21
-82.7295469
0
LINE
8
0
10
251.5085577
20
-135.7295469
11
265.9899097
21
-135.7295469
0
LINE
8
0
10
270.5085577
20
-135.6487212
11
270.5085577
21
-133.8965125
0
LINE
8
0
10
251.5085577
20
-135.7295469
11
251.5085577
21
-82.7295469
0
LINE
8
0
10
269.8690869
20
-82.7295469
11
251.5085577
21
-82.7295469
0
LINE
8
0
10
258.2187831
20
-157.4820615
11
275.143634
21
-152.9470613
0
LINE
8
0
10
275.143634
20
-152.9470613
11
270.5085577
21
-135.6487212
0
LINE
8
0
10
265.9899097
20
-135.7295469
11
251.8734814
21
-139.5120325
0
LINE
8
0
10
251.8734814
20
-139.5120325
11
255.0767061
21
-151.4666298
0
LINE
8
0
10
242.0125011
20
-166.8387628
11
258.2187831
21
-157.4820615
0
LINE
8
0
10
255.0767061
20
-151.4666298
11
248.9669837
21
-140.8842802
0
LINE
8
0
10
248.9669837
20
-140.8842802
11
232.5125011
21
-150.3842802
0
LINE
8
0
10
232.5125011
20
-150.3842802
11
242.0125011
21
-166.8387628
0
ENDSEC
0
EOF