0
SECTION
2
HEADER
9
$INSUNITS
70
4
0
ENDSEC
0
SECTION
2
TABLES
0
TABLE
2
LTYPE
0
LTYPE
72
65
70
64
2
CONTINUOUS
3
______
73
0
40
0
0
ENDTAB
0
TABLE
2
LAYER
0
ENDTAB
0
ENDSEC
0
SECTION
2
ENTITIES
0
LINE
8
0
10
101.5468411
20
-152.9337734
11
120.1977576
21
-149.3084025
0
LINE
8
0
10
120.1977576
20
-149.3084025
11
118.5196204
21
-140.6751349
0
LINE
8
0
10
110.0848809
20
-97.2821618
11
116.7794568
21
-131.7227693
0
LINE
8
0
10
91.4339644
20
-100.9075327
11
101.5468411
21
-152.9337734
0
LINE
8
0
10
110.0848809
20
-97.2821618
11
91.4339644
21
-100.9075327
0
LINE
8
0
10
118.5196204
20
-140.6751349
11
136.6250369
21
-138.7721789
0
LINE
8
0
10
136.6250369
20
-138.7721789
11
135.8481365
21
-131.3804657
0
LINE
8
0
10
112.1891122
20
-88.0485592
11
116.7794568
21
-131.7227693
0
LINE
8
0
10
132.8797922
20
-103.1385559
11
132.8620122
21
-102.9693907
0
LINE
8
0
10
132.8620122
20
-102.9693907
11
131.0850282
21
-86.0625184
0
LINE
8
0
10
131.0850282
20
-86.0625184
11
112.1891122
21
-88.0485592
0
LINE
8
0
10
135.8481365
20
-131.3804657
11
151.9419864
21
-130.5370228
0
LINE
8
0
10
131.5901586
20
-78.5308825
11
132.8797922
21
-103.1385559
0
LINE
8
0
10
151.2429523
20
-90.4893942
11
150.5641198
21
-77.5364993
0
LINE
8
0
10
150.5641198
20
-77.5364993
11
131.5901586
21
-78.5308825
0
LINE
8
0
10
152.0059477
20
-134.2013649
11
169.4709271
21
-133.8965125
0
LINE
8
0
10
151.9419864
20
-130.5370228
11
152.0059477
21
-134.2013649
0
LINE
8
0
10
170.1103979
20
-82.7295469
11
170.0780762
21
-80.8778413
0
LINE
8
0
10
170.0780762
20
-80.8778413
11
151.08097
21
-81.2094371
0
LINE
8
0
10
151.08097
20
-81.2094371
11
151.2429523
21
-90.4893942
0
LINE
8
0
10
173.9895751
20
-135.7295469
11
188.4709271
21
-135.7295469
0
LINE
8
0
10
188.4709271
20
-135.7295469
11
188.4709271
21
-82.7295469
0
LINE
8
0
10
169.4709271
20
-133.8965125
11
169.4709271
21
-135.6487212
0
LINE
8
0
10
188.4709271
20
-82.7295469
11
170.1103979
21
-82.7295469
0
LINE
8
0
10
164.8358508
20
-152.9470613
11
181.7607017
21
-157.4820615
0
LINE
8
0
10
184.9027787
20
-151.4666298
11
188.1060034
21
-139.5120325
0
LINE
8
0
10
188.1060034
20
-139.5120325
11
173.9895751
21
-135.7295469
0
LINE
8
0
10
169.4709271
20
-135.6487212
11
164.8358508
21
-152.9470613
0
LINE
8
0
10
181.7607017
20
-157.4820615
11
197.9669837
21
-166.8387628
0
LINE
8
0
10
197.9669837
20
-166.8387628
11
207.4669837
21
-150.3842802
0
LINE
8
0
10
207.4669837
20
-150.3842802
11
191.0125011
21
-140.8842802
0
LINE
8
0
10
191.0125011
20
-140.8842802
11
184.9027787
21
-151.4666298
0
ENDSEC
0
EOF